<svg width="48" height="48" viewBox="0 0 48 48" fill="none" xmlns="http://www.w3.org/2000/svg">
<path d="M22.402 37.4273C23.2341 37.4273 23.9086 38.1019 23.9086 38.934C23.9086 39.7661 23.2341 40.4406 22.402 40.4406H2.67969V37.7672L13.4867 25.6461C14.8159 24.1508 15.8581 22.8669 16.6133 21.7945C17.3836 20.707 17.9273 19.7328 18.2445 18.8719C18.5617 17.9958 18.7203 17.1122 18.7203 16.2211C18.7203 15.043 18.4786 13.9932 17.9953 13.0719C17.5271 12.1354 16.8323 11.3953 15.9109 10.8516C14.9896 10.2927 13.8643 10.0133 12.5352 10.0133C11.0398 10.0133 9.77865 10.3154 8.75156 10.9195C7.72448 11.5237 6.94662 12.362 6.41797 13.4344C6.13331 14.0037 5.92529 14.619 5.79391 15.2803C5.59885 16.2621 4.81352 17.082 3.8125 17.082C2.81148 17.082 1.98215 16.2654 2.13839 15.2766C2.32044 14.1245 2.68213 13.0421 3.22344 12.0297C4.03906 10.4891 5.23229 9.26563 6.80313 8.35938C8.37396 7.45312 10.2846 7 12.5352 7C14.5742 7 16.3263 7.3625 17.7914 8.0875C19.2565 8.7974 20.3818 9.81693 21.1672 11.1461C21.9526 12.4602 22.3453 14.0159 22.3453 15.8133C22.3453 16.7951 22.1792 17.7844 21.8469 18.7813C21.5146 19.7781 21.0539 20.775 20.4648 21.7719C19.8758 22.7536 19.2036 23.7279 18.4484 24.6945C17.6932 25.6612 16.8927 26.6128 16.0469 27.5492L7.075 37.4273H22.402Z" fill="#7BD4CF"/>
<path d="M30.1762 24.5133L27.2989 23.743L28.9301 7.45313H44.0079C44.9401 7.45313 45.6958 8.20882 45.6958 9.14102C45.6958 10.0732 44.9401 10.8289 44.0079 10.8289H32.0114L30.9465 20.5938C31.5356 20.2313 32.3286 19.8839 33.3254 19.5516C34.3223 19.2042 35.4551 19.0305 36.7239 19.0305C38.2343 19.0305 39.5861 19.2872 40.7793 19.8008C41.9877 20.2992 43.0223 21.0242 43.8833 21.9758C44.7442 22.9273 45.4012 24.0753 45.8543 25.4195C46.3075 26.7638 46.534 28.2667 46.534 29.9281C46.534 31.5141 46.3226 32.9716 45.8997 34.3008C45.4918 35.63 44.865 36.793 44.0192 37.7898C43.1885 38.7716 42.1312 39.5344 40.8473 40.0781C39.5786 40.6219 38.0681 40.8938 36.3161 40.8938C35.002 40.8938 33.7559 40.7125 32.5778 40.35C31.3997 39.9724 30.3499 39.406 29.4286 38.6508C28.5072 37.8805 27.7596 36.9289 27.1856 35.7961C26.8624 35.1497 26.6062 34.441 26.4171 33.6701C26.1702 32.6633 26.9964 31.7633 28.033 31.7633C28.9104 31.7633 29.6314 32.4189 29.8775 33.2611C30.0804 33.9553 30.3536 34.5738 30.6973 35.1164C31.2713 36.0227 32.0265 36.7099 32.9629 37.1781C33.9145 37.6464 35.0322 37.8805 36.3161 37.8805C37.3885 37.8805 38.3249 37.6992 39.1254 37.3367C39.9411 36.9742 40.6283 36.4531 41.1872 35.7734C41.746 35.0938 42.1689 34.2706 42.4559 33.3039C42.7429 32.3221 42.8864 31.212 42.8864 29.9734C42.8864 28.8859 42.7353 27.8815 42.4333 26.9602C42.1312 26.0237 41.678 25.2081 41.0739 24.5133C40.4848 23.8185 39.7598 23.2823 38.8989 22.9047C38.0379 22.512 37.0486 22.3156 35.9309 22.3156C34.4658 22.3156 33.333 22.512 32.5325 22.9047C31.7471 23.2974 30.9616 23.8336 30.1762 24.5133Z" fill="#7BD4CF"/>
</svg>
