<svg width="48" height="48" viewBox="0 0 48 48" fill="none" xmlns="http://www.w3.org/2000/svg">
<path d="M45 23.7429C44.6575 19.8165 43.2213 16.0647 40.8543 12.9133C38.4872 9.76187 35.2842 7.3371 31.6087 5.91414C27.9332 4.49119 23.9324 4.12704 20.0604 4.86303C16.1884 5.59901 12.6002 7.40565 9.70312 10.0779C5.83548 13.631 3.44598 18.5091 3.00937 23.7429C2.97377 24.1571 3.02466 24.5742 3.15881 24.9678C3.29296 25.3613 3.50743 25.7226 3.78863 26.0289C4.06983 26.3351 4.41162 26.5795 4.7923 26.7467C5.17297 26.9138 5.58424 27 6 26.9998H22.5V37.4998C22.5 39.0911 23.1321 40.6172 24.2574 41.7424C25.3826 42.8676 26.9087 43.4998 28.5 43.4998C30.0913 43.4998 31.6174 42.8676 32.7426 41.7424C33.8679 40.6172 34.5 39.0911 34.5 37.4998C34.5 37.102 34.342 36.7204 34.0607 36.4391C33.7794 36.1578 33.3978 35.9998 33 35.9998C32.6022 35.9998 32.2206 36.1578 31.9393 36.4391C31.658 36.7204 31.5 37.102 31.5 37.4998C31.5 38.2954 31.1839 39.0585 30.6213 39.6211C30.0587 40.1837 29.2956 40.4998 28.5 40.4998C27.7043 40.4998 26.9413 40.1837 26.3787 39.6211C25.8161 39.0585 25.5 38.2954 25.5 37.4998V26.9998H42C42.4165 27.0013 42.8288 26.9161 43.2106 26.7495C43.5924 26.5829 43.9354 26.3387 44.2176 26.0323C44.4998 25.7259 44.7151 25.3642 44.8498 24.97C44.9845 24.5758 45.0357 24.1579 45 23.7429ZM6 23.9998C6.29563 20.6344 7.52821 17.4192 9.55798 14.7187C11.5878 12.0181 14.3335 9.94028 17.484 8.72068C20.6345 7.50109 24.0637 7.18855 27.3827 7.8185C30.7018 8.44845 33.778 9.99568 36.2625 12.2848C39.5827 15.3275 41.6318 19.5114 42 23.9998H6Z" fill="#7BD4CF"/>
</svg>
