<svg width="48" height="48" viewBox="0 0 48 48" fill="none" xmlns="http://www.w3.org/2000/svg">
<path d="M44 10V7C44 6.20435 43.6839 5.4413 43.1213 4.87869C42.5587 4.31608 41.7957 4 41 4H8C7.20435 4 6.44129 4.31608 5.87868 4.87869C5.31607 5.4413 5 6.20435 5 7V10C5 10.7956 5.31607 11.5587 5.87868 12.1213C6.44129 12.6839 7.20435 13 8 13V31H6.5C6.10218 31 5.72065 31.158 5.43934 31.4393C5.15804 31.7206 5 32.1022 5 32.5C5 32.8978 5.15804 33.2794 5.43934 33.5607C5.72065 33.842 6.10218 34 6.5 34H23V37.26C21.9992 37.6139 21.1557 38.3101 20.6186 39.2257C20.0814 40.1414 19.8853 41.2174 20.0648 42.2636C20.2443 43.3099 20.7879 44.259 21.5995 44.9432C22.4111 45.6274 23.4385 46.0027 24.5 46.0027C25.5615 46.0027 26.5889 45.6274 27.4005 44.9432C28.2121 44.259 28.7557 43.3099 28.9352 42.2636C29.1147 41.2174 28.9186 40.1414 28.3814 39.2257C27.8443 38.3101 27.0008 37.6139 26 37.26V34H42.5C42.8978 34 43.2794 33.842 43.5607 33.5607C43.842 33.2794 44 32.8978 44 32.5C44 32.1022 43.842 31.7206 43.5607 31.4393C43.2794 31.158 42.8978 31 42.5 31H41V13C41.7957 13 42.5587 12.6839 43.1213 12.1213C43.6839 11.5587 44 10.7956 44 10ZM24.5 43C24.2033 43 23.9133 42.912 23.6666 42.7472C23.42 42.5824 23.2277 42.3481 23.1142 42.074C23.0006 41.7999 22.9709 41.4983 23.0288 41.2074C23.0867 40.9164 23.2296 40.6491 23.4393 40.4393C23.6491 40.2296 23.9164 40.0867 24.2074 40.0288C24.4983 39.971 24.7999 40.0007 25.074 40.1142C25.3481 40.2277 25.5824 40.42 25.7472 40.6667C25.912 40.9133 26 41.2033 26 41.5C26 41.8978 25.842 42.2794 25.5607 42.5607C25.2794 42.842 24.8978 43 24.5 43ZM8 7H41V10H8V7ZM38 31H11V13H38V31Z" fill="#7BD4CF"/>
</svg>
