<svg width="49" height="48" viewBox="0 0 49 48" fill="none" xmlns="http://www.w3.org/2000/svg">
<path d="M42.3335 9.00038V18.0004C42.3335 18.3982 42.1755 18.7797 41.8942 19.061C41.6129 19.3423 41.2313 19.5004 40.8335 19.5004H31.8335C31.4357 19.5004 31.0541 19.3423 30.7728 19.061C30.4915 18.7797 30.3335 18.3982 30.3335 18.0004C30.3335 17.6026 30.4915 17.221 30.7728 16.9397C31.0541 16.6584 31.4357 16.5004 31.8335 16.5004H37.2129L34.4697 13.7573C31.6819 10.9568 27.8969 9.37679 23.9454 9.36413H23.861C19.9426 9.35495 16.178 10.8886 13.3816 13.6335C13.0952 13.9009 12.7154 14.0456 12.3236 14.0366C11.9319 14.0276 11.5592 13.8657 11.2853 13.5854C11.0114 13.3052 10.858 12.9288 10.858 12.5369C10.8581 12.1451 11.0114 11.7687 11.2854 11.4885C14.6745 8.17613 19.2332 6.33391 23.9721 6.36164C28.711 6.38937 33.2478 8.28481 36.5979 11.6366L39.3335 14.3798V9.00038C39.3335 8.60256 39.4915 8.22103 39.7728 7.93972C40.0541 7.65842 40.4357 7.50038 40.8335 7.50038C41.2313 7.50038 41.6129 7.65842 41.8942 7.93972C42.1755 8.22103 42.3335 8.60256 42.3335 9.00038ZM35.2854 34.3673C32.4613 37.1258 28.6636 38.6599 24.7159 38.6367C20.7682 38.6135 16.9887 37.035 14.1972 34.2435L11.4541 31.5004H16.8335C17.2313 31.5004 17.6129 31.3423 17.8942 31.061C18.1755 30.7797 18.3335 30.3982 18.3335 30.0004C18.3335 29.6026 18.1755 29.221 17.8942 28.9397C17.6129 28.6584 17.2313 28.5004 16.8335 28.5004H7.8335C7.43567 28.5004 7.05414 28.6584 6.77284 28.9397C6.49153 29.221 6.3335 29.6026 6.3335 30.0004V39.0004C6.3335 39.3982 6.49153 39.7797 6.77284 40.061C7.05414 40.3423 7.43567 40.5004 7.8335 40.5004C8.23132 40.5004 8.61285 40.3423 8.89416 40.061C9.17546 39.7797 9.3335 39.3982 9.3335 39.0004V33.621L12.0766 36.3641C15.422 39.7264 19.9655 41.6228 24.7085 41.6366H24.8079C29.5105 41.6487 34.0286 39.8077 37.3835 36.5123C37.6574 36.232 37.8108 35.8557 37.8108 35.4638C37.8108 35.0719 37.6575 34.6956 37.3836 34.4153C37.1097 34.1351 36.737 33.9731 36.3452 33.9641C35.9534 33.9552 35.5737 34.0998 35.2872 34.3673H35.2854Z" fill="#7BD4CF"/>
</svg>
