<svg width="48" height="48" viewBox="0 0 48 48" fill="none" xmlns="http://www.w3.org/2000/svg">
<path d="M41.9568 28.1427C42.0039 28.334 42.0128 28.5327 41.983 28.7275C41.9533 28.9223 41.8854 29.1093 41.7834 29.2778C41.6814 29.4464 41.5471 29.5932 41.3884 29.7098C41.2296 29.8265 41.0494 29.9107 40.8581 29.9577L36.2381 31.0827L37.4493 35.6033C37.5003 35.7937 37.5134 35.9922 37.4876 36.1876C37.4619 36.3829 37.398 36.5713 37.2994 36.742C37.2008 36.9126 37.0696 37.0622 36.9133 37.1821C36.7569 37.302 36.5784 37.3899 36.3881 37.4408C36.2618 37.4772 36.1313 37.4974 35.9999 37.5008C35.67 37.5005 35.3493 37.3914 35.0876 37.1904C34.8259 36.9894 34.6378 36.7077 34.5524 36.389L33.1049 30.989L25.4999 26.5996V35.3802L29.5612 39.4396C29.7005 39.5789 29.8111 39.7444 29.8865 39.9265C29.9619 40.1086 30.0008 40.3037 30.0008 40.5008C30.0008 40.6979 29.9619 40.8931 29.8865 41.0752C29.8111 41.2573 29.7005 41.4227 29.5612 41.5621C29.4218 41.7015 29.2564 41.812 29.0743 41.8874C28.8922 41.9628 28.697 42.0017 28.4999 42.0017C28.3028 42.0017 28.1077 41.9628 27.9256 41.8874C27.7435 41.812 27.578 41.7015 27.4387 41.5621L23.9999 38.1215L20.5612 41.5621C20.4218 41.7015 20.2564 41.812 20.0743 41.8874C19.8922 41.9628 19.697 42.0017 19.4999 42.0017C19.3028 42.0017 19.1077 41.9628 18.9256 41.8874C18.7435 41.812 18.578 41.7015 18.4387 41.5621C18.2993 41.4227 18.1888 41.2573 18.1133 41.0752C18.0379 40.8931 17.9991 40.6979 17.9991 40.5008C17.9991 40.3037 18.0379 40.1086 18.1133 39.9265C18.1888 39.7444 18.2993 39.5789 18.4387 39.4396L22.4999 35.3802V26.5996L14.8968 30.989L13.4493 36.389C13.3638 36.708 13.1755 36.9899 12.9134 37.191C12.6513 37.392 12.3302 37.5009 11.9999 37.5008C11.8683 37.5006 11.7372 37.4836 11.6099 37.4502C11.4196 37.3993 11.2411 37.3114 11.0847 37.1915C10.9284 37.0715 10.7971 36.922 10.6986 36.7513C10.6 36.5807 10.5361 36.3923 10.5103 36.1969C10.4846 36.0016 10.4976 35.803 10.5487 35.6127L11.7599 31.0921L7.13993 29.9671C6.75354 29.8721 6.42071 29.6275 6.21465 29.2871C6.0086 28.9468 5.9462 28.5385 6.04118 28.1521C6.13616 27.7657 6.38074 27.4329 6.72112 27.2268C7.0615 27.0208 7.46979 26.9584 7.85618 27.0533L13.3781 28.409L20.9999 24.0008L13.3799 19.6021L7.85805 20.9577C7.7409 20.9867 7.62062 21.0012 7.49993 21.0008C7.13316 21.0011 6.77901 20.867 6.50443 20.6238C6.22985 20.3806 6.05388 20.0453 6.00978 19.6812C5.96568 19.3171 6.05651 18.9494 6.2651 18.6478C6.47369 18.3461 6.78558 18.1313 7.1418 18.044L11.7618 16.919L10.5506 12.389C10.4476 12.0046 10.5016 11.595 10.7006 11.2504C10.8996 10.9058 11.2274 10.6544 11.6118 10.5515C11.9962 10.4485 12.4057 10.5025 12.7503 10.7015C13.0949 10.9005 13.3464 11.2283 13.4493 11.6127L14.8968 17.0127L22.4999 21.4021V12.6215L18.4387 8.56208C18.1572 8.28062 17.9991 7.89888 17.9991 7.50083C17.9991 7.30374 18.0379 7.10858 18.1133 6.92649C18.1888 6.7444 18.2993 6.57895 18.4387 6.43958C18.578 6.30022 18.7435 6.18967 18.9256 6.11424C19.1077 6.03882 19.3028 6 19.4999 6C19.898 6 20.2797 6.15812 20.5612 6.43958L23.9999 9.88021L27.4387 6.43958C27.7201 6.15812 28.1019 6 28.4999 6C28.898 6 29.2797 6.15812 29.5612 6.43958C29.8426 6.72105 30.0008 7.10279 30.0008 7.50083C30.0008 7.89888 29.8426 8.28062 29.5612 8.56208L25.4999 12.6215V21.4021L33.1031 17.0127L34.5506 11.6127C34.6535 11.2283 34.9049 10.9005 35.2495 10.7015C35.5941 10.5025 36.0037 10.4485 36.3881 10.5515C36.7725 10.6544 37.1002 10.9058 37.2992 11.2504C37.4983 11.595 37.5522 12.0046 37.4493 12.389L36.2381 16.9096L40.8581 18.0346C41.2242 18.1128 41.5479 18.3251 41.7655 18.6298C41.9831 18.9345 42.0788 19.3096 42.034 19.6813C41.9891 20.053 41.8068 20.3945 41.5229 20.6387C41.2391 20.8828 40.8742 21.012 40.4999 21.0008C40.3792 21.0012 40.259 20.9867 40.1418 20.9577L34.6199 19.6021L26.9999 24.0008L34.6199 28.3996L40.1418 27.044C40.3331 26.9969 40.5318 26.988 40.7266 27.0177C40.9214 27.0475 41.1084 27.1153 41.2769 27.2173C41.4455 27.3194 41.5923 27.4536 41.7089 27.6124C41.8256 27.7712 41.9098 27.9514 41.9568 28.1427Z" fill="#7BD4CF"/>
</svg>
