<svg width="48" height="48" viewBox="0 0 48 48" fill="none" xmlns="http://www.w3.org/2000/svg">
<path d="M43.1869 26.4488C42.6287 26.0193 41.979 25.7243 41.2883 25.5868C40.5976 25.4492 39.8845 25.4728 39.2044 25.6556L31.3594 27.4594C31.5419 26.6884 31.5475 25.886 31.3759 25.1125C31.2042 24.339 30.8597 23.6144 30.3681 22.993C29.8766 22.3716 29.2508 21.8695 28.5376 21.5243C27.8244 21.1792 27.0423 20.9999 26.25 21H16.8638C16.0755 20.998 15.2947 21.1523 14.5664 21.4538C13.8381 21.7554 13.1768 22.1983 12.6206 22.7569L8.37937 27H3C2.20435 27 1.44129 27.3161 0.87868 27.8787C0.316071 28.4413 0 29.2044 0 30L0 37.5C0 38.2957 0.316071 39.0587 0.87868 39.6213C1.44129 40.1839 2.20435 40.5 3 40.5H22.5C22.6226 40.5001 22.7448 40.4849 22.8638 40.455L34.8638 37.455C34.9402 37.4368 35.0149 37.4117 35.0869 37.38L42.375 34.2788L42.4575 34.2413C43.1579 33.8912 43.7578 33.3687 44.2004 32.7228C44.6431 32.0769 44.914 31.329 44.9878 30.5494C45.0615 29.7699 44.9355 28.9844 44.6218 28.267C44.308 27.5496 43.8168 26.9238 43.1944 26.4488H43.1869ZM3 30H7.5V37.5H3V30ZM41.1431 31.5394L34.0181 34.5731L22.3125 37.5H10.5V29.1206L14.7431 24.8794C15.0207 24.5996 15.3511 24.3778 15.7152 24.2268C16.0792 24.0758 16.4696 23.9987 16.8638 24H26.25C26.8467 24 27.419 24.2371 27.841 24.659C28.2629 25.081 28.5 25.6533 28.5 26.25C28.5 26.8467 28.2629 27.419 27.841 27.841C27.419 28.2629 26.8467 28.5 26.25 28.5H21C20.6022 28.5 20.2206 28.658 19.9393 28.9393C19.658 29.2206 19.5 29.6022 19.5 30C19.5 30.3978 19.658 30.7794 19.9393 31.0607C20.2206 31.342 20.6022 31.5 21 31.5H27C27.1129 31.4997 27.2254 31.4871 27.3356 31.4625L39.8981 28.5731L39.9563 28.5581C40.3397 28.4517 40.7491 28.4908 41.1054 28.668C41.4618 28.8451 41.7401 29.1479 41.8867 29.5179C42.0333 29.8879 42.0379 30.299 41.8996 30.6722C41.7613 31.0454 41.4898 31.3543 41.1375 31.5394H41.1431ZM30.75 18C31.1206 18.0004 31.4906 17.9703 31.8562 17.91C32.2675 19.1316 33.02 20.21 34.0247 21.0175C35.0295 21.8251 36.2444 22.328 37.5259 22.467C38.8074 22.6059 40.1019 22.375 41.2563 21.8015C42.4108 21.2281 43.3769 20.3361 44.0404 19.2309C44.704 18.1258 45.0372 16.8538 45.0007 15.5653C44.9643 14.2768 44.5596 13.0257 43.8346 11.9599C43.1096 10.8941 42.0946 10.0581 40.9096 9.55087C39.7246 9.04363 38.4191 8.88631 37.1475 9.0975C36.7515 7.92046 36.0384 6.87549 35.0868 6.07758C34.1352 5.27968 32.9819 4.75977 31.7538 4.57507C30.5257 4.39037 29.2705 4.54805 28.1263 5.03075C26.9821 5.51345 25.9932 6.30245 25.2685 7.31094C24.5437 8.31942 24.1113 9.50829 24.0187 10.7467C23.9261 11.9851 24.1769 13.2251 24.7436 14.3301C25.3103 15.4352 26.1709 16.3625 27.2306 17.0099C28.2903 17.6574 29.5081 18 30.75 18ZM42 15.75C42 16.4917 41.7801 17.2167 41.368 17.8334C40.956 18.4501 40.3703 18.9307 39.6851 19.2146C38.9998 19.4984 38.2458 19.5726 37.5184 19.4279C36.791 19.2833 36.1228 18.9261 35.5984 18.4017C35.0739 17.8772 34.7168 17.209 34.5721 16.4816C34.4274 15.7542 34.5016 15.0002 34.7855 14.3149C35.0693 13.6297 35.5499 13.044 36.1666 12.632C36.7833 12.2199 37.5083 12 38.25 12C39.2446 12 40.1984 12.3951 40.9016 13.0984C41.6049 13.8016 42 14.7554 42 15.75ZM30.75 7.5C31.5681 7.50041 32.3636 7.76833 33.0152 8.2629C33.6669 8.75747 34.1389 9.45157 34.3594 10.2394C33.5911 10.7799 32.9442 11.4749 32.4599 12.2798C31.9756 13.0847 31.6646 13.9818 31.5469 14.9138C31.285 14.9703 31.0179 14.9992 30.75 15C29.7554 15 28.8016 14.6049 28.0984 13.9017C27.3951 13.1984 27 12.2446 27 11.25C27 10.2554 27.3951 9.30161 28.0984 8.59835C28.8016 7.89509 29.7554 7.5 30.75 7.5Z" fill="#7BD4CF"/>
</svg>
