<svg width="48" height="48" viewBox="0 0 48 48" fill="none" xmlns="http://www.w3.org/2000/svg">
<path d="M32.5856 9.65297C30.2539 7.19577 27.63 5.03342 24.7725 3.21421C24.5392 3.07405 24.2722 3 24 3C23.7278 3 23.4608 3.07405 23.2275 3.21421C20.37 5.03342 17.7461 7.19577 15.4144 9.65297C10.2356 15.0905 7.5 21.0886 7.5 27.0005C7.5 31.3765 9.23839 35.5734 12.3327 38.6677C15.4271 41.7621 19.6239 43.5005 24 43.5005C28.3761 43.5005 32.5729 41.7621 35.6673 38.6677C38.7616 35.5734 40.5 31.3765 40.5 27.0005C40.5 21.0886 37.7644 15.0905 32.5856 9.65297ZM18 34.5005C18 29.3123 22.2244 25.6355 24 24.3192C25.7775 25.6317 30 29.3123 30 34.5005C30 36.0918 29.3679 37.6179 28.2426 38.7431C27.1174 39.8683 25.5913 40.5005 24 40.5005C22.4087 40.5005 20.8826 39.8683 19.7574 38.7431C18.6321 37.6179 18 36.0918 18 34.5005ZM32.4881 37.4873C32.8271 36.528 33.0002 35.5179 33 34.5005C33 26.2505 25.1081 21.4148 24.7725 21.2142C24.5392 21.0741 24.2722 21 24 21C23.7278 21 23.4608 21.0741 23.2275 21.2142C22.8919 21.4148 15 26.2505 15 34.5005C14.9998 35.5179 15.1729 36.528 15.5119 37.4873C13.947 36.2241 12.6846 34.6265 11.8174 32.8119C10.9501 30.9973 10.5 29.0117 10.5 27.0005C10.5 20.5486 14.325 15.1598 17.535 11.7773C19.4922 9.72698 21.6591 7.88754 24 6.28922C26.3413 7.88706 28.5082 9.72653 30.465 11.7773C36.2794 17.9067 37.5 23.438 37.5 27.0005C37.5 29.0117 37.0499 30.9973 36.1826 32.8119C35.3154 34.6265 34.053 36.2241 32.4881 37.4873Z" fill="#7BD4CF"/>
</svg>
