<svg width="48" height="48" viewBox="0 0 48 48" fill="none" xmlns="http://www.w3.org/2000/svg">
<path d="M40.0612 15.4388L29.5613 4.93875C29.4218 4.7995 29.2564 4.68908 29.0743 4.6138C28.8922 4.53851 28.697 4.49985 28.5 4.5H10.5C9.70435 4.5 8.94129 4.81607 8.37868 5.37868C7.81607 5.94129 7.5 6.70435 7.5 7.5V40.5C7.5 41.2957 7.81607 42.0587 8.37868 42.6213C8.94129 43.1839 9.70435 43.5 10.5 43.5H37.5C38.2956 43.5 39.0587 43.1839 39.6213 42.6213C40.1839 42.0587 40.5 41.2957 40.5 40.5V16.5C40.5002 16.303 40.4615 16.1078 40.3862 15.9257C40.3109 15.7436 40.2005 15.5782 40.0612 15.4388ZM30 9.62063L35.3794 15H30V9.62063ZM37.5 40.5H10.5V7.5H27V16.5C27 16.8978 27.158 17.2794 27.4393 17.5607C27.7206 17.842 28.1022 18 28.5 18H37.5V40.5Z" fill="#7BD4CF"/>
</svg>
