<svg width="49" height="48" viewBox="0 0 49 48" fill="none" xmlns="http://www.w3.org/2000/svg">
<path d="M24.6668 4.5C20.81 4.5 17.0399 5.64366 13.8331 7.78634C10.6264 9.92903 8.12701 12.9745 6.65111 16.5377C5.1752 20.1008 4.78903 24.0216 5.54144 27.8043C6.29386 31.5869 8.15105 35.0615 10.8782 37.7886C13.6053 40.5157 17.0799 42.3729 20.8625 43.1253C24.6451 43.8777 28.5659 43.4916 32.1291 42.0156C35.6922 40.5397 38.7377 38.0404 40.8804 34.8336C43.0231 31.6269 44.1668 27.8567 44.1668 24C44.1608 18.8301 42.1044 13.8737 38.4488 10.218C34.7931 6.56233 29.8367 4.50595 24.6668 4.5ZM41.0955 22.5H33.6274C33.2918 15.6544 30.6555 10.8131 28.4936 7.95C31.8504 8.75609 34.8707 10.5926 37.131 13.2019C39.3913 15.8112 40.7783 19.0626 41.0974 22.5H41.0955ZM18.7099 25.5H30.6236C30.1905 33.3019 26.4555 38.0831 24.6668 39.9375C22.8761 38.0812 19.143 33.3 18.7099 25.5ZM18.7099 22.5C19.143 14.6981 22.878 9.91687 24.6668 8.0625C26.4574 9.92438 30.1905 14.7056 30.6236 22.5H18.7099ZM20.8399 7.95C18.678 10.8131 16.0418 15.6544 15.7061 22.5H8.23613C8.55525 19.0626 9.9422 15.8112 12.2025 13.2019C14.4628 10.5926 17.4831 8.75609 20.8399 7.95ZM8.23613 25.5H15.7061C16.0474 32.3456 18.678 37.1869 20.8399 40.05C17.4831 39.2439 14.4628 37.4074 12.2025 34.7981C9.9422 32.1888 8.55525 28.9374 8.23613 25.5ZM28.4861 40.05C30.648 37.1869 33.2786 32.3456 33.6199 25.5H41.0899C40.7712 28.9364 39.3854 32.187 37.1265 34.7963C34.8677 37.4055 31.849 39.2426 28.4936 40.05H28.4861Z" fill="#7BD4CF"/>
</svg>
