<svg width="48" height="48" viewBox="0 0 48 48" fill="none" xmlns="http://www.w3.org/2000/svg">
<path d="M47.6817 20.2336L42.8967 10.6599C42.7204 10.3075 42.4764 9.99332 42.1787 9.73524C41.881 9.47715 41.5354 9.28025 41.1615 9.15575C40.7877 9.03126 40.393 8.98163 40 9.00968C39.607 9.03774 39.2234 9.14294 38.871 9.31927L34.2079 11.6499L24.3848 9.05115C24.1327 8.98556 23.8681 8.98556 23.616 9.05115L13.7929 11.6499L9.12978 9.31927C8.77743 9.14294 8.3938 9.03774 8.0008 9.00968C7.60779 8.98163 7.21311 9.03126 6.83928 9.15575C6.46546 9.28025 6.11982 9.47715 5.82211 9.73524C5.52439 9.99332 5.28043 10.3075 5.10416 10.6599L0.319156 20.2318C0.142824 20.5841 0.0376255 20.9677 0.00956894 21.3608C-0.0184877 21.7538 0.031147 22.1484 0.155638 22.5223C0.28013 22.8961 0.477039 23.2417 0.735122 23.5394C0.993205 23.8372 1.30741 24.0811 1.65978 24.2574L6.72228 26.7905L17.1267 34.2211C17.28 34.3302 17.4523 34.4097 17.6348 34.4555L29.6348 37.4555C29.8861 37.5185 30.1494 37.5154 30.3992 37.4464C30.6489 37.3774 30.8765 37.2449 31.0598 37.0618L41.3854 26.7343L46.3392 24.2574C47.0503 23.9014 47.591 23.2776 47.8424 22.523C48.0938 21.7685 48.0353 20.9451 47.6798 20.2336H47.6817ZM37.3898 26.4905L30.9379 21.323C30.6489 21.0915 30.2844 20.9752 29.9147 20.9963C29.545 21.0174 29.1962 21.1745 28.9354 21.4374C25.596 24.8011 21.8742 24.3755 19.5004 22.8755L27.6079 15.0005H33.5723L38.6742 25.2024L37.3898 26.4905ZM7.78728 12.0005L11.6254 13.9168L6.83103 23.4886L3.00041 21.5743L7.78728 12.0005ZM29.5373 34.3374L18.6417 31.6149L9.41666 25.0261L14.6667 14.5261L24.0004 12.053L25.8379 12.5386L17.4004 20.7286L17.3854 20.7455C17.0678 21.0631 16.8256 21.448 16.6766 21.8718C16.5276 22.2955 16.4756 22.7473 16.5246 23.1938C16.5735 23.6403 16.7221 24.0701 16.9594 24.4515C17.1966 24.8329 17.5165 25.1561 17.8954 25.3974C21.7504 27.8593 26.4023 27.4599 30.066 24.4599L35.2504 28.6243L29.5373 34.3374ZM41.1623 23.4868L36.3773 13.9243L40.2135 12.0005L45.0004 21.5743L41.1623 23.4868ZM24.7092 40.8624C24.6281 41.1866 24.4411 41.4744 24.1779 41.6803C23.9147 41.8861 23.5902 41.9982 23.256 41.9986C23.1328 41.9985 23.01 41.9834 22.8904 41.9536L15.0773 39.9999C14.8945 39.9548 14.7221 39.8753 14.5692 39.7655L9.62853 36.2368C9.32475 35.9983 9.12467 35.6517 9.06998 35.2694C9.01528 34.8871 9.11017 34.4984 9.33489 34.1842C9.55962 33.8701 9.89685 33.6548 10.2764 33.5831C10.6559 33.5113 11.0484 33.5888 11.3723 33.7993L16.0804 37.163L23.6254 39.0455C24.0113 39.142 24.343 39.3879 24.5476 39.7289C24.7523 40.07 24.8131 40.4784 24.7167 40.8643L24.7092 40.8624Z" fill="#7BD4CF"/>
</svg>
