<svg width="48" height="48" viewBox="0 0 48 48" fill="none" xmlns="http://www.w3.org/2000/svg">
<path d="M27.0008 19.5008V12.0008C27.0008 11.603 27.1589 11.2215 27.4402 10.9402C27.7215 10.6589 28.103 10.5008 28.5008 10.5008C28.8987 10.5008 29.2802 10.6589 29.5615 10.9402C29.8428 11.2215 30.0008 11.603 30.0008 12.0008V15.8802L37.9396 7.93958C38.221 7.65812 38.6028 7.5 39.0008 7.5C39.3989 7.5 39.7806 7.65812 40.0621 7.93958C40.3435 8.22105 40.5017 8.60279 40.5017 9.00083C40.5017 9.39888 40.3435 9.78062 40.0621 10.0621L32.1215 18.0008H36.0008C36.3987 18.0008 36.7802 18.1589 37.0615 18.4402C37.3428 18.7215 37.5008 19.103 37.5008 19.5008C37.5008 19.8987 37.3428 20.2802 37.0615 20.5615C36.7802 20.8428 36.3987 21.0008 36.0008 21.0008H28.5008C28.103 21.0008 27.7215 20.8428 27.4402 20.5615C27.1589 20.2802 27.0008 19.8987 27.0008 19.5008ZM19.5008 27.0008H12.0008C11.603 27.0008 11.2215 27.1589 10.9402 27.4402C10.6589 27.7215 10.5008 28.103 10.5008 28.5008C10.5008 28.8987 10.6589 29.2802 10.9402 29.5615C11.2215 29.8428 11.603 30.0008 12.0008 30.0008H15.8802L7.93958 37.9396C7.65812 38.221 7.5 38.6028 7.5 39.0008C7.5 39.3989 7.65812 39.7806 7.93958 40.0621C8.22105 40.3435 8.60279 40.5017 9.00083 40.5017C9.39888 40.5017 9.78062 40.3435 10.0621 40.0621L18.0008 32.1215V36.0008C18.0008 36.3987 18.1589 36.7802 18.4402 37.0615C18.7215 37.3428 19.103 37.5008 19.5008 37.5008C19.8987 37.5008 20.2802 37.3428 20.5615 37.0615C20.8428 36.7802 21.0008 36.3987 21.0008 36.0008V28.5008C21.0008 28.103 20.8428 27.7215 20.5615 27.4402C20.2802 27.1589 19.8987 27.0008 19.5008 27.0008ZM32.1215 30.0008H36.0008C36.3987 30.0008 36.7802 29.8428 37.0615 29.5615C37.3428 29.2802 37.5008 28.8987 37.5008 28.5008C37.5008 28.103 37.3428 27.7215 37.0615 27.4402C36.7802 27.1589 36.3987 27.0008 36.0008 27.0008H28.5008C28.103 27.0008 27.7215 27.1589 27.4402 27.4402C27.1589 27.7215 27.0008 28.103 27.0008 28.5008V36.0008C27.0008 36.3987 27.1589 36.7802 27.4402 37.0615C27.7215 37.3428 28.103 37.5008 28.5008 37.5008C28.8987 37.5008 29.2802 37.3428 29.5615 37.0615C29.8428 36.7802 30.0008 36.3987 30.0008 36.0008V32.1215L37.9396 40.0621C38.079 40.2015 38.2444 40.312 38.4265 40.3874C38.6086 40.4628 38.8037 40.5017 39.0008 40.5017C39.1979 40.5017 39.3931 40.4628 39.5752 40.3874C39.7573 40.312 39.9227 40.2015 40.0621 40.0621C40.2015 39.9227 40.312 39.7573 40.3874 39.5752C40.4628 39.3931 40.5017 39.1979 40.5017 39.0008C40.5017 38.8037 40.4628 38.6086 40.3874 38.4265C40.312 38.2444 40.2015 38.079 40.0621 37.9396L32.1215 30.0008ZM19.5008 10.5008C19.103 10.5008 18.7215 10.6589 18.4402 10.9402C18.1589 11.2215 18.0008 11.603 18.0008 12.0008V15.8802L10.0621 7.93958C9.78062 7.65812 9.39888 7.5 9.00083 7.5C8.60279 7.5 8.22105 7.65812 7.93958 7.93958C7.65812 8.22105 7.5 8.60279 7.5 9.00083C7.5 9.39888 7.65812 9.78062 7.93958 10.0621L15.8802 18.0008H12.0008C11.603 18.0008 11.2215 18.1589 10.9402 18.4402C10.6589 18.7215 10.5008 19.103 10.5008 19.5008C10.5008 19.8987 10.6589 20.2802 10.9402 20.5615C11.2215 20.8428 11.603 21.0008 12.0008 21.0008H19.5008C19.8987 21.0008 20.2802 20.8428 20.5615 20.5615C20.8428 20.2802 21.0008 19.8987 21.0008 19.5008V12.0008C21.0008 11.603 20.8428 11.2215 20.5615 10.9402C20.2802 10.6589 19.8987 10.5008 19.5008 10.5008Z" fill="#7BD4CF"/>
</svg>
