<svg width="48" height="48" viewBox="0 0 48 48" fill="none" xmlns="http://www.w3.org/2000/svg">
<path d="M42 9H6C5.20435 9 4.44129 9.31607 3.87868 9.87868C3.31607 10.4413 3 11.2044 3 12V16.5C3 17.2956 3.31607 18.0587 3.87868 18.6213C4.44129 19.1839 5.20435 19.5 6 19.5V36C6 36.7956 6.31607 37.5587 6.87868 38.1213C7.44129 38.6839 8.20435 39 9 39H39C39.7957 39 40.5587 38.6839 41.1213 38.1213C41.6839 37.5587 42 36.7956 42 36V19.5C42.7957 19.5 43.5587 19.1839 44.1213 18.6213C44.6839 18.0587 45 17.2956 45 16.5V12C45 11.2044 44.6839 10.4413 44.1213 9.87868C43.5587 9.31607 42.7957 9 42 9ZM39 36H9V19.5H39V36ZM42 16.5H6V12H42V16.5ZM18 25.5C18 25.1022 18.158 24.7206 18.4393 24.4393C18.7206 24.158 19.1022 24 19.5 24H28.5C28.8978 24 29.2794 24.158 29.5607 24.4393C29.842 24.7206 30 25.1022 30 25.5C30 25.8978 29.842 26.2794 29.5607 26.5607C29.2794 26.842 28.8978 27 28.5 27H19.5C19.1022 27 18.7206 26.842 18.4393 26.5607C18.158 26.2794 18 25.8978 18 25.5Z" fill="#7BD4CF"/>
</svg>
