<svg width="48" height="48" viewBox="0 0 48 48" fill="none" xmlns="http://www.w3.org/2000/svg">
<path d="M46.4309 8.97998C46.4095 8.61301 46.2541 8.26669 45.9941 8.00677C45.7342 7.74684 45.3879 7.59141 45.0209 7.56998C35.3159 7.00748 27.5234 9.95873 24.1747 15.4862C21.9622 19.1406 21.9659 23.5787 24.1447 27.8125C22.9045 29.2888 21.9982 31.0157 21.4878 32.875L18.4372 29.8131C19.9034 26.7512 19.8472 23.56 18.2497 20.9087C15.7747 16.8231 10.0616 14.6331 2.96842 15.0494C2.60146 15.0708 2.25514 15.2262 1.99521 15.4861C1.73529 15.7461 1.57986 16.0924 1.55842 16.4594C1.1403 23.5525 3.33218 29.2656 7.4178 31.7406C8.76605 32.5643 10.3153 33.0003 11.8953 33.0006C13.4289 32.9817 14.9386 32.6184 16.3128 31.9375L21.0003 36.625V42.0006C21.0003 42.3984 21.1583 42.78 21.4396 43.0613C21.7209 43.3426 22.1025 43.5006 22.5003 43.5006C22.8981 43.5006 23.2797 43.3426 23.561 43.0613C23.8423 42.78 24.0003 42.3984 24.0003 42.0006V36.4712C23.9936 34.0849 24.8057 31.7685 26.3009 29.9087C28.2302 30.917 30.3699 31.4566 32.5466 31.4837C34.651 31.4905 36.7164 30.9156 38.5147 29.8225C44.0422 26.4775 47.0009 18.685 46.4309 8.97998ZM8.96468 29.1756C6.08843 27.4337 4.46093 23.3106 4.5003 18.0006C9.8103 17.9556 13.9334 19.5887 15.6753 22.465C16.5847 23.965 16.7328 25.7144 16.1365 27.5162L11.5597 22.9394C11.2761 22.6699 10.8985 22.5219 10.5073 22.5269C10.1162 22.532 9.74246 22.6896 9.46586 22.9662C9.18926 23.2428 9.03165 23.6165 9.02664 24.0076C9.02163 24.3988 9.16962 24.7764 9.43905 25.06L14.0159 29.6369C12.2141 30.2331 10.4666 30.085 8.96468 29.1756ZM36.9603 27.2594C34.4478 28.78 31.4947 28.8962 28.4947 27.6344L38.5616 17.5656C38.831 17.282 38.979 16.9044 38.974 16.5132C38.969 16.1221 38.8113 15.7484 38.5347 15.4718C38.2581 15.1952 37.8844 15.0376 37.4933 15.0326C37.1021 15.0276 36.7245 15.1755 36.4409 15.445L26.3722 25.5006C25.1047 22.5006 25.219 19.5456 26.7472 17.035C29.3609 12.7225 35.5597 10.3187 43.4966 10.5044C43.6766 18.4394 41.2766 24.6456 36.9603 27.2594Z" fill="#7BD4CF"/>
</svg>
