<svg width="48" height="48" viewBox="0 0 48 48" fill="none" xmlns="http://www.w3.org/2000/svg">
<path d="M45.8913 21.9375L43.2663 15.375C43.0436 14.8198 42.6593 14.3442 42.1632 14.0099C41.667 13.6756 41.082 13.4979 40.4838 13.5H34V12C34 11.6022 33.842 11.2206 33.5607 10.9393C33.2794 10.658 32.8978 10.5 32.5 10.5H4C3.20435 10.5 2.44129 10.8161 1.87868 11.3787C1.31607 11.9413 1 12.7044 1 13.5V34.5C1 35.2956 1.31607 36.0587 1.87868 36.6213C2.44129 37.1839 3.20435 37.5 4 37.5H7.1875C7.51795 38.7906 8.26855 39.9346 9.32097 40.7515C10.3734 41.5684 11.6677 42.0118 13 42.0118C14.3323 42.0118 15.6266 41.5684 16.679 40.7515C17.7315 39.9346 18.482 38.7906 18.8125 37.5H28.1875C28.518 38.7906 29.2686 39.9346 30.321 40.7515C31.3734 41.5684 32.6677 42.0118 34 42.0118C35.3323 42.0118 36.6266 41.5684 37.679 40.7515C38.7315 39.9346 39.4821 38.7906 39.8125 37.5H43C43.7957 37.5 44.5587 37.1839 45.1213 36.6213C45.6839 36.0587 46 35.2956 46 34.5V22.5C46.0005 22.3072 45.9636 22.1162 45.8913 21.9375ZM34 16.5H40.4838L42.2838 21H34V16.5ZM4 13.5H31V25.5H4V13.5ZM13 39C12.4067 39 11.8266 38.8241 11.3333 38.4944C10.8399 38.1648 10.4554 37.6962 10.2284 37.1481C10.0013 36.5999 9.94189 35.9967 10.0576 35.4147C10.1734 34.8328 10.4591 34.2982 10.8787 33.8787C11.2982 33.4591 11.8328 33.1734 12.4147 33.0576C12.9967 32.9419 13.5999 33.0013 14.1481 33.2284C14.6962 33.4554 15.1648 33.8399 15.4944 34.3333C15.8241 34.8266 16 35.4067 16 36C16 36.7956 15.6839 37.5587 15.1213 38.1213C14.5587 38.6839 13.7957 39 13 39ZM28.1875 34.5H18.8125C18.482 33.2094 17.7315 32.0654 16.679 31.2485C15.6266 30.4316 14.3323 29.9882 13 29.9882C11.6677 29.9882 10.3734 30.4316 9.32097 31.2485C8.26855 32.0654 7.51795 33.2094 7.1875 34.5H4V28.5H31V30.8081C30.3103 31.2068 29.7065 31.7384 29.2237 32.3722C28.7409 33.0059 28.3887 33.7291 28.1875 34.5ZM34 39C33.4067 39 32.8266 38.8241 32.3333 38.4944C31.8399 38.1648 31.4554 37.6962 31.2284 37.1481C31.0013 36.5999 30.9419 35.9967 31.0576 35.4147C31.1734 34.8328 31.4591 34.2982 31.8787 33.8787C32.2982 33.4591 32.8328 33.1734 33.4147 33.0576C33.9967 32.9419 34.5999 33.0013 35.1481 33.2284C35.6962 33.4554 36.1648 33.8399 36.4944 34.3333C36.8241 34.8266 37 35.4067 37 36C37 36.7956 36.6839 37.5587 36.1213 38.1213C35.5587 38.6839 34.7957 39 34 39ZM43 34.5H39.8125C39.4781 33.2125 38.7261 32.0723 37.6742 31.258C36.6224 30.4437 35.3302 30.0013 34 30V24H43V34.5Z" fill="#7BD4CF"/>
</svg>
