<svg width="48" height="48" viewBox="0 0 48 48" fill="none" xmlns="http://www.w3.org/2000/svg">
<path d="M42 24.0008C42 24.3987 41.8419 24.7802 41.5606 25.0615C41.2793 25.3428 40.8978 25.5008 40.5 25.5008H24C23.6022 25.5008 23.2206 25.3428 22.9393 25.0615C22.658 24.7802 22.5 24.3987 22.5 24.0008C22.5 23.603 22.658 23.2215 22.9393 22.9402C23.2206 22.6589 23.6022 22.5008 24 22.5008H40.5C40.8978 22.5008 41.2793 22.6589 41.5606 22.9402C41.8419 23.2215 42 23.603 42 24.0008ZM24 13.5008H40.5C40.8978 13.5008 41.2793 13.3428 41.5606 13.0615C41.8419 12.7802 42 12.3987 42 12.0008C42 11.603 41.8419 11.2215 41.5606 10.9402C41.2793 10.6589 40.8978 10.5008 40.5 10.5008H24C23.6022 10.5008 23.2206 10.6589 22.9393 10.9402C22.658 11.2215 22.5 11.603 22.5 12.0008C22.5 12.3987 22.658 12.7802 22.9393 13.0615C23.2206 13.3428 23.6022 13.5008 24 13.5008ZM40.5 34.5008H24C23.6022 34.5008 23.2206 34.6589 22.9393 34.9402C22.658 35.2215 22.5 35.603 22.5 36.0008C22.5 36.3987 22.658 36.7802 22.9393 37.0615C23.2206 37.3428 23.6022 37.5008 24 37.5008H40.5C40.8978 37.5008 41.2793 37.3428 41.5606 37.0615C41.8419 36.7802 42 36.3987 42 36.0008C42 35.603 41.8419 35.2215 41.5606 34.9402C41.2793 34.6589 40.8978 34.5008 40.5 34.5008ZM15.4387 7.93958L10.5 12.8802L8.56123 10.9396C8.27977 10.6581 7.89803 10.5 7.49998 10.5C7.10193 10.5 6.72019 10.6581 6.43873 10.9396C6.15727 11.221 5.99915 11.6028 5.99915 12.0008C5.99915 12.3989 6.15727 12.7806 6.43873 13.0621L9.43873 16.0621C9.57804 16.2015 9.74347 16.3122 9.92557 16.3877C10.1077 16.4632 10.3029 16.502 10.5 16.502C10.6971 16.502 10.8923 16.4632 11.0744 16.3877C11.2565 16.3122 11.4219 16.2015 11.5612 16.0621L17.5612 10.0621C17.8427 9.78062 18.0008 9.39888 18.0008 9.00083C18.0008 8.60279 17.8427 8.22105 17.5612 7.93958C17.2798 7.65812 16.898 7.5 16.5 7.5C16.1019 7.5 15.7202 7.65812 15.4387 7.93958ZM15.4387 19.9396L10.5 24.8802L8.56123 22.9396C8.27977 22.6581 7.89803 22.5 7.49998 22.5C7.10193 22.5 6.72019 22.6581 6.43873 22.9396C6.15727 23.221 5.99915 23.6028 5.99915 24.0008C5.99915 24.1979 6.03797 24.3931 6.11339 24.5752C6.18881 24.7573 6.29936 24.9227 6.43873 25.0621L9.43873 28.0621C9.57804 28.2015 9.74347 28.3122 9.92557 28.3877C10.1077 28.4632 10.3029 28.502 10.5 28.502C10.6971 28.502 10.8923 28.4632 11.0744 28.3877C11.2565 28.3122 11.4219 28.2015 11.5612 28.0621L17.5612 22.0621C17.8427 21.7806 18.0008 21.3989 18.0008 21.0008C18.0008 20.6028 17.8427 20.221 17.5612 19.9396C17.2798 19.6581 16.898 19.5 16.5 19.5C16.1019 19.5 15.7202 19.6581 15.4387 19.9396ZM15.4387 31.9396L10.5 36.8802L8.56123 34.9396C8.42186 34.8002 8.25641 34.6897 8.07432 34.6142C7.89223 34.5388 7.69707 34.5 7.49998 34.5C7.30289 34.5 7.10772 34.5388 6.92563 34.6142C6.74355 34.6897 6.57809 34.8002 6.43873 34.9396C6.29936 35.079 6.18881 35.2444 6.11339 35.4265C6.03797 35.6086 5.99915 35.8037 5.99915 36.0008C5.99915 36.1979 6.03797 36.3931 6.11339 36.5752C6.18881 36.7573 6.29936 36.9227 6.43873 37.0621L9.43873 40.0621C9.57804 40.2015 9.74347 40.3122 9.92557 40.3877C10.1077 40.4632 10.3029 40.502 10.5 40.502C10.6971 40.502 10.8923 40.4632 11.0744 40.3877C11.2565 40.3122 11.4219 40.2015 11.5612 40.0621L17.5612 34.0621C17.8427 33.7806 18.0008 33.3989 18.0008 33.0008C18.0008 32.6028 17.8427 32.221 17.5612 31.9396C17.2798 31.6581 16.898 31.5 16.5 31.5C16.1019 31.5 15.7202 31.6581 15.4387 31.9396Z" fill="#7BD4CF"/>
</svg>
