<svg width="24" height="24" viewBox="0 0 24 24" fill="none" xmlns="http://www.w3.org/2000/svg">
<path d="M20.9676 6.2017L12.7176 1.68764C12.4971 1.56584 12.2494 1.50195 11.9976 1.50195C11.7457 1.50195 11.498 1.56584 11.2776 1.68764L3.02756 6.20358C2.79195 6.33249 2.59528 6.52229 2.45808 6.75316C2.32087 6.98404 2.24817 7.24751 2.24756 7.51608V16.4823C2.24817 16.7509 2.32087 17.0144 2.45808 17.2452C2.59528 17.4761 2.79195 17.6659 3.02756 17.7948L11.2776 22.3108C11.498 22.4326 11.7457 22.4965 11.9976 22.4965C12.2494 22.4965 12.4971 22.4326 12.7176 22.3108L20.9676 17.7948C21.2032 17.6659 21.3998 17.4761 21.537 17.2452C21.6742 17.0144 21.7469 16.7509 21.7476 16.4823V7.51701C21.7475 7.24797 21.675 6.98391 21.5378 6.7525C21.4005 6.52108 21.2036 6.33084 20.9676 6.2017ZM11.9976 3.00014L19.5294 7.12514L11.9976 11.2501L4.46568 7.12514L11.9976 3.00014ZM3.74756 8.43764L11.2476 12.542V20.5848L3.74756 16.4833V8.43764ZM12.7476 20.5848V12.5458L20.2476 8.43764V16.4795L12.7476 20.5848Z" fill="#7BD4CF"/>
</svg>
