<svg width="48" height="48" viewBox="0 0 48 48" fill="none" xmlns="http://www.w3.org/2000/svg">
<path d="M36.7725 23.9997C41.3943 17.5103 43.7512 10.8035 40.4737 7.52597C37.1962 4.24847 30.4893 6.60535 24 11.2272C17.5106 6.60535 10.8037 4.24847 7.52622 7.52597C4.24872 10.8035 6.60559 17.5103 11.2275 23.9997C6.60559 30.4891 4.24872 37.196 7.52622 40.4735C8.58184 41.5291 9.99184 41.9997 11.6343 41.9997C15.0993 41.9997 19.5993 39.9053 24.0093 36.7722C28.4006 39.9053 32.9006 41.9997 36.375 41.9997C38.0175 41.9997 39.4293 41.5272 40.4831 40.4735C43.7512 37.196 41.3943 30.4891 36.7725 23.9997ZM38.3531 9.6466C39.7856 11.0791 38.8181 15.7216 34.8806 21.5116C33.6349 19.9696 32.3087 18.4944 30.9075 17.0922C29.5052 15.6929 28.03 14.3686 26.4881 13.1247C32.2781 9.18722 36.9206 8.21222 38.3531 9.6466ZM33.0543 23.9997C31.7275 25.6782 30.3026 27.2766 28.7868 28.7866C27.2768 30.3023 25.6784 31.7273 24 33.0541C22.3215 31.7273 20.7231 30.3023 19.2131 28.7866C17.6974 27.2766 16.2724 25.6782 14.9456 23.9997C17.6075 20.6453 20.6455 17.6073 24 14.9453C25.6784 16.2721 27.2768 17.6971 28.7868 19.2128C30.3026 20.7229 31.7275 22.3213 33.0543 23.9997ZM9.64684 9.6466C10.0593 9.23222 10.74 9.01847 11.6381 9.01847C13.8543 9.01847 17.3925 10.3122 21.51 13.1247C19.9695 14.3696 18.495 15.6939 17.0925 17.0922C15.6932 18.4945 14.3688 19.9697 13.125 21.5116C9.18747 15.7216 8.21434 11.0791 9.64684 9.6466ZM9.64684 38.3528C8.21434 36.9203 9.18747 32.2778 13.125 26.4878C14.3706 28.0299 15.6969 29.5051 17.0981 30.9072C18.4995 32.3054 19.9727 33.6297 21.5118 34.8747C15.7218 38.8122 11.0793 39.7872 9.64684 38.3528ZM38.3531 38.3528C36.9206 39.7872 32.2781 38.8178 26.4881 34.8803C28.0293 33.6337 29.5044 32.3075 30.9075 30.9072C32.3068 29.5049 33.6311 28.0297 34.875 26.4878C38.8125 32.2778 39.7856 36.9203 38.3531 38.3528ZM26.25 23.9997C26.25 24.4447 26.118 24.8797 25.8708 25.2498C25.6235 25.6198 25.2721 25.9082 24.861 26.0784C24.4499 26.2487 23.9975 26.2933 23.561 26.2065C23.1246 26.1197 22.7236 25.9054 22.409 25.5907C22.0943 25.276 21.88 24.8751 21.7932 24.4387C21.7064 24.0022 21.7509 23.5498 21.9212 23.1387C22.0915 22.7276 22.3799 22.3761 22.7499 22.1289C23.1199 21.8817 23.555 21.7497 24 21.7497C24.5967 21.7497 25.169 21.9868 25.591 22.4087C26.0129 22.8307 26.25 23.403 26.25 23.9997Z" fill="#7BD4CF"/>
</svg>
