<svg width="48" height="48" viewBox="0 0 48 48" fill="none" xmlns="http://www.w3.org/2000/svg">
<path d="M44.9999 10.5V22.5C44.9999 22.8978 44.8418 23.2794 44.5605 23.5607C44.2792 23.842 43.8977 24 43.4999 24C43.102 24 42.7205 23.842 42.4392 23.5607C42.1579 23.2794 41.9999 22.8978 41.9999 22.5V14.1206L26.5611 29.5613C26.4218 29.7007 26.2564 29.8114 26.0743 29.8868C25.8922 29.9623 25.697 30.0012 25.4999 30.0012C25.3027 30.0012 25.1075 29.9623 24.9254 29.8868C24.7433 29.8114 24.5779 29.7007 24.4386 29.5613L17.9999 23.1206L5.56111 35.5613C5.27965 35.8427 4.8979 36.0008 4.49986 36.0008C4.10181 36.0008 3.72007 35.8427 3.43861 35.5613C3.15715 35.2798 2.99902 34.898 2.99902 34.5C2.99902 34.102 3.15715 33.7202 3.43861 33.4387L16.9386 19.9387C17.0779 19.7993 17.2434 19.6886 17.4254 19.6132C17.6075 19.5377 17.8027 19.4988 17.9999 19.4988C18.197 19.4988 18.3922 19.5377 18.5743 19.6132C18.7564 19.6886 18.9218 19.7993 19.0611 19.9387L25.4999 26.3794L39.8792 12H31.4999C31.102 12 30.7205 11.842 30.4392 11.5607C30.1579 11.2794 29.9999 10.8978 29.9999 10.5C29.9999 10.1022 30.1579 9.72064 30.4392 9.43934C30.7205 9.15804 31.102 9 31.4999 9H43.4999C43.8977 9 44.2792 9.15804 44.5605 9.43934C44.8418 9.72064 44.9999 10.1022 44.9999 10.5Z" fill="#7BD4CF"/>
</svg>
