<svg width="49" height="48" viewBox="0 0 49 48" fill="none" xmlns="http://www.w3.org/2000/svg">
<path d="M28.5612 25.939C28.4219 25.7995 28.2565 25.6888 28.0744 25.6134C27.8923 25.5379 27.6971 25.499 27.5 25.499C27.3029 25.499 27.1077 25.5379 26.9256 25.6134C26.7435 25.6888 26.578 25.7995 26.4387 25.939L23 29.3796L19.1206 25.5002L22.5612 22.0615C22.8427 21.78 23.0008 21.3982 23.0008 21.0002C23.0008 20.6022 22.8427 20.2204 22.5612 19.939C22.2798 19.6575 21.898 19.4994 21.5 19.4994C21.1019 19.4994 20.7202 19.6575 20.4387 19.939L17 23.3796L13.5612 19.939C13.2798 19.6575 12.898 19.4994 12.5 19.4994C12.1019 19.4994 11.7202 19.6575 11.4387 19.939C11.1573 20.2204 10.9991 20.6022 10.9991 21.0002C10.9991 21.3982 11.1573 21.78 11.4387 22.0615L12.6294 23.2502L8.25685 27.6208C7.69956 28.178 7.25748 28.8395 6.95586 29.5675C6.65425 30.2956 6.49901 31.0759 6.49901 31.864C6.49901 32.652 6.65425 33.4323 6.95586 34.1604C7.25748 34.8884 7.69956 35.5499 8.25685 36.1071L9.2656 37.114L3.93873 42.4389C3.79936 42.5783 3.68881 42.7438 3.61339 42.9259C3.53797 43.1079 3.49915 43.3031 3.49915 43.5002C3.49915 43.6973 3.53797 43.8925 3.61339 44.0745C3.68881 44.2566 3.79936 44.4221 3.93873 44.5615C4.22019 44.8429 4.60193 45.001 4.99998 45.001C5.19707 45.001 5.39223 44.9622 5.57432 44.8868C5.75641 44.8114 5.92186 44.7008 6.06123 44.5615L11.3862 39.2346L12.3931 40.2433C12.9503 40.8006 13.6118 41.2427 14.3398 41.5443C15.0679 41.8459 15.8482 42.0012 16.6362 42.0012C17.4243 42.0012 18.2046 41.8459 18.9326 41.5443C19.6607 41.2427 20.3222 40.8006 20.8794 40.2433L25.25 35.8708L26.4387 37.0615C26.5781 37.2008 26.7435 37.3114 26.9256 37.3868C27.1077 37.4622 27.3029 37.501 27.5 37.501C27.6971 37.501 27.8922 37.4622 28.0743 37.3868C28.2564 37.3114 28.4219 37.2008 28.5612 37.0615C28.7006 36.9221 28.8111 36.7566 28.8866 36.5745C28.962 36.3925 29.0008 36.1973 29.0008 36.0002C29.0008 35.8031 28.962 35.6079 28.8866 35.4259C28.8111 35.2438 28.7006 35.0783 28.5612 34.939L25.1206 31.5002L28.5612 28.0615C28.7007 27.9221 28.8113 27.7567 28.8868 27.5746C28.9623 27.3925 29.0012 27.1973 29.0012 27.0002C29.0012 26.8031 28.9623 26.6079 28.8868 26.4258C28.8113 26.2437 28.7007 26.0783 28.5612 25.939ZM18.7569 38.1264C18.1943 38.6886 17.4315 39.0044 16.6362 39.0044C15.8409 39.0044 15.0782 38.6886 14.5156 38.1264L10.3794 33.9846C9.81717 33.422 9.50137 32.6593 9.50137 31.864C9.50137 31.0686 9.81717 30.3059 10.3794 29.7433L14.75 25.3708L23.1294 33.7502L18.7569 38.1264ZM45.0612 3.43895C44.9219 3.29949 44.7565 3.18885 44.5744 3.11336C44.3923 3.03788 44.1971 2.99902 44 2.99902C43.8029 2.99902 43.6077 3.03788 43.4256 3.11336C43.2435 3.18885 43.078 3.29949 42.9387 3.43895L37.6137 8.76583L36.6069 7.75708C35.4804 6.63386 33.9545 6.00311 32.3637 6.00311C30.773 6.00311 29.2471 6.63386 28.1206 7.75708L23.75 12.1296L22.5612 10.939C22.2798 10.6575 21.898 10.4994 21.5 10.4994C21.1019 10.4994 20.7202 10.6575 20.4387 10.939C20.1573 11.2204 19.9991 11.6022 19.9991 12.0002C19.9991 12.3982 20.1573 12.78 20.4387 13.0615L35.4387 28.0615C35.5781 28.2008 35.7435 28.3114 35.9256 28.3868C36.1077 28.4622 36.3029 28.501 36.5 28.501C36.6971 28.501 36.8922 28.4622 37.0743 28.3868C37.2564 28.3114 37.4219 28.2008 37.5612 28.0615C37.7006 27.9221 37.8111 27.7566 37.8866 27.5745C37.962 27.3925 38.0008 27.1973 38.0008 27.0002C38.0008 26.8031 37.962 26.6079 37.8866 26.4259C37.8111 26.2438 37.7006 26.0783 37.5612 25.939L36.3706 24.7502L40.7431 20.3796C41.3004 19.8224 41.7425 19.1609 42.0441 18.4329C42.3457 17.7048 42.5009 16.9245 42.5009 16.1365C42.5009 15.3484 42.3457 14.5681 42.0441 13.84C41.7425 13.112 41.3004 12.4505 40.7431 11.8933L39.7344 10.8865L45.0612 5.56145C45.2007 5.42214 45.3113 5.25671 45.3868 5.07461C45.4623 4.89252 45.5012 4.69733 45.5012 4.5002C45.5012 4.30308 45.4623 4.10789 45.3868 3.92579C45.3113 3.7437 45.2007 3.57826 45.0612 3.43895ZM38.6206 18.2515L34.25 22.6296L25.8706 14.2502L30.2431 9.87958C30.8057 9.31739 31.5684 9.00159 32.3637 9.00159C33.159 9.00159 33.9218 9.31739 34.4844 9.87958L38.6206 14.0046C38.9007 14.2833 39.1229 14.6147 39.2745 14.9796C39.4262 15.3444 39.5042 15.7357 39.5042 16.1308C39.5042 16.526 39.4262 16.9172 39.2745 17.2821C39.1229 17.647 38.9007 17.9783 38.6206 18.2571V18.2515Z" fill="#7BD4CF"/>
</svg>
