<svg width="24" height="24" viewBox="0 0 24 24" fill="none" xmlns="http://www.w3.org/2000/svg">
<path d="M21.75 5.25H6.75V3.75C6.75 3.55109 6.67098 3.36032 6.53033 3.21967C6.38968 3.07902 6.19891 3 6 3H4.5C3.70435 3 2.94129 3.31607 2.37868 3.87868C1.81607 4.44129 1.5 5.20435 1.5 6V16.5C1.5 17.2956 1.81607 18.0587 2.37868 18.6213C2.94129 19.1839 3.70435 19.5 4.5 19.5H21.75C21.9489 19.5 22.1397 19.421 22.2803 19.2803C22.421 19.1397 22.5 18.9489 22.5 18.75V6C22.5 5.80109 22.421 5.61032 22.2803 5.46967C22.1397 5.32902 21.9489 5.25 21.75 5.25ZM3 6C3 5.60218 3.15804 5.22064 3.43934 4.93934C3.72064 4.65804 4.10218 4.5 4.5 4.5H5.25V13.5H4.5C3.97326 13.4993 3.45572 13.638 3 13.9022V6ZM21 18H4.5C4.10218 18 3.72064 17.842 3.43934 17.5607C3.15804 17.2794 3 16.8978 3 16.5C3 16.1022 3.15804 15.7206 3.43934 15.4393C3.72064 15.158 4.10218 15 4.5 15H6C6.19891 15 6.38968 14.921 6.53033 14.7803C6.67098 14.6397 6.75 14.4489 6.75 14.25V6.75H21V18ZM9.75 12.75C9.55109 12.75 9.36032 12.829 9.21967 12.9697C9.07902 13.1103 9 13.3011 9 13.5C9 13.6989 9.07902 13.8897 9.21967 14.0303C9.36032 14.171 9.55109 14.25 9.75 14.25H11.25V15C11.25 15.1989 11.329 15.3897 11.4697 15.5303C11.6103 15.671 11.8011 15.75 12 15.75C12.1989 15.75 12.3897 15.671 12.5303 15.5303C12.671 15.3897 12.75 15.1989 12.75 15V14.25H15V15C15 15.1989 15.079 15.3897 15.2197 15.5303C15.3603 15.671 15.5511 15.75 15.75 15.75C15.9489 15.75 16.1397 15.671 16.2803 15.5303C16.421 15.3897 16.5 15.1989 16.5 15V14.25H18C18.1989 14.25 18.3897 14.171 18.5303 14.0303C18.671 13.8897 18.75 13.6989 18.75 13.5C18.75 13.3011 18.671 13.1103 18.5303 12.9697C18.3897 12.829 18.1989 12.75 18 12.75H16.5V11.25H18C18.1989 11.25 18.3897 11.171 18.5303 11.0303C18.671 10.8897 18.75 10.6989 18.75 10.5C18.75 10.3011 18.671 10.1103 18.5303 9.96967C18.3897 9.82902 18.1989 9.75 18 9.75H16.5V9C16.5 8.80109 16.421 8.61032 16.2803 8.46967C16.1397 8.32902 15.9489 8.25 15.75 8.25C15.5511 8.25 15.3603 8.32902 15.2197 8.46967C15.079 8.61032 15 8.80109 15 9V9.75H12.75V9C12.75 8.80109 12.671 8.61032 12.5303 8.46967C12.3897 8.32902 12.1989 8.25 12 8.25C11.8011 8.25 11.6103 8.32902 11.4697 8.46967C11.329 8.61032 11.25 8.80109 11.25 9V9.75H9.75C9.55109 9.75 9.36032 9.82902 9.21967 9.96967C9.07902 10.1103 9 10.3011 9 10.5C9 10.6989 9.07902 10.8897 9.21967 11.0303C9.36032 11.171 9.55109 11.25 9.75 11.25H11.25V12.75H9.75ZM12.75 11.25H15V12.75H12.75V11.25Z" fill="#7BD4CF"/>
</svg>
