<svg width="48" height="48" viewBox="0 0 48 48" fill="none" xmlns="http://www.w3.org/2000/svg">
<path d="M41.3004 29.726C41.0866 29.5911 40.8421 29.5125 40.5896 29.4974C40.3372 29.4823 40.0851 29.5313 39.8567 29.6398C39.2851 29.9101 38.6545 30.0315 38.0234 29.9927C37.3923 29.9539 36.7813 29.7562 36.2472 29.418C35.713 29.0797 35.273 28.6119 34.9682 28.058C34.6633 27.5041 34.5034 26.8821 34.5034 26.2498C34.5034 25.6175 34.6633 24.9955 34.9682 24.4416C35.273 23.8877 35.713 23.4199 36.2472 23.0816C36.7813 22.7433 37.3923 22.5456 38.0234 22.5069C38.6545 22.4681 39.2851 22.5895 39.8567 22.8598C40.0854 22.9683 40.3378 23.0172 40.5904 23.0019C40.8431 22.9866 41.0878 22.9076 41.3017 22.7723C41.5156 22.637 41.6918 22.4498 41.8139 22.228C41.9359 22.0063 41.9999 21.7573 41.9998 21.5042V13.4998C41.9998 12.7041 41.6837 11.9411 41.1211 11.3785C40.5585 10.8159 39.7955 10.4998 38.9998 10.4998H32.2086C32.2365 10.2508 32.2503 10.0004 32.2498 9.74979C32.2484 8.8279 32.0588 7.916 31.6925 7.06998C31.3263 6.22397 30.7911 5.46166 30.1198 4.82979C29.1903 3.95681 28.0326 3.36498 26.7806 3.12283C25.5286 2.88067 24.2337 2.99811 23.0457 3.46153C21.8577 3.92495 20.8253 4.7154 20.068 5.74134C19.3107 6.76729 18.8595 7.98676 18.7667 9.25854C18.7379 9.67223 18.7467 10.0877 18.7929 10.4998H11.9998C11.2042 10.4998 10.4411 10.8159 9.8785 11.3785C9.31589 11.9411 8.99982 12.7041 8.99982 13.4998V19.541C8.7508 19.5131 8.50039 19.4994 8.24982 19.4998C7.32794 19.5013 6.41607 19.691 5.57007 20.0572C4.72407 20.4235 3.96176 20.9586 3.32982 21.6298C2.69334 22.3021 2.20326 23.0991 1.89053 23.9705C1.5778 24.8419 1.44923 25.7687 1.51294 26.6923C1.62043 28.3186 2.31146 29.8515 3.45895 31.0089C4.60644 32.1664 6.13323 32.8707 7.75857 32.9923C8.17224 33.022 8.58777 33.0132 8.99982 32.966V38.9998C8.99982 39.7954 9.31589 40.5585 9.8785 41.1211C10.4411 41.6837 11.2042 41.9998 11.9998 41.9998H38.9998C39.7955 41.9998 40.5585 41.6837 41.1211 41.1211C41.6837 40.5585 41.9998 39.7954 41.9998 38.9998V30.9954C42 30.742 41.9359 30.4926 41.8136 30.2707C41.6913 30.0487 41.5148 29.8613 41.3004 29.726ZM38.9998 38.9998H11.9998V30.9954C11.9999 30.7423 11.9359 30.4933 11.8139 30.2715C11.6918 30.0498 11.5156 29.8626 11.3017 29.7272C11.0878 29.5919 10.8431 29.513 10.5904 29.4977C10.3378 29.4824 10.0854 29.5313 9.85669 29.6398C9.28513 29.9101 8.65449 30.0315 8.02342 29.9927C7.39235 29.9539 6.78133 29.7562 6.24716 29.418C5.713 29.0797 5.27303 28.6119 4.96817 28.058C4.66331 27.5041 4.50344 26.8821 4.50344 26.2498C4.50344 25.6175 4.66331 24.9955 4.96817 24.4416C5.27303 23.8877 5.713 23.4199 6.24716 23.0816C6.78133 22.7433 7.39235 22.5456 8.02342 22.5069C8.65449 22.4681 9.28513 22.5895 9.85669 22.8598C10.0854 22.9683 10.3378 23.0172 10.5904 23.0019C10.8431 22.9866 11.0878 22.9076 11.3017 22.7723C11.5156 22.637 11.6918 22.4498 11.8139 22.228C11.9359 22.0063 11.9999 21.7573 11.9998 21.5042V13.4998H20.7542C21.0073 13.4999 21.2563 13.4359 21.4781 13.3138C21.6998 13.1918 21.8871 13.0156 22.0224 12.8017C22.1577 12.5877 22.2366 12.3431 22.2519 12.0904C22.2672 11.8378 22.2183 11.5853 22.1098 11.3567C21.8395 10.7851 21.7181 10.1545 21.7569 9.52339C21.7957 8.89232 21.9934 8.2813 22.3316 7.74714C22.6699 7.21297 23.1377 6.77301 23.6916 6.46814C24.2456 6.16328 24.8676 6.00342 25.4998 6.00342C26.1321 6.00342 26.7541 6.16328 27.308 6.46814C27.8619 6.77301 28.3297 7.21297 28.668 7.74714C29.0063 8.2813 29.204 8.89232 29.2428 9.52339C29.2815 10.1545 29.1601 10.7851 28.8898 11.3567C28.7813 11.5853 28.7324 11.8378 28.7477 12.0904C28.763 12.3431 28.842 12.5877 28.9773 12.8017C29.1126 13.0156 29.2998 13.1918 29.5216 13.3138C29.7433 13.4359 29.9923 13.4999 30.2454 13.4998H38.9998V19.5429C38.5878 19.4957 38.1722 19.4869 37.7586 19.5167C36.0128 19.6403 34.3833 20.4372 33.2137 21.7392C32.0442 23.0412 31.4261 24.7466 31.4898 26.4956C31.5535 28.2446 32.2941 29.9005 33.5553 31.1139C34.8165 32.3274 36.4997 33.0035 38.2498 32.9998C38.5004 33.0002 38.7508 32.9865 38.9998 32.9585V38.9998Z" fill="#7BD4CF"/>
</svg>
