<svg width="48" height="48" viewBox="0 0 48 48" fill="none" xmlns="http://www.w3.org/2000/svg">
<path d="M41.972 8.83429C41.9275 8.1029 41.617 7.41307 41.0988 6.89494C40.5807 6.37682 39.8909 6.06623 39.1595 6.02179C36.8007 5.88116 30.7726 6.09679 25.7701 11.0974L24.8795 11.9993H13.9426C13.5471 11.9971 13.1552 12.0735 12.7895 12.2241C12.4238 12.3748 12.0918 12.5966 11.8126 12.8768L5.38135 19.3118C4.98694 19.7059 4.71018 20.2022 4.58213 20.7449C4.45408 21.2876 4.47981 21.8552 4.65643 22.3841C4.83305 22.913 5.15356 23.3822 5.58201 23.739C6.01046 24.0958 6.52988 24.3262 7.08198 24.4043L14.2951 25.4112L22.5845 33.7005L23.5914 40.9174C23.6688 41.4695 23.8991 41.989 24.2563 42.4171C24.6135 42.8452 25.0833 43.1648 25.6126 43.3399C25.9209 43.4429 26.2438 43.4955 26.5689 43.4955C26.9624 43.4963 27.3523 43.4191 27.7159 43.2685C28.0796 43.1179 28.4098 42.8968 28.6876 42.618L35.1226 36.1868C35.4028 35.9076 35.6246 35.5756 35.7753 35.2099C35.9259 34.8442 36.0023 34.4523 36.0001 34.0568V23.1199L36.8945 22.2255C41.897 17.223 42.1126 11.1949 41.972 8.83429ZM13.9426 14.9993H21.8795L14.4676 22.4093L7.5001 21.438L13.9426 14.9993ZM27.8945 13.2274C29.3358 11.7772 31.0701 10.6512 32.9813 9.92463C34.8926 9.19809 36.9368 8.88774 38.9776 9.01429C39.1091 11.0561 38.8019 13.1024 38.0768 15.0157C37.3518 16.929 36.2255 18.6649 34.7739 20.1068L24.0001 30.8768L17.1226 23.9993L27.8945 13.2274ZM33.0001 34.0568L26.5632 40.4993L25.5901 33.5299L33.0001 26.1199V34.0568ZM19.0951 35.838C18.2514 37.6868 15.4295 41.9993 7.5001 41.9993C7.10228 41.9993 6.72075 41.8413 6.43945 41.56C6.15814 41.2786 6.0001 40.8971 6.0001 40.4993C6.0001 32.5699 10.3126 29.748 12.1614 28.9024C12.3406 28.8207 12.5342 28.775 12.7311 28.7681C12.928 28.7612 13.1243 28.7931 13.3089 28.862C13.4934 28.931 13.6626 29.0356 13.8067 29.1699C13.9509 29.3043 14.0671 29.4657 14.1489 29.6449C14.2306 29.8242 14.2762 30.0178 14.2832 30.2147C14.2901 30.4116 14.2582 30.6079 14.1892 30.7924C14.1203 30.977 14.0157 31.1462 13.8813 31.2903C13.747 31.4344 13.5856 31.5507 13.4064 31.6324C12.2007 32.1818 9.54011 33.9499 9.07136 38.928C14.0495 38.4593 15.8214 35.7987 16.367 34.593C16.4487 34.4138 16.565 34.2524 16.7091 34.1181C16.8532 33.9837 17.0224 33.8791 17.207 33.8102C17.3915 33.7412 17.5878 33.7093 17.7847 33.7162C17.9816 33.7232 18.1752 33.7688 18.3545 33.8505C18.5337 33.9323 18.6951 34.0485 18.8295 34.1927C18.9638 34.3368 19.0684 34.506 19.1374 34.6905C19.2063 34.8751 19.2382 35.0714 19.2313 35.2683C19.2244 35.4652 19.1787 35.6588 19.097 35.838H19.0951Z" fill="#7BD4CF"/>
</svg>
