<svg width="49" height="48" viewBox="0 0 49 48" fill="none" xmlns="http://www.w3.org/2000/svg">
<path d="M43.5617 40.9392L34.1736 31.5529C36.8946 28.2861 38.2515 24.096 37.9619 19.8543C37.6723 15.6126 35.7585 11.6458 32.6187 8.77913C29.4789 5.91247 25.3548 4.36665 21.1043 4.46325C16.8537 4.55985 12.8041 6.29143 9.79777 9.29777C6.79143 12.3041 5.05985 16.3537 4.96325 20.6043C4.86665 24.8548 6.41247 28.9789 9.27913 32.1187C12.1458 35.2585 16.1126 37.1723 20.3543 37.4619C24.596 37.7515 28.7861 36.3946 32.0529 33.6736L41.4392 43.0617C41.5785 43.201 41.744 43.3116 41.9261 43.387C42.1082 43.4624 42.3033 43.5013 42.5004 43.5013C42.6975 43.5013 42.8927 43.4624 43.0748 43.387C43.2569 43.3116 43.4223 43.201 43.5617 43.0617C43.701 42.9223 43.8116 42.7569 43.887 42.5748C43.9624 42.3927 44.0013 42.1975 44.0013 42.0004C44.0013 41.8033 43.9624 41.6082 43.887 41.4261C43.8116 41.244 43.701 41.0785 43.5617 40.9392ZM8.00043 21.0004C8.00043 18.3304 8.79219 15.7203 10.2756 13.5002C11.759 11.2802 13.8674 9.54984 16.3342 8.52805C18.801 7.50627 21.5154 7.23893 24.1341 7.75983C26.7529 8.28073 29.1584 9.56648 31.0464 11.4545C32.9344 13.3425 34.2201 15.748 34.741 18.3667C35.2619 20.9855 34.9946 23.6999 33.9728 26.1667C32.951 28.6335 31.2207 30.7419 29.0006 32.2253C26.7806 33.7087 24.1705 34.5004 21.5004 34.5004C17.9212 34.4965 14.4898 33.0729 11.9589 30.542C9.42799 28.0111 8.0044 24.5796 8.00043 21.0004Z" fill="#7BD4CF"/>
</svg>
