<svg width="24" height="24" viewBox="0 0 24 24" fill="none" xmlns="http://www.w3.org/2000/svg">
<path d="M21.2586 6.46862C21.2131 6.35617 21.141 6.25644 21.0485 6.17797C20.956 6.09951 20.8458 6.04465 20.7275 6.0181C20.6091 5.99155 20.4861 5.99411 20.3689 6.02555C20.2518 6.05699 20.144 6.11638 20.0548 6.19862L16.2767 9.68518L14.6614 9.33831L14.3145 7.72299L17.8011 3.94487C17.8833 3.85571 17.9427 3.74793 17.9741 3.63077C18.0056 3.51362 18.0081 3.39058 17.9816 3.27222C17.955 3.15386 17.9002 3.04371 17.8217 2.95121C17.7432 2.8587 17.6435 2.78661 17.5311 2.74112C16.5063 2.32659 15.3954 2.17007 14.2961 2.28532C13.1967 2.40058 12.1424 2.78407 11.2259 3.4021C10.3094 4.02014 9.55871 4.85381 9.03979 5.82985C8.52086 6.8059 8.2496 7.89445 8.24982 8.99987C8.2486 9.93332 8.4401 10.857 8.81232 11.713L3.16763 16.5936C3.15357 16.6049 3.14044 16.618 3.12732 16.6302C2.56464 17.1929 2.24854 17.956 2.24854 18.7517C2.24854 19.1458 2.32614 19.5359 2.47692 19.8999C2.6277 20.2639 2.84871 20.5947 3.12732 20.8733C3.40592 21.1519 3.73668 21.3729 4.1007 21.5237C4.46471 21.6745 4.85487 21.7521 5.24888 21.7521C6.04462 21.7521 6.80777 21.436 7.37044 20.8733C7.38263 20.8611 7.39575 20.8471 7.407 20.8339L12.2867 15.1874C13.3146 15.6386 14.4388 15.8263 15.5575 15.7336C16.6763 15.6408 17.7542 15.2705 18.6938 14.6562C19.6333 14.0418 20.4049 13.2029 20.9385 12.2152C21.4721 11.2276 21.7509 10.1224 21.7498 8.99987C21.7513 8.13229 21.5844 7.27267 21.2586 6.46862ZM14.9998 14.2499C14.1121 14.2487 13.2391 14.0229 12.462 13.5936C12.3115 13.5105 12.1369 13.4816 11.9676 13.5118C11.7983 13.542 11.6445 13.6295 11.532 13.7596L6.29138 19.8289C6.00778 20.0984 5.63016 20.2463 5.23902 20.2413C4.84787 20.2363 4.47416 20.0787 4.19756 19.8021C3.92096 19.5255 3.76335 19.1518 3.75834 18.7607C3.75334 18.3695 3.90132 17.9919 4.17075 17.7083L10.2354 12.4686C10.3658 12.3561 10.4534 12.2021 10.4836 12.0326C10.5138 11.8631 10.4848 11.6883 10.4014 11.5377C9.92328 10.673 9.69891 9.69089 9.75406 8.70435C9.80922 7.71781 10.1417 6.76686 10.7132 5.96082C11.2847 5.15479 12.072 4.5264 12.9847 4.14788C13.8974 3.76937 14.8984 3.65611 15.8726 3.82112L12.9476 6.99081C12.8662 7.07909 12.8072 7.18563 12.7756 7.30146C12.7439 7.41729 12.7406 7.53903 12.7658 7.65643L13.2964 10.1249C13.3267 10.266 13.3972 10.3955 13.4993 10.4976C13.6014 10.5997 13.7308 10.6701 13.872 10.7005L16.3423 11.2311C16.4597 11.2563 16.5815 11.2529 16.6973 11.2213C16.8131 11.1896 16.9197 11.1306 17.0079 11.0492L20.1776 8.12424C20.304 8.87706 20.2648 9.64838 20.0629 10.3845C19.861 11.1207 19.5011 11.804 19.0083 12.387C18.5156 12.97 17.9017 13.4386 17.2094 13.7603C16.5172 14.0821 15.7632 14.2491 14.9998 14.2499Z" fill="#7BD4CF"/>
</svg>
