<svg width="48" height="48" viewBox="0 0 48 48" fill="none" xmlns="http://www.w3.org/2000/svg">
<path d="M43.5 21H25.5V16.5H27C27.7956 16.5 28.5587 16.1839 29.1213 15.6213C29.6839 15.0587 30 14.2956 30 13.5V7.5C30 6.70435 29.6839 5.94129 29.1213 5.37868C28.5587 4.81607 27.7956 4.5 27 4.5H21C20.2044 4.5 19.4413 4.81607 18.8787 5.37868C18.3161 5.94129 18 6.70435 18 7.5V13.5C18 14.2956 18.3161 15.0587 18.8787 15.6213C19.4413 16.1839 20.2044 16.5 21 16.5H22.5V21H4.5C4.10218 21 3.72064 21.158 3.43934 21.4393C3.15804 21.7206 3 22.1022 3 22.5C3 22.8978 3.15804 23.2794 3.43934 23.5607C3.72064 23.842 4.10218 24 4.5 24H10.5V30H9C8.20435 30 7.44129 30.3161 6.87868 30.8787C6.31607 31.4413 6 32.2044 6 33V39C6 39.7957 6.31607 40.5587 6.87868 41.1213C7.44129 41.6839 8.20435 42 9 42H15C15.7956 42 16.5587 41.6839 17.1213 41.1213C17.6839 40.5587 18 39.7957 18 39V33C18 32.2044 17.6839 31.4413 17.1213 30.8787C16.5587 30.3161 15.7956 30 15 30H13.5V24H34.5V30H33C32.2044 30 31.4413 30.3161 30.8787 30.8787C30.3161 31.4413 30 32.2044 30 33V39C30 39.7957 30.3161 40.5587 30.8787 41.1213C31.4413 41.6839 32.2044 42 33 42H39C39.7957 42 40.5587 41.6839 41.1213 41.1213C41.6839 40.5587 42 39.7957 42 39V33C42 32.2044 41.6839 31.4413 41.1213 30.8787C40.5587 30.3161 39.7957 30 39 30H37.5V24H43.5C43.8978 24 44.2794 23.842 44.5607 23.5607C44.842 23.2794 45 22.8978 45 22.5C45 22.1022 44.842 21.7206 44.5607 21.4393C44.2794 21.158 43.8978 21 43.5 21ZM21 7.5H27V13.5H21V7.5ZM15 39H9V33H15V39ZM39 39H33V33H39V39Z" fill="#7BD4CF"/>
</svg>
