<svg width="48" height="48" viewBox="0 0 48 48" fill="none" xmlns="http://www.w3.org/2000/svg">
<path d="M33.0002 43.5009C33.0002 43.8987 32.8422 44.2802 32.5609 44.5615C32.2796 44.8429 31.8981 45.0009 31.5002 45.0009H16.5002C16.1024 45.0009 15.7209 44.8429 15.4396 44.5615C15.1583 44.2802 15.0002 43.8987 15.0002 43.5009C15.0002 43.1031 15.1583 42.7215 15.4396 42.4402C15.7209 42.1589 16.1024 42.0009 16.5002 42.0009H31.5002C31.8981 42.0009 32.2796 42.1589 32.5609 42.4402C32.8422 42.7215 33.0002 43.1031 33.0002 43.5009ZM40.5002 19.5009C40.5067 22.0015 39.9418 24.4705 38.8487 26.7195C37.7555 28.9685 36.163 30.938 34.1927 32.4778C33.8243 32.7602 33.5254 33.123 33.3187 33.5387C33.112 33.9543 33.0031 34.4117 33.0002 34.8759V36.0009C33.0002 36.7965 32.6842 37.5596 32.1216 38.1222C31.559 38.6848 30.7959 39.0009 30.0002 39.0009H18.0002C17.2046 39.0009 16.4415 38.6848 15.8789 38.1222C15.3163 37.5596 15.0002 36.7965 15.0002 36.0009V34.8759C14.9999 34.4173 14.8945 33.9648 14.692 33.5533C14.4895 33.1418 14.1953 32.7822 13.8321 32.5021C11.8667 30.9715 10.2753 29.0138 9.17833 26.7772C8.08133 24.5407 7.50749 22.0839 7.50025 19.5928C7.4515 10.6565 14.674 3.21463 23.6027 3.00088C25.8028 2.94787 27.9912 3.33548 30.0392 4.14092C32.0871 4.94635 33.9533 6.15333 35.5278 7.6908C37.1023 9.22828 38.3534 11.0652 39.2073 13.0934C40.0613 15.1217 40.5009 17.3002 40.5002 19.5009ZM37.5002 19.5009C37.5008 17.7002 37.1411 15.9177 36.4423 14.2582C35.7436 12.5986 34.7199 11.0957 33.4315 9.83772C32.1432 8.57977 30.6162 7.59226 28.9405 6.93333C27.2647 6.27441 25.4741 5.95737 23.674 6.00088C16.3615 6.17338 10.4609 12.2615 10.5002 19.574C10.5071 21.6114 10.9772 23.6205 11.8751 25.4493C12.773 27.2782 14.075 28.8789 15.6827 30.1303C16.4055 30.6921 16.99 31.4118 17.3917 32.2344C17.7934 33.0569 18.0016 33.9605 18.0002 34.8759V36.0009H30.0002V34.8759C30.0023 33.9579 30.214 33.0525 30.6193 32.2287C31.0245 31.405 31.6124 30.6847 32.3384 30.1228C33.9511 28.8624 35.2544 27.2503 36.1491 25.4094C37.0437 23.5686 37.5058 21.5476 37.5002 19.5009ZM34.4796 17.7496C34.0907 15.5771 33.0454 13.5758 31.4846 12.0153C29.9237 10.4548 27.9223 9.41 25.7496 9.02151C25.5553 8.98876 25.3565 8.9946 25.1645 9.03869C24.9725 9.08278 24.791 9.16426 24.6305 9.27847C24.47 9.39269 24.3335 9.53741 24.2289 9.70436C24.1243 9.87131 24.0536 10.0572 24.0209 10.2515C23.9881 10.4458 23.994 10.6446 24.038 10.8366C24.0821 11.0286 24.1636 11.2101 24.2778 11.3706C24.392 11.5312 24.5368 11.6676 24.7037 11.7722C24.8707 11.8768 25.0566 11.9475 25.2509 11.9803C28.3577 12.5034 30.994 15.1396 31.5209 18.2521C31.5802 18.6015 31.7613 18.9185 32.0321 19.1471C32.3029 19.3757 32.6459 19.501 33.0002 19.5009C33.085 19.5004 33.1696 19.4935 33.2534 19.4803C33.6455 19.4133 33.9949 19.1934 34.2248 18.8689C34.4548 18.5443 34.5464 18.1417 34.4796 17.7496Z" fill="#7BD4CF"/>
</svg>
