<svg width="48" height="48" viewBox="0 0 48 48" fill="none" xmlns="http://www.w3.org/2000/svg">
<g clip-path="url(#clip0_8760_26497)">
<path d="M38.8237 13.6257C36.8794 11.6769 34.5685 10.1323 32.0242 9.08099C29.48 8.02964 26.7529 7.49235 24 7.50008H23.925C12.3881 7.53946 3 17.0626 3 28.712V33.0001C3 33.7957 3.31607 34.5588 3.87868 35.1214C4.44129 35.684 5.20435 36.0001 6 36.0001H42C42.7957 36.0001 43.5587 35.684 44.1213 35.1214C44.6839 34.5588 45 33.7957 45 33.0001V28.5001C45.0077 25.7352 44.4656 22.9963 43.4053 20.4428C42.345 17.8892 40.7877 15.572 38.8237 13.6257ZM42 33.0001H22.4456L32.7131 18.8813C32.9473 18.5596 33.0442 18.158 32.9823 17.7649C32.9204 17.3717 32.7049 17.0193 32.3831 16.7851C32.0614 16.5509 31.6598 16.454 31.2667 16.5159C30.8735 16.5778 30.5211 16.7933 30.2869 17.1151L18.735 33.0001H6V28.712C6 28.1345 6.02813 27.5645 6.08063 27.0001H10.5C10.8978 27.0001 11.2794 26.842 11.5607 26.5607C11.842 26.2794 12 25.8979 12 25.5001C12 25.1023 11.842 24.7207 11.5607 24.4394C11.2794 24.1581 10.8978 24.0001 10.5 24.0001H6.61313C8.54813 16.7138 14.8631 11.2051 22.5 10.5638V15.0001C22.5 15.3979 22.658 15.7794 22.9393 16.0607C23.2206 16.342 23.6022 16.5001 24 16.5001C24.3978 16.5001 24.7794 16.342 25.0607 16.0607C25.342 15.7794 25.5 15.3979 25.5 15.0001V10.562C29.2212 10.8751 32.7534 12.3363 35.6083 14.7435C38.4633 17.1507 40.5002 20.3852 41.4375 24.0001H37.5C37.1022 24.0001 36.7206 24.1581 36.4393 24.4394C36.158 24.7207 36 25.1023 36 25.5001C36 25.8979 36.158 26.2794 36.4393 26.5607C36.7206 26.842 37.1022 27.0001 37.5 27.0001H41.9381C41.9775 27.497 42 27.9957 42 28.5001V33.0001Z" fill="#7BD4CF"/>
</g>
<defs>
<clipPath id="clip0_8760_26497">
<rect width="48" height="48" fill="white"/>
</clipPath>
</defs>
</svg>
