<svg width="48" height="48" viewBox="0 0 48 48" fill="none" xmlns="http://www.w3.org/2000/svg">
<path d="M24 4.5C20.1433 4.5 16.3731 5.64366 13.1664 7.78634C9.95963 9.92903 7.46027 12.9745 5.98436 16.5377C4.50845 20.1008 4.12228 24.0216 4.8747 27.8043C5.62711 31.5869 7.4843 35.0615 10.2114 37.7886C12.9386 40.5157 16.4131 42.3729 20.1957 43.1253C23.9784 43.8777 27.8992 43.4916 31.4623 42.0156C35.0255 40.5397 38.071 38.0404 40.2137 34.8336C42.3564 31.6269 43.5 27.8567 43.5 24C43.4945 18.83 41.4383 13.8732 37.7826 10.2174C34.1268 6.56167 29.1701 4.50546 24 4.5ZM31.3313 29.2106C32.4165 27.6899 32.9999 25.8683 32.9999 24C32.9999 22.1317 32.4165 20.3101 31.3313 18.7894L36.675 13.4475C39.1465 16.4085 40.5002 20.1431 40.5002 24C40.5002 27.8569 39.1465 31.5915 36.675 34.5525L31.3313 29.2106ZM18 24C18 22.8133 18.3519 21.6533 19.0112 20.6666C19.6705 19.6799 20.6076 18.9108 21.7039 18.4567C22.8003 18.0026 24.0067 17.8838 25.1706 18.1153C26.3344 18.3468 27.4035 18.9182 28.2426 19.7574C29.0818 20.5965 29.6532 21.6656 29.8847 22.8295C30.1162 23.9933 29.9974 25.1997 29.5433 26.2961C29.0892 27.3925 28.3201 28.3295 27.3334 28.9888C26.3467 29.6481 25.1867 30 24 30C22.4087 30 20.8826 29.3679 19.7574 28.2426C18.6321 27.1174 18 25.5913 18 24ZM34.5525 11.325L29.2106 16.6688C27.6899 15.5835 25.8683 15.0001 24 15.0001C22.1317 15.0001 20.3101 15.5835 18.7894 16.6688L13.4475 11.325C16.4085 8.85356 20.1431 7.49981 24 7.49981C27.8569 7.49981 31.5915 8.85356 34.5525 11.325ZM11.325 13.4475L16.6688 18.7894C15.5835 20.3101 15.0001 22.1317 15.0001 24C15.0001 25.8683 15.5835 27.6899 16.6688 29.2106L11.325 34.5525C8.85357 31.5915 7.49982 27.8569 7.49982 24C7.49982 20.1431 8.85357 16.4085 11.325 13.4475ZM13.4475 36.675L18.7894 31.3313C20.3101 32.4165 22.1317 32.9999 24 32.9999C25.8683 32.9999 27.6899 32.4165 29.2106 31.3313L34.5525 36.675C31.5915 39.1464 27.8569 40.5002 24 40.5002C20.1431 40.5002 16.4085 39.1464 13.4475 36.675Z" fill="#7BD4CF"/>
</svg>
