<svg width="49" height="48" viewBox="0 0 49 48" fill="none" xmlns="http://www.w3.org/2000/svg">
<path d="M39.5 6H30.5C29.7044 6 28.9413 6.31608 28.3787 6.87869C27.8161 7.4413 27.5 8.20435 27.5 9V39C27.5 39.7957 27.8161 40.5587 28.3787 41.1213C28.9413 41.6839 29.7044 42 30.5 42H39.5C40.2957 42 41.0587 41.6839 41.6213 41.1213C42.1839 40.5587 42.5 39.7957 42.5 39V9C42.5 8.20435 42.1839 7.4413 41.6213 6.87869C41.0587 6.31608 40.2957 6 39.5 6ZM39.5 39H30.5V33H34.98C35.3778 33 35.7594 32.842 36.0407 32.5607C36.322 32.2794 36.48 31.8978 36.48 31.5C36.48 31.1022 36.322 30.7206 36.0407 30.4393C35.7594 30.158 35.3778 30 34.98 30H30.48V25.5H34.98C35.3778 25.5 35.7594 25.342 36.0407 25.0607C36.322 24.7794 36.48 24.3978 36.48 24C36.48 23.6022 36.322 23.2206 36.0407 22.9393C35.7594 22.658 35.3778 22.5 34.98 22.5H30.48V18H34.98C35.3778 18 35.7594 17.842 36.0407 17.5607C36.322 17.2794 36.48 16.8978 36.48 16.5C36.48 16.1022 36.322 15.7206 36.0407 15.4393C35.7594 15.158 35.3778 15 34.98 15H30.48V9H39.48L39.5 39Z" fill="#7BD4CF"/>
<path d="M15.06 5.4346C14.7775 5.15612 14.3967 5 14 5C13.6033 5 13.2225 5.15612 12.94 5.4346L6.94 11.4346C6.65984 11.7205 6.50203 12.1043 6.5 12.5046V39.5046C6.5 40.3003 6.81607 41.0633 7.37868 41.6259C7.94129 42.1885 8.70435 42.5046 9.5 42.5046H18.5C19.2956 42.5046 20.0587 42.1885 20.6213 41.6259C21.1839 41.0633 21.5 40.3003 21.5 39.5046V12.5046C21.498 12.1043 21.3402 11.7205 21.06 11.4346L15.06 5.4346ZM13.98 8.6246L17.86 12.5046H10.12L13.98 8.6246ZM9.38 33.8046V15.8046H18.38V33.8046H9.38ZM18.5 39.5046H9.5V36.5046H18.5V39.5046Z" fill="#7BD4CF"/>
</svg>
