<svg width="48" height="48" viewBox="0 0 48 48" fill="none" xmlns="http://www.w3.org/2000/svg">
<path d="M25.5 28.6875V16.5C25.5 16.1022 25.342 15.7206 25.0607 15.4393C24.7794 15.158 24.3978 15 24 15C23.6022 15 23.2206 15.158 22.9393 15.4393C22.658 15.7206 22.5 16.1022 22.5 16.5V28.6875C21.086 29.0526 19.8537 29.9208 19.0341 31.1295C18.2145 32.3382 17.8638 33.8043 18.0478 35.253C18.2318 36.7017 18.9379 38.0336 20.0337 38.999C21.1294 39.9644 22.5396 40.497 24 40.497C25.4604 40.497 26.8706 39.9644 27.9663 38.999C29.0621 38.0336 29.7682 36.7017 29.9522 35.253C30.1362 33.8043 29.7855 32.3382 28.9659 31.1295C28.1463 29.9208 26.914 29.0526 25.5 28.6875ZM24 37.5C23.4067 37.5 22.8266 37.3241 22.3333 36.9944C21.8399 36.6648 21.4554 36.1962 21.2284 35.6481C21.0013 35.0999 20.9419 34.4967 21.0576 33.9147C21.1734 33.3328 21.4591 32.7982 21.8787 32.3787C22.2982 31.9591 22.8328 31.6734 23.4147 31.5576C23.9967 31.4419 24.5999 31.5013 25.1481 31.7284C25.6962 31.9554 26.1648 32.3399 26.4944 32.8333C26.8241 33.3266 27 33.9067 27 34.5C27 35.2957 26.6839 36.0587 26.1213 36.6213C25.5587 37.1839 24.7957 37.5 24 37.5ZM31.5 25.125V9C31.5 7.01088 30.7098 5.10322 29.3033 3.6967C27.8968 2.29018 25.9891 1.5 24 1.5C22.0109 1.5 20.1032 2.29018 18.6967 3.6967C17.2902 5.10322 16.5 7.01088 16.5 9V25.125C14.5592 26.6789 13.149 28.7972 12.4642 31.1872C11.7794 33.5772 11.8538 36.1209 12.6772 38.4668C13.5006 40.8127 15.0323 42.8449 17.0607 44.2826C19.089 45.7203 21.5138 46.4925 24 46.4925C26.4862 46.4925 28.911 45.7203 30.9393 44.2826C32.9677 42.8449 34.4994 40.8127 35.3228 38.4668C36.1462 36.1209 36.2206 33.5772 35.5358 31.1872C34.851 28.7972 33.4408 26.6789 31.5 25.125ZM24 43.5C22.0836 43.5002 20.2173 42.8886 18.6726 41.7544C17.1279 40.6202 15.9856 39.0226 15.412 37.1941C14.8383 35.3656 14.8633 33.4018 15.4832 31.5885C16.1032 29.7751 17.2857 28.2071 18.8588 27.1125C19.0578 26.9735 19.2201 26.7883 19.3318 26.5728C19.4435 26.3572 19.5012 26.1178 19.5 25.875V9C19.5 7.80653 19.9741 6.66193 20.818 5.81802C21.6619 4.97411 22.8065 4.5 24 4.5C25.1935 4.5 26.3381 4.97411 27.182 5.81802C28.0259 6.66193 28.5 7.80653 28.5 9V25.875C28.5 26.1165 28.5583 26.3544 28.6699 26.5686C28.7815 26.7827 28.9432 26.9667 29.1413 27.105C30.7175 28.1984 31.9032 29.7669 32.5253 31.5817C33.1473 33.3964 33.1732 35.3625 32.5992 37.193C32.0252 39.0235 30.8813 40.6227 29.3343 41.7573C27.7874 42.8919 25.9184 43.5025 24 43.5Z" fill="#7BD4CF"/>
</svg>
