<svg width="48" height="48" viewBox="0 0 48 48" fill="none" xmlns="http://www.w3.org/2000/svg">
<path d="M24.0004 15C22.2203 15 20.4803 15.5278 19.0002 16.5167C17.5202 17.5057 16.3666 18.9113 15.6854 20.5558C15.0043 22.2003 14.826 24.0099 15.1733 25.7558C15.5206 27.5016 16.3777 29.1053 17.6364 30.3639C18.8951 31.6226 20.4987 32.4798 22.2445 32.827C23.9904 33.1743 25.8 32.9961 27.4445 32.3149C29.089 31.6337 30.4946 30.4801 31.4836 29.0001C32.4725 27.5201 33.0004 25.78 33.0004 24C32.9979 21.6138 32.0489 19.326 30.3616 17.6387C28.6743 15.9515 26.3865 15.0024 24.0004 15ZM24.0004 30C22.8137 30 21.6536 29.6481 20.6669 28.9888C19.6802 28.3295 18.9112 27.3924 18.4571 26.2961C18.003 25.1997 17.8841 23.9933 18.1156 22.8294C18.3472 21.6655 18.9186 20.5964 19.7577 19.7573C20.5968 18.9182 21.6659 18.3468 22.8298 18.1153C23.9937 17.8837 25.2001 18.0026 26.2965 18.4567C27.3928 18.9108 28.3299 19.6798 28.9892 20.6665C29.6485 21.6532 30.0004 22.8133 30.0004 24C30.0004 25.5913 29.3682 27.1174 28.243 28.2426C27.1178 29.3678 25.5917 30 24.0004 30ZM44.6141 20.1018C44.5723 19.8906 44.4856 19.6909 44.3597 19.5161C44.2338 19.3414 44.0719 19.1959 43.8847 19.0893L38.2916 15.9018L38.2691 9.59809C38.2684 9.38099 38.2206 9.16663 38.129 8.9698C38.0374 8.77298 37.9042 8.59839 37.7385 8.45809C35.7096 6.7419 33.3732 5.42671 30.8535 4.58246C30.6551 4.5153 30.4448 4.49045 30.2361 4.5095C30.0275 4.52855 29.8252 4.59109 29.6422 4.69309L24.0004 7.84684L18.3529 4.68746C18.1698 4.58489 17.9672 4.52188 17.7582 4.5025C17.5493 4.48312 17.3386 4.50781 17.1397 4.57496C14.6219 5.42538 12.2882 6.74558 10.2622 8.46559C10.0968 8.60568 9.96369 8.77997 9.87209 8.97645C9.78049 9.17293 9.73256 9.38693 9.73161 9.60371L9.70348 15.9131L4.11036 19.1006C3.92323 19.2071 3.76124 19.3527 3.63538 19.5274C3.50953 19.7021 3.42276 19.9019 3.38098 20.1131C2.8691 22.6854 2.8691 25.3333 3.38098 27.9056C3.42276 28.1168 3.50953 28.3166 3.63538 28.4913C3.76124 28.666 3.92323 28.8116 4.11036 28.9181L9.70348 32.1056L9.72598 38.4093C9.72666 38.6264 9.77446 38.8408 9.86607 39.0376C9.95768 39.2345 10.0909 39.409 10.2566 39.5493C12.2855 41.2655 14.6219 42.5807 17.1416 43.425C17.34 43.4921 17.5503 43.517 17.7589 43.4979C17.9676 43.4789 18.1699 43.4163 18.3529 43.3143L24.0004 40.1531L29.6479 43.3125C29.8714 43.437 30.1233 43.5016 30.3791 43.5C30.5429 43.4999 30.7057 43.4733 30.861 43.4212C33.3785 42.5719 35.7123 41.253 37.7385 39.5343C37.9039 39.3942 38.037 39.22 38.1286 39.0235C38.2202 38.827 38.2682 38.613 38.2691 38.3962L38.2972 32.0868L43.8904 28.8993C44.0775 28.7928 44.2395 28.6472 44.3653 28.4725C44.4912 28.2978 44.578 28.0981 44.6197 27.8868C45.1288 25.3166 45.1269 22.6713 44.6141 20.1018ZM41.8016 26.6475L36.4447 29.6943C36.21 29.8278 36.0157 30.0221 35.8822 30.2568C35.7735 30.4443 35.6591 30.6431 35.5429 30.8306C35.3941 31.067 35.3148 31.3406 35.3141 31.62L35.286 37.6668C33.8461 38.7976 32.242 39.7017 30.5291 40.3481L25.1254 37.3368C24.901 37.2127 24.6486 37.1482 24.3922 37.1493H24.3566C24.1297 37.1493 23.901 37.1493 23.6741 37.1493C23.4058 37.1426 23.1405 37.2073 22.9054 37.3368L17.4979 40.3556C15.7813 39.7142 14.1728 38.8145 12.7279 37.6875L12.7072 31.65C12.7063 31.37 12.6271 31.096 12.4785 30.8587C12.3622 30.6712 12.2479 30.4837 12.141 30.285C12.0085 30.0466 11.8141 29.8484 11.5785 29.7112L6.21598 26.6568C5.93848 24.9015 5.93848 23.1134 6.21598 21.3581L11.5635 18.3056C11.7982 18.1721 11.9925 17.9778 12.126 17.7431C12.2347 17.5556 12.3491 17.3568 12.4654 17.1693C12.6142 16.9329 12.6934 16.6593 12.6941 16.38L12.7222 10.3331C14.1621 9.20236 15.7662 8.29819 17.4791 7.65184L22.8754 10.6631C23.1102 10.7933 23.3757 10.858 23.6441 10.8506C23.871 10.8506 24.0997 10.8506 24.3266 10.8506C24.5949 10.8573 24.8602 10.7926 25.0954 10.6631L30.5029 7.64434C32.2194 8.28573 33.8279 9.18547 35.2729 10.3125L35.2935 16.35C35.2944 16.6299 35.3736 16.904 35.5222 17.1412C35.6385 17.3287 35.7529 17.5162 35.8597 17.715C35.9922 17.9533 36.1866 18.1515 36.4222 18.2887L41.7847 21.3431C42.0659 23.0998 42.0691 24.8898 41.7941 26.6475H41.8016Z" fill="#7BD4CF"/>
</svg>
