<svg width="25" height="24" viewBox="0 0 25 24" fill="none" xmlns="http://www.w3.org/2000/svg">
<g id="YouTube">
<path id="Shape" d="M22.6124 6.90598C22.3691 6.03861 21.6568 5.35471 20.7532 5.12119C19.1026 4.6875 12.5 4.6875 12.5 4.6875C12.5 4.6875 5.89733 4.6875 4.24667 5.10451C3.36053 5.33803 2.63076 6.03861 2.38751 6.90598C1.95312 8.49061 1.95312 11.7766 1.95312 11.7766C1.95312 11.7766 1.95312 15.0793 2.38751 16.6473C2.63076 17.5147 3.34315 18.1986 4.24667 18.4321C5.9147 18.8658 12.5 18.8658 12.5 18.8658C12.5 18.8658 19.1026 18.8658 20.7532 18.4488C21.6568 18.2152 22.3691 17.5314 22.6124 16.664C23.0468 15.0793 23.0468 11.7933 23.0468 11.7933C23.0468 11.7933 23.0642 8.49061 22.6124 6.90598Z" fill="#FF0000"/>
<path id="Vector" d="M10.3975 14.6966L15.8881 11.6608L10.3975 8.625V14.6966Z" fill="white"/>
</g>
</svg>
