<svg width="24" height="24" viewBox="0 0 24 24" fill="none" xmlns="http://www.w3.org/2000/svg">
<g id="LinkedIn">
<path id="Shape" d="M3.5 4.70666C3.5 4.04024 4.04024 3.5 4.70666 3.5H19.2933C19.9598 3.5 20.5 4.04024 20.5 4.70666V19.2933C20.5 19.9597 19.9598 20.5 19.2933 20.5H4.70667C4.04024 20.5 3.5 19.9597 3.5 19.2933V4.70666Z" fill="#0A66C2"/>
<g id="Vector">
<path d="M7.31557 8.77957C8.13005 8.77957 8.79031 8.1193 8.79031 7.30482C8.79031 6.49034 8.13005 5.83008 7.31557 5.83008C6.50109 5.83008 5.84082 6.49034 5.84082 7.30482C5.84082 8.1193 6.50109 8.77957 7.31557 8.77957Z" fill="white"/>
<path d="M10.1409 9.86945H12.5851V10.9891C12.5851 10.9891 13.2483 9.66262 15.0529 9.66262C16.6627 9.66262 17.9962 10.4556 17.9962 12.8728V17.97H15.4634V13.4905C15.4634 12.0646 14.7022 11.9077 14.1221 11.9077C12.9182 11.9077 12.7121 12.9461 12.7121 13.6765V17.97H10.1409V9.86945Z" fill="white"/>
<path d="M6.02999 9.86946H8.60114V17.97H6.02999V9.86946Z" fill="white"/>
</g>
</g>
</svg>
