<svg width="109" height="16" viewBox="0 0 109 16" fill="none" xmlns="http://www.w3.org/2000/svg">
<path d="M3.88281 9.82031L6.14844 0.625H7.375L7.45312 2.5625L5.03125 12H3.73438L3.88281 9.82031ZM2.45312 0.625L4.3125 9.78906V12H2.89844L0.320312 0.625H2.45312ZM9.80469 9.75L11.6328 0.625H13.7734L11.1953 12H9.78125L9.80469 9.75ZM7.96094 0.625L10.2266 9.85156L10.3594 12H9.0625L6.64844 2.55469L6.74219 0.625H7.96094ZM17 0V12H14.9297V0H17ZM16.6719 7.46875H16.0625C16.0625 6.88021 16.1406 6.33854 16.2969 5.84375C16.4531 5.34896 16.6745 4.91927 16.9609 4.55469C17.2474 4.1849 17.5885 3.89844 17.9844 3.69531C18.3854 3.49219 18.8281 3.39062 19.3125 3.39062C19.7292 3.39062 20.1068 3.45052 20.4453 3.57031C20.7891 3.6849 21.0833 3.86979 21.3281 4.125C21.5729 4.38021 21.7604 4.71354 21.8906 5.125C22.026 5.53125 22.0938 6.02604 22.0938 6.60938V12H20.0156V6.59375C20.0156 6.20312 19.9583 5.89583 19.8438 5.67188C19.7292 5.44271 19.5651 5.27865 19.3516 5.17969C19.1432 5.08073 18.8854 5.03125 18.5781 5.03125C18.2448 5.03125 17.9583 5.09635 17.7188 5.22656C17.4792 5.35156 17.2812 5.52604 17.125 5.75C16.974 5.97396 16.8594 6.23177 16.7812 6.52344C16.7083 6.8151 16.6719 7.13021 16.6719 7.46875ZM26.1016 3.54688V12H24.0312V3.54688H26.1016ZM23.8906 1.33594C23.8906 1.02865 23.9948 0.773438 24.2031 0.570312C24.4167 0.367188 24.7031 0.265625 25.0625 0.265625C25.4219 0.265625 25.7057 0.367188 25.9141 0.570312C26.1276 0.773438 26.2344 1.02865 26.2344 1.33594C26.2344 1.63802 26.1276 1.89062 25.9141 2.09375C25.7057 2.29688 25.4219 2.39844 25.0625 2.39844C24.7031 2.39844 24.4167 2.29688 24.2031 2.09375C23.9948 1.89062 23.8906 1.63802 23.8906 1.33594ZM34.6953 10.375V12H28.3359V10.375H34.6953ZM34.5469 4.78125L29.1094 12H27.75V10.7266L33.1562 3.54688H34.5469V4.78125ZM33.7891 3.54688V5.17969H27.8594V3.54688H33.7891ZM42.7891 10.375V12H36.4297V10.375H42.7891ZM42.6406 4.78125L37.2031 12H35.8438V10.7266L41.25 3.54688H42.6406V4.78125ZM41.8828 3.54688V5.17969H35.9531V3.54688H41.8828ZM54.3516 9.04688C54.3516 8.82812 54.3177 8.63281 54.25 8.46094C54.1875 8.28385 54.0703 8.125 53.8984 7.98438C53.7318 7.83854 53.4948 7.69792 53.1875 7.5625C52.8854 7.42188 52.4948 7.27604 52.0156 7.125C51.4844 6.95833 50.9896 6.77083 50.5312 6.5625C50.0729 6.35417 49.6693 6.11198 49.3203 5.83594C48.9766 5.5599 48.7083 5.24219 48.5156 4.88281C48.3229 4.51823 48.2266 4.09635 48.2266 3.61719C48.2266 3.14844 48.3255 2.72135 48.5234 2.33594C48.7266 1.95052 49.013 1.61979 49.3828 1.34375C49.7526 1.0625 50.1875 0.846354 50.6875 0.695312C51.1927 0.544271 51.75 0.46875 52.3594 0.46875C53.2031 0.46875 53.9323 0.622396 54.5469 0.929688C55.1667 1.23698 55.6458 1.65365 55.9844 2.17969C56.3229 2.70573 56.4922 3.29688 56.4922 3.95312H54.3516C54.3516 3.59896 54.276 3.28646 54.125 3.01562C53.9792 2.74479 53.7552 2.53125 53.4531 2.375C53.1562 2.21875 52.7812 2.14062 52.3281 2.14062C51.8906 2.14062 51.526 2.20573 51.2344 2.33594C50.9479 2.46615 50.7318 2.64323 50.5859 2.86719C50.4453 3.09115 50.375 3.34115 50.375 3.61719C50.375 3.82552 50.4245 4.01302 50.5234 4.17969C50.6224 4.34115 50.7708 4.49479 50.9688 4.64062C51.1667 4.78125 51.4115 4.91406 51.7031 5.03906C52 5.15885 52.3438 5.27865 52.7344 5.39844C53.3594 5.58594 53.9062 5.79427 54.375 6.02344C54.849 6.2526 55.2422 6.51302 55.5547 6.80469C55.8724 7.09635 56.1094 7.42448 56.2656 7.78906C56.4271 8.15365 56.5078 8.56771 56.5078 9.03125C56.5078 9.52083 56.4115 9.95833 56.2188 10.3438C56.026 10.7292 55.75 11.0573 55.3906 11.3281C55.0312 11.599 54.599 11.8047 54.0938 11.9453C53.5938 12.0859 53.0339 12.1562 52.4141 12.1562C51.862 12.1562 51.3151 12.0833 50.7734 11.9375C50.237 11.7865 49.75 11.5625 49.3125 11.2656C48.875 10.9635 48.526 10.5833 48.2656 10.125C48.0052 9.66146 47.875 9.11979 47.875 8.5H50.0312C50.0312 8.85938 50.0885 9.16667 50.2031 9.42188C50.3229 9.67188 50.4896 9.8776 50.7031 10.0391C50.9219 10.1953 51.1771 10.3099 51.4688 10.3828C51.7604 10.4557 52.0755 10.4922 52.4141 10.4922C52.8516 10.4922 53.2109 10.4323 53.4922 10.3125C53.7786 10.1875 53.9922 10.0156 54.1328 9.79688C54.2786 9.57812 54.3516 9.32812 54.3516 9.04688ZM60.4844 11.0625L62.75 3.54688H64.9609L61.5703 13.2812C61.4922 13.4896 61.3906 13.7161 61.2656 13.9609C61.1458 14.2057 60.9844 14.4375 60.7812 14.6562C60.5781 14.8802 60.3229 15.0625 60.0156 15.2031C59.7135 15.3438 59.3464 15.4141 58.9141 15.4141C58.7266 15.4141 58.5599 15.401 58.4141 15.375C58.2682 15.349 58.1146 15.3151 57.9531 15.2734V13.7266C58.0052 13.7318 58.0651 13.7344 58.1328 13.7344C58.2057 13.7396 58.2682 13.7422 58.3203 13.7422C58.6224 13.7422 58.8724 13.7057 59.0703 13.6328C59.2682 13.5651 59.4271 13.4531 59.5469 13.2969C59.6719 13.1458 59.776 12.9479 59.8594 12.7031L60.4844 11.0625ZM59.3672 3.54688L61.2812 9.77344L61.6172 11.9531L60.1953 12.2109L57.1406 3.54688H59.3672ZM70.6094 9.6875C70.6094 9.51042 70.5625 9.35156 70.4688 9.21094C70.375 9.07031 70.1979 8.94271 69.9375 8.82812C69.6823 8.70833 69.3073 8.59635 68.8125 8.49219C68.375 8.39844 67.9714 8.28125 67.6016 8.14062C67.2318 8 66.9141 7.83073 66.6484 7.63281C66.3828 7.42969 66.1745 7.19271 66.0234 6.92188C65.8776 6.64583 65.8047 6.32812 65.8047 5.96875C65.8047 5.61979 65.8802 5.29167 66.0312 4.98438C66.1823 4.67188 66.401 4.39844 66.6875 4.16406C66.974 3.92448 67.3229 3.73698 67.7344 3.60156C68.1458 3.46094 68.6094 3.39062 69.125 3.39062C69.8438 3.39062 70.4609 3.50781 70.9766 3.74219C71.4974 3.97656 71.8958 4.29948 72.1719 4.71094C72.4479 5.11719 72.5859 5.57552 72.5859 6.08594H70.5234C70.5234 5.86198 70.4714 5.65885 70.3672 5.47656C70.2682 5.29427 70.1146 5.14844 69.9062 5.03906C69.6979 4.92448 69.4349 4.86719 69.1172 4.86719C68.8307 4.86719 68.5885 4.91406 68.3906 5.00781C68.1979 5.10156 68.0521 5.22396 67.9531 5.375C67.8542 5.52604 67.8047 5.69271 67.8047 5.875C67.8047 6.01042 67.8307 6.13281 67.8828 6.24219C67.9401 6.34635 68.0312 6.44271 68.1562 6.53125C68.2812 6.61979 68.4505 6.70052 68.6641 6.77344C68.8828 6.84635 69.151 6.91667 69.4688 6.98438C70.099 7.10938 70.6484 7.27604 71.1172 7.48438C71.5911 7.6875 71.9609 7.95833 72.2266 8.29688C72.4922 8.63542 72.625 9.06771 72.625 9.59375C72.625 9.96875 72.5443 10.3125 72.3828 10.625C72.2214 10.9323 71.987 11.2005 71.6797 11.4297C71.3724 11.6589 71.0052 11.8385 70.5781 11.9688C70.151 12.0938 69.6693 12.1562 69.1328 12.1562C68.3568 12.1562 67.7005 12.0182 67.1641 11.7422C66.6276 11.4609 66.2214 11.1068 65.9453 10.6797C65.6693 10.2474 65.5312 9.79948 65.5312 9.33594H67.5078C67.5234 9.66406 67.612 9.92708 67.7734 10.125C67.9349 10.3229 68.138 10.4661 68.3828 10.5547C68.6328 10.638 68.8958 10.6797 69.1719 10.6797C69.4844 10.6797 69.7474 10.638 69.9609 10.5547C70.1745 10.4661 70.3359 10.349 70.4453 10.2031C70.5547 10.0521 70.6094 9.88021 70.6094 9.6875ZM78.1953 3.54688V5.03125H73.3516V3.54688H78.1953ZM74.6484 1.46875H76.7188V9.5625C76.7188 9.8125 76.7526 10.0052 76.8203 10.1406C76.888 10.276 76.9896 10.3672 77.125 10.4141C77.2604 10.4609 77.4219 10.4844 77.6094 10.4844C77.7448 10.4844 77.8698 10.4766 77.9844 10.4609C78.099 10.4453 78.1953 10.4297 78.2734 10.4141L78.2812 11.9609C78.1094 12.0182 77.9141 12.0651 77.6953 12.1016C77.4818 12.138 77.2396 12.1562 76.9688 12.1562C76.5052 12.1562 76.099 12.0781 75.75 11.9219C75.401 11.7604 75.1302 11.5026 74.9375 11.1484C74.7448 10.7891 74.6484 10.3151 74.6484 9.72656V1.46875ZM83.3672 12.1562C82.7266 12.1562 82.151 12.0521 81.6406 11.8438C81.1302 11.6354 80.6953 11.3464 80.3359 10.9766C79.9818 10.6016 79.7083 10.1667 79.5156 9.67188C79.3281 9.17188 79.2344 8.63542 79.2344 8.0625V7.75C79.2344 7.09896 79.3281 6.50781 79.5156 5.97656C79.7031 5.4401 79.9688 4.97917 80.3125 4.59375C80.6562 4.20833 81.0677 3.91146 81.5469 3.70312C82.026 3.49479 82.5547 3.39062 83.1328 3.39062C83.7318 3.39062 84.2604 3.49219 84.7188 3.69531C85.1771 3.89323 85.5599 4.17448 85.8672 4.53906C86.1745 4.90365 86.4062 5.34115 86.5625 5.85156C86.7188 6.35677 86.7969 6.91667 86.7969 7.53125V8.39844H80.1719V6.97656H84.7656V6.82031C84.7552 6.49219 84.6927 6.19271 84.5781 5.92188C84.4635 5.64583 84.2865 5.42708 84.0469 5.26562C83.8073 5.09896 83.4974 5.01562 83.1172 5.01562C82.8099 5.01562 82.5417 5.08333 82.3125 5.21875C82.0885 5.34896 81.901 5.53646 81.75 5.78125C81.6042 6.02083 81.4948 6.30729 81.4219 6.64062C81.349 6.97396 81.3125 7.34375 81.3125 7.75V8.0625C81.3125 8.41667 81.3594 8.74479 81.4531 9.04688C81.5521 9.34896 81.6953 9.61198 81.8828 9.83594C82.0755 10.0547 82.3047 10.2266 82.5703 10.3516C82.8411 10.4714 83.1484 10.5312 83.4922 10.5312C83.9245 10.5312 84.3151 10.4479 84.6641 10.2812C85.0182 10.1094 85.3255 9.85677 85.5859 9.52344L86.625 10.6016C86.4479 10.862 86.2083 11.112 85.9062 11.3516C85.6094 11.5911 85.25 11.7865 84.8281 11.9375C84.4062 12.0833 83.9193 12.1562 83.3672 12.1562ZM90.2344 5.28125V12H88.1719V3.54688H90.1172L90.2344 5.28125ZM89.9297 7.46875H89.2969C89.2969 6.88021 89.3672 6.33854 89.5078 5.84375C89.6536 5.34896 89.8672 4.91927 90.1484 4.55469C90.4297 4.1849 90.776 3.89844 91.1875 3.69531C91.6042 3.49219 92.0859 3.39062 92.6328 3.39062C93.013 3.39062 93.362 3.44792 93.6797 3.5625C93.9974 3.67188 94.2708 3.84635 94.5 4.08594C94.7344 4.32031 94.9141 4.6276 95.0391 5.00781C95.1641 5.38281 95.2266 5.83333 95.2266 6.35938V12H93.1641V6.57031C93.1641 6.17448 93.1068 5.86458 92.9922 5.64062C92.8828 5.41667 92.724 5.26042 92.5156 5.17188C92.3073 5.07812 92.0573 5.03125 91.7656 5.03125C91.4427 5.03125 91.1641 5.09635 90.9297 5.22656C90.7005 5.35156 90.5104 5.52604 90.3594 5.75C90.2135 5.97396 90.1042 6.23177 90.0312 6.52344C89.9635 6.8151 89.9297 7.13021 89.9297 7.46875ZM95.0703 7.08594L94.2188 7.24219C94.224 6.71094 94.2969 6.21354 94.4375 5.75C94.5781 5.28125 94.7839 4.8724 95.0547 4.52344C95.3307 4.16927 95.6719 3.89323 96.0781 3.69531C96.4896 3.49219 96.9635 3.39062 97.5 3.39062C97.9167 3.39062 98.2917 3.45052 98.625 3.57031C98.9635 3.6849 99.2526 3.86979 99.4922 4.125C99.7318 4.375 99.9141 4.70052 100.039 5.10156C100.169 5.5026 100.234 5.99219 100.234 6.57031V12H98.1562V6.5625C98.1562 6.15104 98.099 5.83594 97.9844 5.61719C97.875 5.39844 97.7161 5.2474 97.5078 5.16406C97.2995 5.07552 97.0547 5.03125 96.7734 5.03125C96.487 5.03125 96.237 5.08594 96.0234 5.19531C95.8151 5.29948 95.638 5.44531 95.4922 5.63281C95.3516 5.82031 95.2448 6.03906 95.1719 6.28906C95.1042 6.53385 95.0703 6.79948 95.0703 7.08594ZM106.734 9.6875C106.734 9.51042 106.688 9.35156 106.594 9.21094C106.5 9.07031 106.323 8.94271 106.062 8.82812C105.807 8.70833 105.432 8.59635 104.938 8.49219C104.5 8.39844 104.096 8.28125 103.727 8.14062C103.357 8 103.039 7.83073 102.773 7.63281C102.508 7.42969 102.299 7.19271 102.148 6.92188C102.003 6.64583 101.93 6.32812 101.93 5.96875C101.93 5.61979 102.005 5.29167 102.156 4.98438C102.307 4.67188 102.526 4.39844 102.812 4.16406C103.099 3.92448 103.448 3.73698 103.859 3.60156C104.271 3.46094 104.734 3.39062 105.25 3.39062C105.969 3.39062 106.586 3.50781 107.102 3.74219C107.622 3.97656 108.021 4.29948 108.297 4.71094C108.573 5.11719 108.711 5.57552 108.711 6.08594H106.648C106.648 5.86198 106.596 5.65885 106.492 5.47656C106.393 5.29427 106.24 5.14844 106.031 5.03906C105.823 4.92448 105.56 4.86719 105.242 4.86719C104.956 4.86719 104.714 4.91406 104.516 5.00781C104.323 5.10156 104.177 5.22396 104.078 5.375C103.979 5.52604 103.93 5.69271 103.93 5.875C103.93 6.01042 103.956 6.13281 104.008 6.24219C104.065 6.34635 104.156 6.44271 104.281 6.53125C104.406 6.61979 104.576 6.70052 104.789 6.77344C105.008 6.84635 105.276 6.91667 105.594 6.98438C106.224 7.10938 106.773 7.27604 107.242 7.48438C107.716 7.6875 108.086 7.95833 108.352 8.29688C108.617 8.63542 108.75 9.06771 108.75 9.59375C108.75 9.96875 108.669 10.3125 108.508 10.625C108.346 10.9323 108.112 11.2005 107.805 11.4297C107.497 11.6589 107.13 11.8385 106.703 11.9688C106.276 12.0938 105.794 12.1562 105.258 12.1562C104.482 12.1562 103.826 12.0182 103.289 11.7422C102.753 11.4609 102.346 11.1068 102.07 10.6797C101.794 10.2474 101.656 9.79948 101.656 9.33594H103.633C103.648 9.66406 103.737 9.92708 103.898 10.125C104.06 10.3229 104.263 10.4661 104.508 10.5547C104.758 10.638 105.021 10.6797 105.297 10.6797C105.609 10.6797 105.872 10.638 106.086 10.5547C106.299 10.4661 106.461 10.349 106.57 10.2031C106.68 10.0521 106.734 9.88021 106.734 9.6875Z" fill="white"/>
</svg>
