<svg width="48" height="48" viewBox="0 0 48 48" fill="none" xmlns="http://www.w3.org/2000/svg">
<path fill-rule="evenodd" clip-rule="evenodd" d="M23.3004 2.00001C23.8921 1.99872 24.478 2.11437 25.025 2.33985C25.5721 2.56541 26.07 2.89647 26.4889 3.31446C26.9077 3.73239 27.2397 4.22891 27.4664 4.7754C27.6932 5.32202 27.8102 5.90822 27.8102 6.50001C27.8121 7.39222 27.5495 8.26498 27.0553 9.00782C26.5609 9.7508 25.8567 10.331 25.0328 10.6738C24.9564 10.7056 24.8782 10.7323 24.8004 10.7598V20.1631C25.074 20.2291 25.3427 20.3161 25.6041 20.4238C26.2713 20.6989 26.8774 21.1035 27.3883 21.6133C27.6961 21.9205 27.9649 22.2627 28.191 22.6318L37.0943 19.9609C37.0682 19.3109 37.1821 18.6599 37.4332 18.0537C37.7745 17.2298 38.3529 16.5258 39.0943 16.0303C39.836 15.5347 40.7082 15.2695 41.6002 15.2695C42.7963 15.2695 43.9439 15.745 44.7897 16.5908C45.6352 17.4365 46.1098 18.5835 46.11 19.7793C46.11 20.6712 45.8457 21.5435 45.3502 22.2852C44.8546 23.0268 44.1499 23.6049 43.3258 23.9463C42.5018 24.2876 41.5951 24.3771 40.7203 24.2031C39.8455 24.0291 39.0415 23.5995 38.4108 22.9688C38.3613 22.9193 38.3151 22.867 38.2682 22.8154L28.9986 25.5869C28.9838 26.644 28.666 27.6754 28.0797 28.5567C28.0561 28.5921 28.0308 28.6264 28.0065 28.6611L33.441 35.6963C33.9436 35.5084 34.478 35.4102 35.0201 35.4102C35.6119 35.4089 36.1986 35.5235 36.7457 35.749C37.2928 35.9746 37.7897 36.3067 38.2086 36.7246C38.6275 37.1426 38.9604 37.639 39.1871 38.1856C39.4138 38.7321 39.5299 39.3185 39.5299 39.9102C39.5318 40.8024 39.2693 41.6751 38.775 42.418C38.2807 43.1609 37.5773 43.7411 36.7535 44.084C35.9296 44.4269 35.0216 44.5176 34.1461 44.3447C33.2707 44.1718 32.4662 43.7426 31.8346 43.1123C31.203 42.4821 30.7721 41.6787 30.5973 40.8037C30.4225 39.9287 30.5112 39.0209 30.8522 38.1963C30.9332 38.0003 31.0285 37.8112 31.1354 37.6299L25.6881 30.5547C25.6632 30.5655 25.6389 30.5775 25.6139 30.5879C24.6092 31.006 23.5028 31.116 22.4352 30.9053C22.1363 30.8463 21.8447 30.7608 21.5621 30.6543L16.6168 38.0518C17.1359 38.8011 17.4205 39.6959 17.4205 40.6201C17.4205 41.512 17.1552 42.3835 16.6598 43.125C16.1643 43.8666 15.4603 44.4448 14.6363 44.7861C13.8122 45.1275 12.9048 45.217 12.0299 45.043C11.1552 44.8689 10.3519 44.4392 9.7213 43.8086C9.09069 43.178 8.66099 42.3747 8.48693 41.5C8.31291 40.6252 8.40241 39.7177 8.74376 38.8936C9.08513 38.0696 9.66334 37.3656 10.4049 36.8701C11.1464 36.3747 12.018 36.1095 12.9098 36.1094C13.3453 36.1094 13.7748 36.173 14.1852 36.294L19.151 28.8721C18.6338 28.2031 18.2739 27.4224 18.107 26.5869C18.0237 26.1699 17.9904 25.7469 18.0045 25.3262L9.12951 22.4649C8.64387 23.1195 7.99154 23.6333 7.23595 23.9463C6.41191 24.2876 5.50528 24.3771 4.63048 24.2031C3.75563 24.0291 2.95165 23.5995 2.32091 22.9688C1.69028 22.3381 1.26054 21.534 1.08654 20.6592C0.912651 19.7845 1.00209 18.8777 1.34337 18.0537C1.68469 17.2298 2.263 16.5258 3.00451 16.0303C3.74617 15.5347 4.61837 15.2695 5.51037 15.2695C6.70636 15.2696 7.8531 15.7452 8.69884 16.5908C9.50875 17.4007 9.97683 18.487 10.0152 19.6279L18.8932 22.5117C19.2972 21.8909 19.8215 21.3531 20.443 20.9375C20.8621 20.6573 21.3166 20.4403 21.7906 20.2852V10.7588C21.1632 10.5359 20.5901 10.1763 20.1149 9.70216C19.4832 9.07188 19.0524 8.2686 18.8776 7.39357C18.7027 6.51844 18.7914 5.61082 19.1324 4.78614C19.4735 3.9615 20.0517 3.25676 20.7936 2.76075C21.5354 2.26474 22.408 2.00001 23.3004 2.00001ZM12.9098 39.1094C12.5103 39.1121 12.1278 39.2723 11.8453 39.5547C11.5627 39.8373 11.4026 40.2205 11.4 40.6201C11.4001 40.9187 11.489 41.2108 11.6549 41.459C11.8208 41.7072 12.0568 41.9004 12.3326 42.0147C12.6085 42.1289 12.9119 42.1588 13.2047 42.1006C13.4976 42.0423 13.767 41.8987 13.9781 41.6875C14.1893 41.4763 14.333 41.2069 14.3912 40.9141C14.4494 40.6213 14.4195 40.3178 14.3053 40.042C14.191 39.7661 13.997 39.5302 13.7486 39.3643C13.5004 39.1985 13.2083 39.1094 12.9098 39.1094ZM35.0201 38.4102C34.6214 38.4102 34.2385 38.5676 33.9557 38.8486C33.6729 39.1296 33.513 39.5115 33.5104 39.9102C33.5085 40.2089 33.595 40.5016 33.7594 40.751C33.924 41.0005 34.1596 41.1957 34.4352 41.3115C34.7108 41.4273 35.0148 41.4594 35.3082 41.4024C35.6018 41.3452 35.8724 41.202 36.0846 40.9912C36.2967 40.7805 36.4415 40.511 36.5006 40.2178C36.5596 39.9249 36.5304 39.621 36.4166 39.3447C36.3026 39.0682 36.1085 38.8314 35.86 38.6651C35.6115 38.4987 35.3192 38.4102 35.0201 38.4102ZM23.5006 23.668C23.0145 23.668 22.5477 23.8606 22.2027 24.2031C21.8578 24.5458 21.662 25.0118 21.6588 25.4981C21.6565 25.8626 21.7627 26.2201 21.9635 26.5244C22.1643 26.8286 22.4507 27.0668 22.7867 27.208C23.123 27.3493 23.4942 27.3871 23.8522 27.3174C24.2099 27.2477 24.5388 27.0732 24.7975 26.8164C25.0561 26.5595 25.2332 26.2314 25.3053 25.874C25.3773 25.5165 25.3418 25.1448 25.2027 24.8076C25.0638 24.4706 24.8279 24.1823 24.525 23.9795C24.222 23.7767 23.8652 23.6681 23.5006 23.668ZM5.51037 18.2695C5.1107 18.2722 4.72755 18.4322 4.44494 18.7149C4.16254 18.9973 4.00334 19.3799 4.0006 19.7793C4.0006 20.078 4.08859 20.3708 4.25451 20.6192C4.42039 20.8673 4.65647 21.0606 4.93224 21.1748C5.20816 21.2891 5.51238 21.319 5.80529 21.2608C6.09794 21.2025 6.36671 21.0586 6.57775 20.8477C6.78893 20.6365 6.93257 20.3671 6.99083 20.0742C7.04908 19.7814 7.01916 19.478 6.9049 19.2022C6.79063 18.9263 6.59749 18.6903 6.34923 18.5244C6.10095 18.3585 5.80897 18.2696 5.51037 18.2695ZM41.6002 18.2695C41.2007 18.2722 40.8183 18.4324 40.5358 18.7149C40.2533 18.9974 40.0932 19.3798 40.0904 19.7793C40.0904 20.078 40.1784 20.3708 40.3443 20.6192C40.5102 20.8673 40.7463 21.0605 41.0221 21.1748C41.298 21.2891 41.6022 21.319 41.8951 21.2608C42.1878 21.2025 42.4565 21.0586 42.6676 20.8477C42.8788 20.6365 43.0234 20.3671 43.0817 20.0742C43.1398 19.7815 43.1099 19.4779 42.9957 19.2022C42.8814 18.9263 42.6874 18.6903 42.4391 18.5244C42.1908 18.3585 41.8989 18.2695 41.6002 18.2695ZM23.3004 5.00001C22.9017 5 22.5188 5.15747 22.236 5.43849C21.9531 5.71951 21.7933 6.10128 21.7906 6.50001C21.7887 6.799 21.875 7.09224 22.0397 7.34181C22.2044 7.59135 22.4398 7.78656 22.7154 7.90235C22.9911 8.0181 23.295 8.04927 23.5885 7.9922C23.8821 7.93507 24.1527 7.79184 24.3649 7.58107C24.5769 7.37033 24.7218 7.1007 24.7809 6.80763C24.8398 6.51466 24.8098 6.21088 24.6959 5.93458C24.5819 5.65808 24.3888 5.42126 24.1402 5.25489C23.8918 5.08856 23.5994 5.00005 23.3004 5.00001Z" fill="#2C353A"/>
</svg>
