<svg width="48" height="48" viewBox="0 0 48 48" fill="none" xmlns="http://www.w3.org/2000/svg">
<path d="M26.9999 19.5001V12.0001C26.9999 11.6023 27.1579 11.2207 27.4392 10.9394C27.7205 10.6581 28.102 10.5001 28.4999 10.5001C28.8977 10.5001 29.2792 10.6581 29.5605 10.9394C29.8418 11.2207 29.9999 11.6023 29.9999 12.0001V15.8795L37.9386 7.93885C38.2201 7.65739 38.6018 7.49927 38.9999 7.49927C39.3979 7.49927 39.7796 7.65739 40.0611 7.93885C40.3426 8.22031 40.5007 8.60206 40.5007 9.0001C40.5007 9.39815 40.3426 9.77989 40.0611 10.0614L32.1205 18.0001H35.9999C36.3977 18.0001 36.7792 18.1581 37.0605 18.4394C37.3418 18.7207 37.4999 19.1023 37.4999 19.5001C37.4999 19.8979 37.3418 20.2795 37.0605 20.5608C36.7792 20.8421 36.3977 21.0001 35.9999 21.0001H28.4999C28.102 21.0001 27.7205 20.8421 27.4392 20.5608C27.1579 20.2795 26.9999 19.8979 26.9999 19.5001ZM19.4999 27.0001H11.9999C11.602 27.0001 11.2205 27.1581 10.9392 27.4394C10.6579 27.7207 10.4999 28.1023 10.4999 28.5001C10.4999 28.8979 10.6579 29.2795 10.9392 29.5608C11.2205 29.8421 11.602 30.0001 11.9999 30.0001H15.8792L7.93861 37.9389C7.65715 38.2203 7.49902 38.6021 7.49902 39.0001C7.49902 39.3981 7.65715 39.7799 7.93861 40.0614C8.22007 40.3428 8.60181 40.5009 8.99986 40.5009C9.3979 40.5009 9.77965 40.3428 10.0611 40.0614L17.9999 32.1207V36.0001C17.9999 36.3979 18.1579 36.7795 18.4392 37.0608C18.7205 37.3421 19.102 37.5001 19.4999 37.5001C19.8977 37.5001 20.2792 37.3421 20.5605 37.0608C20.8418 36.7795 20.9999 36.3979 20.9999 36.0001V28.5001C20.9999 28.1023 20.8418 27.7207 20.5605 27.4394C20.2792 27.1581 19.8977 27.0001 19.4999 27.0001ZM32.1205 30.0001H35.9999C36.3977 30.0001 36.7792 29.8421 37.0605 29.5608C37.3418 29.2795 37.4999 28.8979 37.4999 28.5001C37.4999 28.1023 37.3418 27.7207 37.0605 27.4394C36.7792 27.1581 36.3977 27.0001 35.9999 27.0001H28.4999C28.102 27.0001 27.7205 27.1581 27.4392 27.4394C27.1579 27.7207 26.9999 28.1023 26.9999 28.5001V36.0001C26.9999 36.3979 27.1579 36.7795 27.4392 37.0608C27.7205 37.3421 28.102 37.5001 28.4999 37.5001C28.8977 37.5001 29.2792 37.3421 29.5605 37.0608C29.8418 36.7795 29.9999 36.3979 29.9999 36.0001V32.1207L37.9386 40.0614C38.078 40.2007 38.2434 40.3113 38.4255 40.3867C38.6076 40.4621 38.8028 40.5009 38.9999 40.5009C39.197 40.5009 39.3921 40.4621 39.5742 40.3867C39.7563 40.3113 39.9217 40.2007 40.0611 40.0614C40.2005 39.922 40.311 39.7565 40.3864 39.5744C40.4619 39.3924 40.5007 39.1972 40.5007 39.0001C40.5007 38.803 40.4619 38.6078 40.3864 38.4258C40.311 38.2437 40.2005 38.0782 40.0611 37.9389L32.1205 30.0001ZM19.4999 10.5001C19.102 10.5001 18.7205 10.6581 18.4392 10.9394C18.1579 11.2207 17.9999 11.6023 17.9999 12.0001V15.8795L10.0611 7.93885C9.77965 7.65739 9.3979 7.49927 8.99986 7.49927C8.60181 7.49927 8.22007 7.65739 7.93861 7.93885C7.65715 8.22031 7.49902 8.60206 7.49902 9.0001C7.49902 9.39815 7.65715 9.77989 7.93861 10.0614L15.8792 18.0001H11.9999C11.602 18.0001 11.2205 18.1581 10.9392 18.4394C10.6579 18.7207 10.4999 19.1023 10.4999 19.5001C10.4999 19.8979 10.6579 20.2795 10.9392 20.5608C11.2205 20.8421 11.602 21.0001 11.9999 21.0001H19.4999C19.8977 21.0001 20.2792 20.8421 20.5605 20.5608C20.8418 20.2795 20.9999 19.8979 20.9999 19.5001V12.0001C20.9999 11.6023 20.8418 11.2207 20.5605 10.9394C20.2792 10.6581 19.8977 10.5001 19.4999 10.5001Z" fill="#2C353A"/>
</svg>
