<svg width="16" height="16" viewBox="0 0 16 16" fill="none" xmlns="http://www.w3.org/2000/svg">
<path fill-rule="evenodd" clip-rule="evenodd" d="M2.00039 6.53324C2.00039 4.02954 4.03003 1.9999 6.53372 1.9999C9.03741 1.9999 11.0671 4.02954 11.0671 6.53324C11.0671 9.03693 9.03741 11.0666 6.53372 11.0666C4.03003 11.0666 2.00039 9.03693 2.00039 6.53324ZM6.53372 0.399902C3.14638 0.399902 0.400391 3.14589 0.400391 6.53324C0.400391 9.92058 3.14638 12.6666 6.53372 12.6666C7.84218 12.6666 9.05493 12.2568 10.0507 11.5587L13.7795 15.2875C14.196 15.704 14.8714 15.704 15.288 15.2875C15.7045 14.8709 15.7045 14.1955 15.288 13.779L11.5592 10.0502C12.2573 9.05444 12.6671 7.84169 12.6671 6.53324C12.6671 3.14589 9.92107 0.399902 6.53372 0.399902Z" fill="#D9D9D9"/>
</svg>
