<svg width="56" height="56" viewBox="0 0 56 56" fill="none" xmlns="http://www.w3.org/2000/svg">
<path d="M36.0748 21.2898V22.3559L34.7078 22.5912V32.2226L36.0748 32.4579V33.5149H31.6845V32.4579L33.0525 32.2226V22.5912L31.6845 22.3559V21.2898H36.0748Z" fill="white"/>
<path fill-rule="evenodd" clip-rule="evenodd" d="M29.5168 32.3293L30.416 32.4542V33.5112H26.9057V32.4542L27.8305 32.2965L27.0225 30.0457H22.1279L21.2971 32.2965L22.2191 32.4542V33.5112H18.7198V32.4542L19.6254 32.3293L23.8999 21.2861H25.3198L29.5168 32.3293ZM22.6395 28.6586H26.5182L24.7216 23.6892L24.6221 23.4119H24.572L22.6395 28.6586Z" fill="white"/>
<path fill-rule="evenodd" clip-rule="evenodd" d="M37.4784 15.4877C38.1006 15.4885 38.6973 15.7354 39.1382 16.1745C39.579 16.6138 39.8283 17.2101 39.8313 17.8324V37.4163C39.8312 38.0407 39.5839 38.6399 39.1427 39.0816C38.7015 39.5233 38.1026 39.7713 37.4784 39.772H17.8917C17.2677 39.7712 16.6694 39.523 16.2283 39.0816C15.7871 38.6399 15.5388 38.0407 15.5388 37.4163V17.8324C15.5418 17.2101 15.791 16.6138 16.2319 16.1745C16.6727 15.7353 17.2695 15.4885 17.8917 15.4877H37.4784ZM17.8917 16.5839C17.5612 16.5847 17.2442 16.7165 17.0107 16.9506C16.7772 17.1846 16.646 17.5018 16.646 17.8324V37.4273C16.646 37.7579 16.7773 38.0751 17.0107 38.3092C17.2442 38.5432 17.5611 38.675 17.8917 38.6758H37.4784C37.809 38.675 38.1258 38.5432 38.3593 38.3092C38.5929 38.0751 38.7241 37.7579 38.7241 37.4273V17.8324C38.7241 17.5018 38.5928 17.1846 38.3593 16.9506C38.1258 16.7166 37.8089 16.5847 37.4784 16.5839H17.8917Z" fill="white"/>
<path fill-rule="evenodd" clip-rule="evenodd" d="M32.8811 1C33.2959 1 33.6966 1.15051 34.0092 1.42316C34.3217 1.69577 34.5255 2.07201 34.5819 2.48288C34.6383 2.8938 34.5441 3.31167 34.3165 3.65843C34.0889 4.0052 33.7429 4.25804 33.3434 4.36977V6.8002C33.3439 6.94056 33.3169 7.07999 33.2632 7.20968C33.2095 7.33934 33.1301 7.4573 33.0306 7.55624L30.3649 10.2247C30.3471 10.2413 30.3325 10.2616 30.3229 10.284C30.3135 10.3063 30.3089 10.3309 30.3093 10.3551V12.6168H32.4187V9.9584C32.4188 9.83592 32.468 9.71851 32.5546 9.63191C32.6412 9.54532 32.7585 9.49605 32.8811 9.49602C33.0037 9.49602 33.1217 9.5452 33.2085 9.63191C33.2949 9.71849 33.3433 9.83601 33.3434 9.9584V12.6168H35.2458V9.88088C35.2454 9.73442 35.2737 9.58938 35.3297 9.45407C35.3858 9.31863 35.4683 9.19536 35.5723 9.09201L38.0857 6.57859C37.9743 6.34812 37.9167 6.09496 37.917 5.83897C37.9166 5.4573 38.0432 5.08624 38.2772 4.78472C38.5113 4.48314 38.8394 4.26799 39.2093 4.1737C39.5792 4.07945 39.9703 4.11128 40.3201 4.26398C40.67 4.41681 40.9595 4.68269 41.1418 5.01819C41.3239 5.35359 41.3891 5.74055 41.3269 6.11713C41.2647 6.4937 41.0783 6.83845 40.798 7.09751C40.5175 7.35665 40.1588 7.51482 39.7784 7.54712C39.398 7.57939 39.0177 7.48436 38.6977 7.27626L36.2253 9.7459C36.19 9.78201 36.1698 9.83039 36.1697 9.88088V12.6168H37.8313V10.9333C37.8313 10.7478 38.0362 10.5986 38.2937 10.5986C38.551 10.5987 38.756 10.7479 38.756 10.9333V12.6168H39.8988C40.6729 12.6176 41.4154 12.9255 41.9626 13.4732C42.5096 14.0208 42.8171 14.763 42.8171 15.537V16.8274H44.4313C44.6139 16.8277 44.7633 17.0353 44.7633 17.2898C44.7631 17.5442 44.6138 17.7519 44.4313 17.7522H42.8171V19.4129H45.4828C45.5335 19.4129 45.5825 19.3928 45.6187 19.3573L48.0883 16.8849C47.9062 16.607 47.8095 16.2815 47.8111 15.9492C47.8112 15.61 47.9118 15.2783 48.1002 14.9962C48.2888 14.7139 48.5572 14.4941 48.8708 14.3642C49.1844 14.2343 49.5293 14.2004 49.8621 14.2666C50.1951 14.3328 50.5013 14.4962 50.7413 14.7363C50.9812 14.9762 51.1447 15.2817 51.211 15.6145C51.2772 15.9475 51.2433 16.2931 51.1134 16.6067C50.9835 16.9202 50.7634 17.1879 50.4814 17.3765C50.1991 17.5651 49.8669 17.6665 49.5275 17.6665C49.2716 17.6667 49.0191 17.6082 48.7887 17.4968L46.2744 20.0112C46.1712 20.115 46.0485 20.1977 45.9133 20.2538C45.7778 20.3098 45.6321 20.3381 45.4855 20.3377H42.8198V22.2391H45.408C45.4687 22.2391 45.5289 22.2515 45.585 22.2747C45.641 22.2979 45.6925 22.3321 45.7354 22.375C45.7782 22.4179 45.8126 22.4686 45.8358 22.5246C45.859 22.5806 45.8704 22.6409 45.8704 22.7015C45.8704 22.7621 45.8589 22.8224 45.8358 22.8784C45.8125 22.9345 45.7783 22.986 45.7354 23.0289C45.6925 23.0718 45.641 23.106 45.585 23.1292C45.5289 23.1524 45.4686 23.1639 45.408 23.1639H42.8198V25.2733H45.0095C45.0338 25.2733 45.0583 25.2691 45.0806 25.2596C45.1029 25.2501 45.1231 25.236 45.1399 25.2186L47.8084 22.5519C47.907 22.452 48.0252 22.3731 48.1549 22.3194C48.2847 22.2657 48.424 22.2382 48.5644 22.2391H50.9729C51.0743 21.8772 51.2913 21.5582 51.5913 21.3317C51.8913 21.1052 52.2577 20.9834 52.6337 20.9852L52.6555 20.9824C52.9748 20.9839 53.2878 21.0749 53.5584 21.2442C53.8288 21.4134 54.0468 21.6547 54.1877 21.9409C54.3286 22.2273 54.3873 22.548 54.3564 22.8657C54.3254 23.1832 54.206 23.4856 54.0126 23.7393C53.819 23.9932 53.5584 24.1881 53.2602 24.302C52.9621 24.4159 52.6379 24.4451 52.3245 24.385C52.0111 24.3249 51.7204 24.1779 51.4855 23.9619C51.2507 23.7458 51.0808 23.4684 50.9948 23.1612H48.5644C48.5455 23.1608 48.5263 23.1641 48.5088 23.1712C48.4912 23.1783 48.4747 23.1896 48.4613 23.2031L45.7929 25.8716C45.69 25.9743 45.5679 26.0558 45.4336 26.1114C45.2991 26.167 45.155 26.1954 45.0095 26.1953H42.8198V28.0977H49.1873C49.299 27.6982 49.5519 27.3522 49.8986 27.1246C50.2453 26.8972 50.6625 26.8029 51.0733 26.8592C51.4842 26.9156 51.8612 27.1194 52.1339 27.432C52.4063 27.7445 52.5561 28.1455 52.5561 28.5601C52.556 28.9747 52.4065 29.3757 52.1339 29.6882C51.8613 30.0008 51.4842 30.2036 51.0733 30.26C50.6625 30.3164 50.2453 30.2221 49.8986 29.9946C49.552 29.7671 49.2991 29.4217 49.1873 29.0225H42.8198V30.9239H45.9425C46.0651 30.9239 46.1832 30.9722 46.2699 31.0589C46.3565 31.1456 46.4048 31.2637 46.4048 31.3863C46.4048 31.5087 46.3563 31.6262 46.2699 31.7128C46.1832 31.7995 46.0651 31.8487 45.9425 31.8487H42.8198V33.6088H45.5603C45.6834 33.6089 45.8052 33.6343 45.9187 33.6818C46.0323 33.7293 46.136 33.7984 46.2224 33.8861L48.6529 36.3055C48.9163 36.1479 49.2177 36.0647 49.5247 36.0648C49.9001 36.0648 50.2656 36.1877 50.5644 36.415C50.8631 36.6423 51.0789 36.9616 51.1791 37.3233C51.2792 37.6851 51.2573 38.07 51.1179 38.4186C50.9786 38.7669 50.7292 39.0601 50.4075 39.2531C50.0856 39.4461 49.709 39.5287 49.3359 39.4874C48.963 39.4462 48.6138 39.2836 48.3419 39.0251C48.0699 38.7663 47.8901 38.4253 47.8303 38.0547C47.7705 37.6841 47.834 37.3043 48.0108 36.9731L45.5658 34.5254H42.8171V36.5299H44.4778C44.6273 36.5299 44.7551 36.7376 44.7551 36.9923C44.7551 37.247 44.6384 37.4546 44.4778 37.4546H42.8171V39.824C42.8164 40.5979 42.5086 41.3403 41.9617 41.8878C41.4147 42.4353 40.6726 42.7436 39.8988 42.745H38.756V44.32C38.756 44.5027 38.5482 44.6519 38.2937 44.652C38.039 44.652 37.8313 44.5028 37.8313 44.32V42.745H36.1697V45.3779C36.17 45.4285 36.1901 45.4775 36.2253 45.5138L38.7031 47.9743C38.9811 47.7922 39.3065 47.6964 39.6388 47.698C39.9783 47.698 40.3105 47.7985 40.5928 47.9871C40.8748 48.1756 41.0949 48.4434 41.2248 48.7568C41.3547 49.0705 41.3886 49.4161 41.3224 49.7491C41.2561 50.082 41.0927 50.3882 40.8527 50.6282C40.6127 50.8682 40.3064 51.0317 39.9735 51.0979C39.6407 51.1641 39.2958 51.1293 38.9822 50.9994C38.6686 50.8695 38.4002 50.6496 38.2116 50.3674C38.0231 50.0853 37.9225 49.7536 37.9225 49.4144C37.9222 49.1584 37.9798 48.9052 38.0912 48.6747L35.5778 46.1613C35.4738 46.058 35.3913 45.9347 35.3352 45.7993C35.2792 45.664 35.2508 45.5189 35.2513 45.3725V42.745H33.3489V45.2949C33.3488 45.4174 33.3004 45.5348 33.2139 45.6214C33.1272 45.7081 33.0091 45.7573 32.8865 45.7573C32.764 45.7573 32.6467 45.7081 32.56 45.6214C32.4734 45.5348 32.4242 45.4175 32.4241 45.2949V42.745H30.3038V44.8964C30.3038 44.9206 30.3089 44.9444 30.3184 44.9666C30.3279 44.989 30.3419 45.0091 30.3594 45.0259L33.0251 47.6925C33.1246 47.7914 33.204 47.9086 33.2577 48.0382C33.3114 48.1679 33.3384 48.3073 33.338 48.4477V50.8817C33.7372 50.9934 34.0825 51.2456 34.3101 51.5922C34.5377 51.9389 34.6328 52.3568 34.5764 52.7677C34.52 53.1786 34.3162 53.5548 34.0037 53.8274C33.6911 54.1001 33.2904 54.2506 32.8756 54.2506C32.4608 54.2506 32.0601 54.1001 31.7475 53.8274C31.435 53.5548 31.2311 53.1786 31.1747 52.7677C31.1183 52.3568 31.2134 51.9389 31.441 51.5922C31.6686 51.2456 32.0139 50.9935 32.4132 50.8817V48.4477C32.4134 48.4292 32.4102 48.4109 32.4032 48.3939C32.3961 48.3768 32.3854 48.3611 32.3722 48.3483L29.7028 45.6798C29.6 45.5769 29.5185 45.454 29.4629 45.3196C29.4075 45.1854 29.379 45.0416 29.379 44.8964V42.745H27.4885V49.0842C27.8879 49.1959 28.2331 49.4489 28.4607 49.7956C28.6883 50.1423 28.7825 50.5602 28.7261 50.9711C28.6696 51.3819 28.4667 51.7583 28.1543 52.0308C27.8417 52.3035 27.4409 52.454 27.0261 52.454C26.6113 52.454 26.2106 52.3035 25.898 52.0308C25.5855 51.7582 25.3817 51.382 25.3253 50.9711C25.2689 50.5602 25.3631 50.1423 25.5907 49.7956C25.8183 49.4488 26.1643 49.196 26.5638 49.0842V42.745H24.6614V45.8294C24.6613 45.9518 24.613 46.0692 24.5264 46.1559C24.4398 46.2425 24.3224 46.2916 24.1999 46.2917C24.0773 46.2917 23.9592 46.2426 23.8725 46.1559C23.7859 46.0692 23.7376 45.9518 23.7375 45.8294V42.745H21.9765V45.4445C21.9768 45.5679 21.9519 45.6899 21.9044 45.8038C21.8569 45.9179 21.7872 46.0216 21.6992 46.1084L19.2661 48.5416C19.4238 48.8051 19.5069 49.1072 19.5068 49.4144C19.5067 49.7896 19.3838 50.1545 19.1566 50.4531C18.9293 50.7519 18.6101 50.9677 18.2483 51.0678C17.8865 51.1679 17.5016 51.1469 17.153 51.0076C16.8046 50.8682 16.5115 50.6181 16.3186 50.2963C16.1257 49.9745 16.043 49.5985 16.0842 49.2256C16.1255 48.8525 16.2887 48.5026 16.5475 48.2306C16.8061 47.9589 17.1465 47.7788 17.5169 47.719C17.8875 47.6592 18.2683 47.7228 18.5994 47.8996L21.0463 45.4555V42.745H19.0417V44.3647C19.0415 44.5114 18.8339 44.6411 18.5794 44.6411C18.3249 44.641 18.1172 44.5224 18.117 44.3647V42.745H15.5981C14.8266 42.7436 14.0872 42.4368 13.5407 41.8923C12.9942 41.3479 12.6842 40.6099 12.6797 39.8386V37.4683H10.8886C10.742 37.468 10.6123 37.2604 10.6123 37.0059C10.6123 36.7515 10.731 36.5439 10.8886 36.5436H12.6797V34.539H9.79789L7.35378 36.9868C7.53053 37.3179 7.5941 37.6979 7.53435 38.0684C7.47456 38.439 7.29469 38.78 7.02273 39.0387C6.75085 39.2974 6.40163 39.4598 6.02867 39.5011C5.65555 39.5424 5.27904 39.4598 4.95709 39.2667C4.63516 39.0737 4.38509 38.7808 4.24574 38.4323C4.10639 38.0837 4.08541 37.6988 4.18555 37.337C4.2857 36.9754 4.50167 36.6568 4.80023 36.4296C5.09886 36.2023 5.46373 36.0786 5.83897 36.0785C6.1461 36.0784 6.44821 36.1615 6.71174 36.3192L9.14491 33.8861C9.2317 33.7981 9.33545 33.7284 9.44951 33.6809C9.56353 33.6334 9.68624 33.6085 9.80974 33.6088H12.6797V31.8432H9.42489C9.30227 31.8432 9.18419 31.794 9.09748 31.7073C9.01093 31.6207 8.96255 31.5033 8.96251 31.3808C8.96251 31.2582 9.01078 31.1401 9.09748 31.0534C9.18417 30.9668 9.30233 30.9185 9.42489 30.9185H12.6797V29.0161H6.18006C6.06833 29.4155 5.81548 29.7615 5.46871 29.9892C5.12208 30.2166 4.70484 30.3108 4.29408 30.2545C3.88324 30.1982 3.50607 29.9952 3.23344 29.6827C2.9609 29.3702 2.81039 28.9693 2.81028 28.5546C2.81028 28.1398 2.9608 27.7382 3.23344 27.4256C3.50607 27.1131 3.88324 26.9101 4.29408 26.8538C4.70484 26.7975 5.12208 26.8917 5.46871 27.1192C5.81548 27.3468 6.06833 27.6928 6.18006 28.0922H12.677V26.1898H10.3551C10.2097 26.19 10.0654 26.1614 9.93104 26.1059C9.79661 26.0504 9.67372 25.9689 9.5708 25.8661L6.90234 23.1976C6.88946 23.1843 6.87389 23.1738 6.85675 23.1666C6.83965 23.1595 6.82146 23.1554 6.80294 23.1557H4.36977C4.25804 23.5552 4.0052 23.9011 3.65843 24.1288C3.31167 24.3563 2.8938 24.4505 2.48288 24.3942C2.07201 24.3377 1.69577 24.134 1.42316 23.8214C1.15051 23.5088 1 23.1081 1 22.6933C1.00004 22.2786 1.15055 21.8778 1.42316 21.5652C1.69574 21.2528 2.07212 21.0498 2.48288 20.9934C2.89383 20.937 3.31166 21.0311 3.65843 21.2588C4.00507 21.4864 4.25805 21.8316 4.36977 22.2309H6.80294C6.94331 22.2304 7.08272 22.2584 7.21242 22.3121C7.34199 22.3658 7.46009 22.4443 7.55897 22.5437L10.2247 25.2104C10.2414 25.2277 10.2618 25.241 10.284 25.2505C10.3063 25.26 10.3308 25.2651 10.3551 25.2651H12.677V23.1557H9.95566C9.83327 23.1556 9.71577 23.1072 9.62917 23.0207C9.54247 22.934 9.49328 22.8159 9.49328 22.6933C9.49332 22.5708 9.54257 22.4535 9.62917 22.3668C9.71579 22.2802 9.83317 22.231 9.95566 22.2309H12.677V20.3294H9.87814C9.73168 20.3299 9.58666 20.3007 9.45133 20.2446C9.31596 20.1886 9.19259 20.1069 9.08928 20.003L6.57586 17.4886C6.34539 17.6 6.09222 17.6576 5.83624 17.6573C5.49691 17.6573 5.16537 17.5568 4.88322 17.3682C4.60109 17.1797 4.38115 16.912 4.25121 16.5985C4.1213 16.2849 4.0874 15.9392 4.15363 15.6063C4.21989 15.2735 4.38334 14.968 4.6233 14.7281C4.86331 14.4881 5.16865 14.3237 5.50154 14.2575C5.83449 14.1912 6.18014 14.2261 6.49378 14.356C6.80724 14.4859 7.07497 14.7058 7.26349 14.988C7.45202 15.2701 7.55344 15.6016 7.5535 15.941C7.55514 16.2732 7.45834 16.5988 7.27626 16.8767L9.7459 19.3491C9.78219 19.3842 9.83039 19.4043 9.88088 19.4047H12.6688V17.744H10.9224C10.7397 17.744 10.5905 17.5389 10.5904 17.2816C10.5904 17.0241 10.7396 16.8192 10.9224 16.8192H12.6688V15.5288C12.6695 14.7553 12.9774 14.0138 13.5242 13.4668C14.0713 12.9197 14.8135 12.6121 15.5871 12.6113H18.106V10.8831C18.1063 10.7227 18.3139 10.5932 18.5684 10.5931C18.8229 10.5931 19.0305 10.7227 19.0308 10.8831V12.6113H21.0353V9.79241L18.5876 7.34557C18.3395 7.48013 18.0618 7.5501 17.7795 7.54985C17.4401 7.54985 17.1079 7.44936 16.8256 7.26075C16.5436 7.07221 16.3235 6.80445 16.1936 6.49104C16.0637 6.17741 16.0298 5.83176 16.096 5.49881C16.1623 5.16605 16.3258 4.86053 16.5657 4.62057C16.8057 4.38052 17.1119 4.21712 17.4449 4.1509C17.7778 4.08469 18.1226 4.11859 18.4362 4.24848C18.7498 4.37839 19.0182 4.59822 19.2068 4.88048C19.3952 5.1626 19.4958 5.49424 19.4959 5.8335C19.496 6.14062 19.4128 6.44274 19.2551 6.70627L21.6883 9.13944C21.7759 9.22589 21.846 9.32867 21.8935 9.44221C21.941 9.55568 21.9654 9.67763 21.9655 9.80062V12.6168H23.7257V9.42489C23.7257 9.30227 23.7749 9.18419 23.8616 9.09748C23.9482 9.01092 24.0656 8.9626 24.188 8.96251C24.3107 8.96251 24.4287 9.01078 24.5154 9.09748C24.6021 9.18419 24.6504 9.30228 24.6504 9.42489V12.6168H26.5528V6.18006C26.1533 6.06833 25.8073 5.81548 25.5797 5.46871C25.3523 5.12211 25.2581 4.7048 25.3143 4.29408C25.3707 3.88313 25.5745 3.50609 25.8871 3.23344C26.1997 2.96088 26.6005 2.81028 27.0152 2.81028C27.4299 2.81035 27.8308 2.96085 28.1433 3.23344C28.4558 3.50608 28.6587 3.88319 28.7151 4.29408C28.7714 4.70489 28.6773 5.12206 28.4497 5.46871C28.2222 5.81541 27.8769 6.06829 27.4776 6.18006V12.6141H29.379V10.3551C29.3797 10.2093 29.4092 10.0646 29.4657 9.93012C29.5222 9.79567 29.6045 9.67326 29.7083 9.5708L32.3776 6.90234C32.3909 6.88905 32.4016 6.87324 32.4086 6.85583C32.4158 6.83828 32.419 6.81914 32.4187 6.8002V4.36977C32.0193 4.25806 31.6741 4.00507 31.4465 3.65843C31.2189 3.31166 31.1247 2.89383 31.1811 2.48288C31.2375 2.07211 31.4405 1.69574 31.7529 1.42316C32.0655 1.15054 32.4663 1.00003 32.8811 1ZM32.8893 51.7536C32.7328 51.7536 32.5798 51.7998 32.4497 51.8867C32.3195 51.9737 32.2178 52.0977 32.1579 52.2424C32.098 52.387 32.0827 52.5459 32.1132 52.6993C32.1437 52.8529 32.2186 52.9944 32.3293 53.1052C32.44 53.2159 32.5815 53.2907 32.7351 53.3213C32.8886 53.3518 33.0475 53.3364 33.192 53.2766C33.3367 53.2167 33.4607 53.115 33.5477 52.9848C33.6346 52.8546 33.6809 52.7017 33.6809 52.5452L33.6727 52.5425C33.6719 52.3344 33.5894 52.1347 33.4428 51.9871C33.2962 51.8395 33.0973 51.7558 32.8893 51.7536ZM27.0207 49.957C26.8641 49.957 26.7104 50.0031 26.5802 50.0901C26.4501 50.1771 26.3491 50.3013 26.2892 50.4458C26.2294 50.5904 26.2132 50.7493 26.2437 50.9027C26.2742 51.0563 26.35 51.1978 26.4607 51.3086C26.5713 51.4191 26.7123 51.4941 26.8656 51.5247C27.0192 51.5552 27.1788 51.5399 27.3234 51.48C27.4681 51.4201 27.5921 51.3184 27.6791 51.1882C27.766 51.0581 27.8122 50.905 27.8123 50.7486V50.7349C27.8086 50.5273 27.7232 50.3296 27.5751 50.1841C27.4271 50.0386 27.2282 49.957 27.0207 49.957ZM17.6418 48.651C17.4883 48.6816 17.3467 48.7574 17.236 48.8681C17.1255 48.9787 17.0505 49.1197 17.0199 49.273C16.9893 49.4266 17.0047 49.5862 17.0646 49.7308C17.1245 49.8755 17.2262 49.9995 17.3564 50.0865C17.4855 50.1727 17.6371 50.218 17.7923 50.2187C17.8954 50.2189 17.9978 50.2001 18.0933 50.1613C18.1901 50.1218 18.278 50.0633 18.3523 49.9898C18.4266 49.9163 18.486 49.829 18.5265 49.7326C18.5669 49.6362 18.5872 49.5326 18.5876 49.428C18.5876 49.2716 18.5413 49.1186 18.4544 48.9885C18.3674 48.8583 18.2434 48.7566 18.0987 48.6966C17.9542 48.6368 17.7953 48.6206 17.6418 48.651ZM39.6224 48.6337C39.4127 48.6344 39.2117 48.7179 39.0634 48.8663C38.915 49.0146 38.8316 49.2155 38.8308 49.4253C38.8308 49.5818 38.877 49.7347 38.964 49.8649C39.051 49.9951 39.175 50.0968 39.3196 50.1567C39.4642 50.2165 39.6231 50.2319 39.7765 50.2014C39.9301 50.1709 40.0716 50.096 40.1824 49.9853C40.2931 49.8745 40.368 49.733 40.3985 49.5794C40.429 49.426 40.4136 49.2671 40.3538 49.1225C40.2939 48.9779 40.1922 48.8539 40.062 48.7669C39.9319 48.6799 39.7789 48.6337 39.6224 48.6337ZM15.5981 13.7267C15.1189 13.7274 14.6593 13.9178 14.3204 14.2566C13.9816 14.5954 13.7913 15.0551 13.7905 15.5343V39.8267C13.7905 40.3064 13.9806 40.7668 14.3195 41.1062C14.6584 41.4457 15.1184 41.6372 15.5981 41.6379H39.8988C40.3751 41.6379 40.833 41.4501 41.1719 41.1153C41.5107 40.7806 41.7041 40.3257 41.7099 39.8495L41.7072 15.5343C41.7064 15.0551 41.5153 14.5954 41.1764 14.2566C40.8376 13.9178 40.3779 13.7274 39.8988 13.7267H15.5981ZM49.5275 37.0032C49.4223 37.0032 49.318 37.0246 49.221 37.0652C49.1242 37.1059 49.0365 37.1654 48.9629 37.2403C48.8892 37.3153 48.8314 37.4044 48.7924 37.5021C48.7535 37.5995 48.7341 37.7036 48.7359 37.8085C48.7359 37.9651 48.782 38.1188 48.869 38.249C48.956 38.3792 49.08 38.4809 49.2247 38.5408C49.3693 38.6007 49.529 38.616 49.6825 38.5855C49.8359 38.5549 49.9768 38.4791 50.0874 38.3684C50.198 38.2578 50.2739 38.117 50.3045 37.9635C50.335 37.8099 50.3188 37.6504 50.2589 37.5057C50.1989 37.3612 50.0971 37.2379 49.967 37.1509C49.8369 37.064 49.684 37.0169 49.5275 37.0169V37.0032ZM5.69306 37.0242C5.53972 37.0547 5.39876 37.1298 5.28814 37.2403C5.17741 37.3511 5.10164 37.4926 5.07109 37.6462C5.04054 37.7997 5.05585 37.9593 5.11577 38.104C5.17567 38.2485 5.27757 38.3718 5.40761 38.4587C5.53781 38.5457 5.6915 38.5928 5.84809 38.5928C6.05772 38.592 6.2589 38.5076 6.40714 38.3593C6.55524 38.211 6.63897 38.0099 6.63969 37.8003C6.63962 37.6438 6.59257 37.4908 6.50563 37.3607C6.41865 37.2306 6.29545 37.1288 6.15087 37.0689C6.0062 37.0089 5.84664 36.9936 5.69306 37.0242ZM50.8371 27.7703C50.7321 27.7707 50.6282 27.7924 50.5315 27.8332C50.4351 27.874 50.3477 27.9335 50.2744 28.0083C50.201 28.0833 50.1426 28.1726 50.1038 28.2701C50.0651 28.3674 50.0464 28.4717 50.0482 28.5765C50.0482 28.733 50.0944 28.886 50.1813 29.0161C50.2684 29.1462 50.3924 29.248 50.537 29.3079C50.6819 29.3678 50.8421 29.3834 50.9957 29.3526C51.1492 29.3218 51.2902 29.2464 51.4007 29.1355C51.5113 29.0245 51.5866 28.8826 51.6168 28.7288C51.647 28.5751 51.6306 28.4155 51.5703 28.271C51.5099 28.1265 51.408 28.0028 51.2775 27.9162C51.147 27.8297 50.9937 27.7844 50.8371 27.7849V27.7703ZM4.38345 27.7858C4.22998 27.8164 4.08919 27.8922 3.97853 28.0029C3.86787 28.1135 3.79205 28.2543 3.76148 28.4078C3.73093 28.5614 3.74715 28.7209 3.80708 28.8656C3.86695 29.01 3.96809 29.1334 4.098 29.2204C4.22726 29.3067 4.37944 29.3528 4.53484 29.3535C4.63764 29.3536 4.73963 29.3348 4.83488 29.2961C4.93174 29.2566 5.02047 29.1982 5.0948 29.1246C5.16906 29.0511 5.22766 28.9629 5.26807 28.8665C5.30838 28.7703 5.32968 28.6672 5.33009 28.5628C5.33009 28.4062 5.28394 28.2525 5.19694 28.1223C5.10997 27.9922 4.98587 27.8913 4.84127 27.8314C4.69659 27.7715 4.53704 27.7553 4.38345 27.7858ZM52.4795 21.9254C52.326 21.956 52.1844 22.0309 52.0737 22.1416C51.963 22.2523 51.8881 22.3938 51.8576 22.5474C51.827 22.701 51.8423 22.8605 51.9023 23.0052C51.9622 23.1497 52.064 23.273 52.1941 23.36C52.3242 23.4469 52.4771 23.4931 52.6337 23.4931C52.8434 23.4924 53.0444 23.4089 53.1927 23.2606C53.341 23.1122 53.4245 22.9112 53.4253 22.7015C53.4252 22.545 53.379 22.3921 53.2921 22.2619C53.2051 22.1317 53.0811 22.03 52.9364 21.9701C52.7919 21.9103 52.6329 21.8949 52.4795 21.9254ZM2.5759 21.9254C2.42254 21.956 2.28162 22.0311 2.17098 22.1416C2.06025 22.2523 1.98448 22.3938 1.95393 22.5474C1.92341 22.7009 1.93871 22.8606 1.99862 23.0052C2.05853 23.1497 2.1604 23.273 2.29045 23.36C2.41977 23.4464 2.57181 23.4916 2.72729 23.4922C2.83013 23.4923 2.93206 23.4735 3.02733 23.4347C3.124 23.3954 3.21211 23.3376 3.28634 23.2642C3.36067 23.1906 3.42009 23.1026 3.46053 23.0061C3.50093 22.9097 3.52218 22.806 3.52254 22.7015C3.52249 22.545 3.47543 22.3921 3.38848 22.2619C3.30151 22.1318 3.17829 22.03 3.03372 21.9701C2.88904 21.9102 2.72949 21.8949 2.5759 21.9254ZM49.5275 15.1576C49.4215 15.1565 49.3163 15.1768 49.2183 15.2169C49.1203 15.257 49.0313 15.3161 48.9566 15.3911C48.8818 15.4661 48.8221 15.5555 48.7824 15.6537C48.7426 15.7519 48.7234 15.8578 48.7249 15.9638C48.725 16.1203 48.7711 16.2733 48.8581 16.4034C48.9451 16.5336 49.0691 16.6353 49.2137 16.6952C49.3582 16.755 49.5172 16.7703 49.6706 16.7399C49.8241 16.7094 49.9658 16.6344 50.0765 16.5238C50.1872 16.413 50.263 16.2715 50.2935 16.1179C50.324 15.9644 50.3078 15.8047 50.2479 15.6601C50.188 15.5156 50.0862 15.3923 49.9561 15.3053C49.8259 15.2184 49.6731 15.1713 49.5165 15.1713L49.5275 15.1576ZM5.69306 15.1731C5.53954 15.2037 5.39882 15.2795 5.28814 15.3902C5.17745 15.5009 5.10164 15.6415 5.07109 15.7951C5.04054 15.9487 5.05585 16.1082 5.11577 16.2529C5.17566 16.3974 5.27757 16.5207 5.40761 16.6077C5.53781 16.6947 5.6915 16.7417 5.84809 16.7417C6.05772 16.7409 6.2589 16.6565 6.40714 16.5082C6.55522 16.36 6.63897 16.1588 6.63969 15.9492C6.63961 15.7928 6.59256 15.6397 6.50563 15.5096C6.41865 15.3796 6.29544 15.2777 6.15087 15.2178C6.0062 15.1579 5.84664 15.1426 5.69306 15.1731ZM17.6227 5.06288C17.4691 5.09343 17.3276 5.1692 17.2169 5.27993C17.1062 5.39062 17.0303 5.53137 16.9998 5.68485C16.9693 5.83844 16.9855 5.99799 17.0454 6.14266C17.1053 6.28722 17.2071 6.41048 17.3372 6.49743C17.4674 6.58438 17.6203 6.63149 17.7768 6.63149H17.7878C17.9956 6.62787 18.1936 6.54238 18.3395 6.39437C18.4855 6.24635 18.5677 6.04684 18.5684 5.83897C18.5683 5.68253 18.5222 5.52948 18.4353 5.3994C18.3483 5.2692 18.2243 5.16749 18.0796 5.10756C17.9351 5.04778 17.7761 5.03244 17.6227 5.06288ZM39.6224 5.04737C39.4128 5.0481 39.2117 5.13179 39.0634 5.27993C38.9151 5.42815 38.8317 5.62937 38.8308 5.83897C38.8308 5.99557 38.877 6.14926 38.964 6.27946C39.051 6.4096 39.175 6.51139 39.3196 6.5713C39.4641 6.63104 39.6232 6.64646 39.7765 6.61598C39.9301 6.58543 40.0716 6.50966 40.1824 6.39893C40.2929 6.28829 40.368 6.14739 40.3985 5.99401C40.4291 5.84042 40.4138 5.68087 40.3538 5.5362C40.2939 5.39161 40.1921 5.2684 40.062 5.18144C39.9318 5.09447 39.779 5.04741 39.6224 5.04737ZM27.1748 3.76422C27.0213 3.73373 26.8624 3.75 26.7179 3.80982C26.5733 3.86969 26.4492 3.97068 26.3622 4.10074C26.2752 4.23094 26.2291 4.38463 26.2291 4.54122C26.2298 4.75092 26.3133 4.95199 26.4616 5.10027C26.6099 5.24847 26.811 5.3321 27.0207 5.33282C27.1771 5.33279 27.3301 5.28654 27.4602 5.19968C27.5904 5.11268 27.6921 4.98868 27.7521 4.844C27.812 4.69934 27.8273 4.53975 27.7968 4.38619C27.7662 4.23285 27.6911 4.09187 27.5806 3.98127C27.4699 3.87054 27.3284 3.79477 27.1748 3.76422ZM33.0224 1.94208C32.8689 1.912 32.7099 1.92842 32.5655 1.98859C32.421 2.04889 32.2974 2.15091 32.2107 2.28133C32.1241 2.4118 32.078 2.56523 32.0785 2.72182H32.0895C32.0909 2.92919 32.1734 3.12798 32.3193 3.27539C32.4651 3.42282 32.6627 3.50799 32.8701 3.5116C33.0268 3.51159 33.1803 3.46466 33.3106 3.37754C33.4407 3.29046 33.5417 3.16653 33.6015 3.02186C33.6614 2.87705 33.677 2.71769 33.6462 2.56405C33.6154 2.41039 33.5402 2.26884 33.4292 2.15822C33.3182 2.04765 33.1761 1.97231 33.0224 1.94208Z" fill="white"/>
</svg>
