<svg width="57" height="56" viewBox="0 0 57 56" fill="none" xmlns="http://www.w3.org/2000/svg">
<path d="M43.3652 33.3283C43.5318 33.3283 43.6984 33.3283 43.8317 33.3283H44.0282C46.4397 33.3264 48.7701 32.4575 50.5942 30.8803C52.4184 29.3031 53.6147 27.1226 53.965 24.7367C54.3152 22.3508 53.7961 19.9185 52.5022 17.8836C51.2083 15.8486 49.2259 14.3467 46.9168 13.6517C46.7212 11.7288 46.0103 9.89427 44.859 8.34174C43.7077 6.78921 42.1587 5.57623 40.3754 4.83077C38.5921 4.08531 36.6406 3.83501 34.7269 4.10629C32.8132 4.37757 31.0082 5.16036 29.5023 6.37208C26.9727 5.24532 24.1058 5.13813 21.499 6.07284C18.8923 7.00754 16.7467 8.91204 15.5095 11.3895C13.6351 11.4437 11.8489 12.1977 10.5028 13.5031C9.15664 14.8086 8.34813 16.5708 8.2365 18.4426C6.38569 18.7581 4.72066 19.7566 3.57068 21.2408C2.42071 22.7249 1.86953 24.5865 2.02614 26.4575C2.18275 28.3284 3.03575 30.0725 4.41646 31.3448C5.79716 32.6171 7.60502 33.3249 9.48253 33.3283H9.66577H9.88899H10.1189H14.2101V36.1802L9.71574 40.6746C9.30261 40.5167 8.8498 40.4952 8.42355 40.6131C7.9973 40.7311 7.61995 40.9823 7.3467 41.33C7.07344 41.6778 6.91861 42.1038 6.90485 42.5459C6.89109 42.9879 7.01911 43.4228 7.2702 43.7869C7.52129 44.1509 7.88227 44.4251 8.30036 44.5694C8.71845 44.7136 9.17172 44.7203 9.59388 44.5884C10.016 44.4566 10.3849 44.1931 10.6466 43.8366C10.9084 43.4801 11.0491 43.0492 11.0484 42.6069C11.0488 42.2296 10.9451 41.8596 10.7486 41.5375L15.5528 36.7333V33.3283H20.7168V39.6851L17.5251 42.8768V47.9909C17.0592 48.1488 16.6645 48.4671 16.4115 48.8889C16.1584 49.3108 16.0634 49.8089 16.1435 50.2943C16.2235 50.7797 16.4733 51.2208 16.8484 51.5392C17.2235 51.8575 17.6995 52.0322 18.1914 52.0322C18.6834 52.0322 19.1593 51.8575 19.5344 51.5392C19.9095 51.2208 20.1593 50.7797 20.2394 50.2943C20.3194 49.8089 20.2244 49.3108 19.9714 48.8889C19.7183 48.4671 19.3237 48.1488 18.8577 47.9909V43.4298L22.0494 40.2381V33.3283H27.3801V42.8335C26.9151 42.9914 26.5213 43.3093 26.2689 43.7305C26.0164 44.1517 25.9218 44.6489 26.0018 45.1334C26.0818 45.6179 26.3313 46.0582 26.7058 46.3759C27.0802 46.6936 27.5553 46.868 28.0464 46.868C28.5374 46.868 29.0126 46.6936 29.387 46.3759C29.7615 46.0582 30.0109 45.6179 30.091 45.1334C30.171 44.6489 30.0764 44.1517 29.8239 43.7305C29.5715 43.3093 29.1777 42.9914 28.7127 42.8335V33.3283H34.5564V40.2381L37.7481 43.4298V47.9909C37.2831 48.1488 36.8893 48.4666 36.6369 48.8879C36.3845 49.3091 36.2898 49.8062 36.3699 50.2907C36.4499 50.7752 36.6993 51.2156 37.0738 51.5333C37.4483 51.851 37.9234 52.0254 38.4144 52.0254C38.9055 52.0254 39.3806 51.851 39.7551 51.5333C40.1295 51.2156 40.379 50.7752 40.459 50.2907C40.539 49.8062 40.4444 49.3091 40.192 48.8879C39.9395 48.4666 39.5457 48.1488 39.0808 47.9909V42.8768L35.8891 39.6851V33.3283H41.0331V37.3596L45.8373 42.1638C45.6398 42.4856 45.5349 42.8557 45.5341 43.2333C45.5314 43.6792 45.6717 44.1142 45.9344 44.4745C46.1971 44.8348 46.5683 45.1014 46.9936 45.2353C47.4189 45.3692 47.876 45.3632 48.2976 45.2182C48.7193 45.0733 49.0834 44.797 49.3366 44.43C49.5897 44.0629 49.7186 43.6244 49.7042 43.1787C49.6899 42.733 49.533 42.3037 49.2568 41.9537C48.9805 41.6037 48.5993 41.3515 48.1692 41.234C47.7391 41.1165 47.2826 41.14 46.8668 41.3009L42.3657 36.8066V33.3283H43.3652ZM8.96946 43.3466C8.82224 43.3472 8.67813 43.3041 8.55545 43.2227C8.43276 43.1413 8.33702 43.0254 8.28037 42.8895C8.22373 42.7536 8.20873 42.6039 8.2373 42.4595C8.26586 42.315 8.33668 42.1824 8.44078 42.0783C8.54489 41.9742 8.67758 41.9033 8.82201 41.8748C8.96644 41.8462 9.11609 41.8612 9.25199 41.9178C9.38788 41.9745 9.50388 42.0702 9.58526 42.1929C9.66664 42.3156 9.70974 42.4597 9.70908 42.6069C9.70821 42.8028 9.63 42.9904 9.49148 43.129C9.35297 43.2675 9.16535 43.3457 8.96946 43.3466ZM18.931 49.9499C18.9317 50.0969 18.8887 50.2409 18.8075 50.3635C18.7262 50.4861 18.6104 50.5819 18.4747 50.6386C18.339 50.6954 18.1895 50.7106 18.0452 50.6823C17.9009 50.654 17.7682 50.5835 17.6639 50.4797C17.5597 50.3759 17.4886 50.2436 17.4597 50.0994C17.4307 49.9551 17.4452 49.8056 17.5014 49.6696C17.5575 49.5337 17.6527 49.4174 17.775 49.3357C17.8972 49.2539 18.041 49.2102 18.1881 49.2102C18.3846 49.2102 18.573 49.2881 18.7123 49.4267C18.8515 49.5653 18.9302 49.7534 18.931 49.9499ZM28.776 44.8025C28.7767 44.9497 28.7336 45.0938 28.6522 45.2165C28.5708 45.3392 28.4548 45.4349 28.3189 45.4916C28.183 45.5482 28.0334 45.5632 27.8889 45.5346C27.7445 45.5061 27.6118 45.4352 27.5077 45.3311C27.4036 45.227 27.3328 45.0944 27.3042 44.9499C27.2757 44.8055 27.2907 44.6558 27.3473 44.5199C27.404 44.3841 27.4997 44.2681 27.6224 44.1867C27.7451 44.1053 27.8892 44.0622 28.0364 44.0629C28.2323 44.0637 28.4199 44.1419 28.5584 44.2805C28.6969 44.419 28.7751 44.6066 28.776 44.8025ZM38.4144 49.2202C38.5615 49.2202 38.7053 49.2639 38.8275 49.3457C38.9498 49.4275 39.045 49.5437 39.1012 49.6796C39.1573 49.8156 39.1718 49.9651 39.1429 50.1094C39.1139 50.2536 39.0428 50.3859 38.9386 50.4897C38.8344 50.5935 38.7017 50.664 38.5573 50.6923C38.413 50.7205 38.2635 50.7054 38.1278 50.6486C37.9921 50.5919 37.8763 50.4961 37.7951 50.3735C37.7138 50.2509 37.6708 50.1069 37.6715 49.9598C37.6706 49.8617 37.6892 49.7644 37.7261 49.6735C37.7631 49.5826 37.8176 49.4999 37.8867 49.4302C37.9558 49.3605 38.038 49.3052 38.1286 49.2674C38.2191 49.2296 38.3163 49.2102 38.4144 49.2102V49.2202ZM47.6097 42.5003C47.7567 42.5003 47.9003 42.5439 48.0225 42.6255C48.1447 42.7072 48.2399 42.8232 48.2961 42.959C48.3524 43.0947 48.3671 43.2441 48.3384 43.3882C48.3098 43.5323 48.239 43.6647 48.1351 43.7686C48.0312 43.8725 47.8988 43.9433 47.7547 43.9719C47.6106 44.0006 47.4612 43.9859 47.3254 43.9297C47.1897 43.8734 47.0736 43.7782 46.992 43.656C46.9104 43.5339 46.8668 43.3902 46.8668 43.2433C46.8655 43.1449 46.8837 43.0472 46.9204 42.9559C46.9572 42.8646 47.0117 42.7815 47.0808 42.7114C47.15 42.6414 47.2323 42.5858 47.3231 42.5478C47.4139 42.5099 47.5113 42.4903 47.6097 42.4903V42.5003ZM10.0922 32.0057H10.0256C9.92136 32.0141 9.81664 32.0141 9.71241 32.0057H9.48586C7.89783 32.005 6.37134 31.3914 5.22462 30.2928C4.0779 29.1943 3.39945 27.6955 3.33072 26.1089C3.26198 24.5224 3.80826 22.9705 4.85567 21.7769C5.90308 20.5833 7.37078 19.84 8.9528 19.702L9.61913 19.6486L9.56915 18.9823V18.9557C9.56079 18.1406 9.71399 17.332 10.0199 16.5765C10.3258 15.821 10.7784 15.1337 11.3515 14.5541C11.9246 13.9745 12.6068 13.5142 13.3588 13.1998C14.1108 12.8853 14.9176 12.723 15.7327 12.7222H15.8793L16.3124 12.7655C16.325 12.7665 16.3375 12.7634 16.3483 12.7569C16.3591 12.7503 16.3675 12.7405 16.3723 12.7288L16.4723 12.509C17.1696 10.9076 18.2922 9.5278 19.7182 8.51934C21.1443 7.51089 22.8193 6.9123 24.5615 6.78854C26.1345 6.69333 27.7062 6.99462 29.1325 7.66476C29.307 7.7478 29.5019 7.77846 29.6935 7.75303C29.885 7.72761 30.0651 7.64719 30.2119 7.5215C31.5349 6.41596 33.1362 5.69532 34.841 5.43833C36.5458 5.18133 38.2884 5.39787 39.8785 6.06429C41.4685 6.7307 42.8448 7.82135 43.8569 9.21705C44.869 10.6127 45.4781 12.2598 45.6174 13.9782C45.6339 14.1863 45.714 14.3843 45.8469 14.5452C45.9799 14.7062 46.1591 14.8223 46.3604 14.8777C48.3903 15.4432 50.1467 16.7247 51.3047 18.4852C52.4627 20.2456 52.9441 22.3659 52.6596 24.4538C52.3752 26.5417 51.3442 28.4559 49.7574 29.8424C48.1706 31.2289 46.1354 31.9938 44.0282 31.9957H43.7984C43.6784 31.9957 43.5585 31.9957 43.4419 31.9957L10.0922 32.0057Z" fill="white"/>
</svg>
