<svg width="56" height="56" viewBox="0 0 56 56" fill="none" xmlns="http://www.w3.org/2000/svg">
<g clip-path="url(#clip0_9437_35298)">
<mask id="path-1-inside-1_9437_35298" fill="white">
<path d="M55.2461 0.512226C55.0068 0.271387 54.7022 0.10603 54.3699 0.036636C54.0375 -0.0327583 53.6922 -0.00313853 53.3765 0.121823L39.0009 5.76102C38.7561 5.85611 38.5353 6.00425 38.3545 6.1948L33.6089 11.3829C31.1741 12.6319 28.5915 13.569 25.9223 14.1721L27.6835 12.1897C27.9219 11.922 28.1052 11.6099 28.223 11.2713C28.3408 10.9327 28.3907 10.5742 28.37 10.2163C28.3492 9.85845 28.2582 9.50815 28.1021 9.18544C27.946 8.86272 27.7278 8.57393 27.4601 8.33553C27.1923 8.09713 26.8802 7.91379 26.5417 7.796C26.2031 7.6782 25.8446 7.62826 25.4867 7.649C25.1288 7.66975 24.7785 7.76077 24.4558 7.9169C24.1331 8.07302 23.8443 8.29119 23.6059 8.55893L18.5046 14.2979C18.2183 14.2241 17.9363 14.1461 17.637 14.0463C17.2856 13.9248 16.9213 13.8207 16.5395 13.7253L17.9016 12.1897C18.14 11.922 18.3233 11.6099 18.4411 11.2713C18.5589 10.9327 18.6089 10.5742 18.5881 10.2163C18.5674 9.85845 18.4764 9.50815 18.3202 9.18544C18.1641 8.86272 17.946 8.57393 17.6782 8.33553C17.4105 8.09713 17.0984 7.91379 16.7598 7.796C16.4212 7.6782 16.0628 7.62826 15.7049 7.649C15.347 7.66975 14.9967 7.76077 14.674 7.9169C14.3512 8.07302 14.0624 8.29119 13.824 8.55893L9.56862 13.3783C6.89897 13.6779 4.26587 14.2432 1.70845 15.0657C1.3085 15.193 0.948017 15.421 0.661672 15.7279C0.375327 16.0348 0.172747 16.4102 0.0734116 16.818C-0.0259242 17.2258 -0.0186746 17.6523 0.0944617 18.0565C0.207598 18.4606 0.422817 18.8289 0.719425 19.1259L11.6855 30.1917L9.44716 32.712C9.31788 32.8555 9.2183 33.0231 9.15417 33.2052C9.09004 33.3874 9.06262 33.5804 9.07351 33.7732C9.0844 33.966 9.13338 34.1547 9.21762 34.3285C9.30185 34.5022 9.41968 34.6576 9.56429 34.7855L13.4206 38.182C13.6882 38.4235 14.0362 38.5565 14.3966 38.5551C14.6044 38.5551 14.8098 38.5115 14.9996 38.427C15.1894 38.3426 15.3594 38.2192 15.4985 38.0649L17.4808 35.8353L21.0032 39.3576L19.9014 40.4464C19.6264 40.7214 19.4719 41.0943 19.4719 41.4832C19.4719 41.872 19.6264 42.2449 19.9014 42.5199L23.4974 46.1724C23.6337 46.3098 23.7959 46.4189 23.9746 46.4934C24.1533 46.5678 24.3449 46.6061 24.5385 46.6061C24.7294 46.6055 24.9183 46.5668 25.0941 46.4924C25.2699 46.4179 25.429 46.3091 25.5622 46.1724L27.9698 43.8082L39.5822 54.219C40.0292 54.6235 40.6104 54.8476 41.2132 54.848C41.4541 54.8478 41.6937 54.8127 41.9246 54.7439C42.3286 54.6243 42.6944 54.4013 42.9857 54.097C43.2771 53.7927 43.484 53.4176 43.586 53.0088C44.2823 50.4125 44.7183 47.7533 44.8873 45.0705L49.4247 40.5635C49.9424 40.0556 50.2372 39.3628 50.2441 38.6376C50.251 37.9123 49.9695 37.2141 49.4616 36.6963C48.9537 36.1786 48.2609 35.8839 47.5356 35.877C46.8104 35.8701 46.1121 36.1515 45.5944 36.6595L44.1369 38.104C44.0241 37.7266 43.8983 37.3665 43.7595 37.0195C43.6477 36.7473 43.5507 36.4693 43.4689 36.1866L48.9389 30.8034C49.4533 30.2952 49.745 29.6037 49.7499 28.8806C49.7548 28.1575 49.4725 27.4621 48.9649 26.947C48.7141 26.6906 48.4151 26.4862 48.0851 26.3456C47.755 26.2049 47.4005 26.1309 47.0418 26.1277C46.6831 26.1245 46.3272 26.1921 45.9947 26.3268C45.6622 26.4614 45.3596 26.6604 45.1042 26.9123L43.2086 28.7819C43.6801 26.0787 44.4889 23.4453 45.6161 20.9435L49.6112 16.9483C49.7763 16.7813 49.9074 16.5839 49.9973 16.367L55.6365 2.38183C55.7615 2.06618 55.7911 1.7208 55.7217 1.38848C55.6523 1.05616 55.4869 0.751495 55.2461 0.512226ZM24.8812 9.71279C24.9681 9.61425 25.0739 9.53426 25.1924 9.47761C25.311 9.42096 25.4397 9.38883 25.5709 9.38312C25.706 9.3767 25.8409 9.39755 25.9677 9.44442C26.0945 9.4913 26.2105 9.56324 26.3089 9.65596C26.4073 9.74867 26.486 9.86025 26.5403 9.98405C26.5946 10.1078 26.6234 10.2413 26.625 10.3765C26.6243 10.6196 26.5348 10.854 26.3734 11.0358L23.2111 14.5885C22.9292 14.6146 22.6472 14.6406 22.3739 14.6493H22.2048C21.8447 14.6493 21.4847 14.6493 21.1376 14.6493C20.9381 14.6493 20.7472 14.6232 20.5477 14.6059L24.8812 9.71279ZM15.1211 9.71279C15.2079 9.61425 15.3138 9.53426 15.4323 9.47761C15.5508 9.42096 15.6795 9.38883 15.8108 9.38312C15.9479 9.37304 16.0857 9.39115 16.2155 9.43638C16.3454 9.4816 16.4646 9.55296 16.5658 9.64604C16.667 9.73912 16.7481 9.85197 16.804 9.9776C16.8599 10.1032 16.8895 10.239 16.8909 10.3765C16.8902 10.6196 16.8007 10.854 16.6393 11.0358L14.5658 13.3783L14.1667 13.3436L13.6419 13.3002L12.9521 13.2698C12.7743 13.2698 12.5964 13.2698 12.4142 13.2698H12.219H12.0152L15.1211 9.71279ZM1.94703 17.907C1.85935 17.8195 1.79602 17.7107 1.76331 17.5912C1.73059 17.4718 1.72963 17.3459 1.76051 17.2259C1.78747 17.1071 1.84542 16.9976 1.92848 16.9084C2.01153 16.8193 2.11671 16.7537 2.23333 16.7184C4.78062 15.892 7.40798 15.3365 10.0718 15.0614C11.2687 14.948 12.4729 14.9335 13.6722 15.018C13.9629 15.0397 14.2405 15.0744 14.5398 15.1091C14.6179 15.1091 14.7046 15.1091 14.7827 15.1351C15.5659 15.2472 16.337 15.4316 17.0861 15.686L17.2293 15.7294L18.6347 16.1068C18.9774 16.1762 19.3331 16.2326 19.6931 16.2803L19.9187 16.3063C20.2701 16.3454 20.6301 16.3714 20.9988 16.3887H21.2287C21.3849 16.3887 21.5367 16.3887 21.6929 16.3887H22.157H22.5301C22.9292 16.3887 23.3326 16.3454 23.7447 16.2976L24.07 16.2629C26.1955 15.9751 28.2831 15.4577 30.2963 14.7201C30.3954 14.6838 30.4781 14.8062 30.4067 14.884L20.2397 25.958C19.431 25.3854 18.4395 25.1312 17.455 25.244C16.4706 25.3569 15.5623 25.8289 14.9042 26.5696L12.848 28.8817L1.94703 17.907ZM14.3533 36.7115L10.9264 33.675L16.2012 27.7409C16.401 27.5148 16.6437 27.3305 16.9151 27.1987C17.1865 27.0669 17.4813 26.9901 17.7825 26.9727C18.0838 26.9554 18.3854 26.9979 18.6702 27.0977C18.9549 27.1975 19.2171 27.3527 19.4416 27.5543C19.481 27.587 19.5186 27.6218 19.5543 27.6584L19.6498 27.7669C20.0197 28.1861 20.2238 28.726 20.2238 29.2851C20.2238 29.8443 20.0197 30.3841 19.6498 30.8034L14.3533 36.7115ZM24.5082 44.7539L21.2895 41.4875L26.9547 35.935C27.3361 35.5609 27.8365 35.3322 28.3691 35.2886C28.9016 35.245 29.4325 35.3893 29.8697 35.6965L30.0129 35.8006C30.0766 35.849 30.136 35.9027 30.1907 35.9611C30.6212 36.3921 30.863 36.9764 30.863 37.5856C30.863 38.1948 30.6212 38.7791 30.1907 39.2101L24.5082 44.7539ZM46.822 37.9088C46.9962 37.739 47.2256 37.6374 47.4684 37.6225C47.6101 37.6143 47.7519 37.6372 47.8838 37.6896C48.0157 37.7421 48.1345 37.8228 48.2318 37.9261C48.4172 38.113 48.5213 38.3656 48.5213 38.6288C48.5213 38.8921 48.4172 39.1447 48.2318 39.3316L44.883 42.6283C44.883 42.5329 44.883 42.4418 44.8613 42.3507C44.8613 42.1295 44.8353 41.9169 44.8136 41.7C44.7919 41.4832 44.7789 41.2662 44.7529 41.0667C44.7268 40.8672 44.7008 40.659 44.6748 40.4594C44.6748 40.338 44.6444 40.2078 44.6227 40.0907L46.822 37.9088ZM46.3275 28.1616C46.5012 27.9912 46.7309 27.8895 46.9738 27.8753C47.1093 27.8701 47.2443 27.8922 47.371 27.9404C47.4976 27.9886 47.6132 28.062 47.7108 28.1559C47.8085 28.2499 47.8861 28.3626 47.9391 28.4874C47.9921 28.6121 48.0194 28.7462 48.0193 28.8817C48.0188 29.0125 47.9925 29.1419 47.9418 29.2625C47.8912 29.3831 47.8173 29.4925 47.7243 29.5844L43.0481 34.1999C43.0221 34.0047 42.9874 33.8095 42.97 33.6056C42.9396 33.2586 42.9266 32.9029 42.918 32.5385V32.378C42.918 32.1004 42.918 31.8184 42.918 31.5104L46.3275 28.1616ZM41.2349 30.7296V31.0636C41.1131 32.7677 41.2594 34.4803 41.6687 36.1389L42.1632 37.5547L42.1111 37.5227C42.1111 37.5704 42.1458 37.6181 42.1632 37.6658C42.4566 38.3994 42.6803 39.159 42.8312 39.9345C42.8333 39.9707 42.8333 40.0069 42.8312 40.043C43.1011 41.5584 43.2001 43.0993 43.1262 44.6368C42.9887 47.3124 42.5685 49.9661 41.8725 52.5533C41.8431 52.6714 41.7831 52.7796 41.6985 52.8672C41.614 52.9547 41.508 53.0185 41.391 53.0522C41.2724 53.0877 41.1465 53.0919 41.0257 53.0646C40.9049 53.0372 40.7931 52.9792 40.7013 52.896L29.1757 42.5719L31.3793 40.403C32.104 39.6883 32.5318 38.7261 32.5769 37.7092C32.6219 36.6923 32.2809 35.696 31.6222 34.92L42.3101 24.2321C42.3845 24.1577 42.5099 24.2343 42.4787 24.3347C41.8317 26.4141 41.4145 28.5585 41.2349 30.7296ZM54.0185 1.7355L48.3793 15.7207L30.2211 33.8789L30.1647 33.8572C30.0519 33.8095 29.9391 33.7661 29.822 33.7271L29.7353 33.6967C29.5931 33.6513 29.4482 33.6151 29.3015 33.5883C29.1583 33.5622 29.0152 33.5449 28.8677 33.5319H28.7853C28.6408 33.5235 28.496 33.5235 28.3515 33.5319C27.3718 33.5846 26.4457 33.9952 25.7488 34.6857L22.2308 38.156L18.626 34.5339L20.9338 31.9312C21.5923 31.1955 21.9554 30.2422 21.9532 29.2548C21.9517 29.0982 21.9416 28.9418 21.9228 28.7863C21.9249 28.7473 21.9249 28.7082 21.9228 28.6692C21.9228 28.5217 21.8751 28.3785 21.8404 28.2354C21.8387 28.2282 21.8387 28.2208 21.8404 28.2137C21.796 28.0545 21.7424 27.8981 21.6799 27.7452C21.6799 27.7452 21.6799 27.7148 21.6799 27.6975C21.617 27.5484 21.5446 27.4035 21.463 27.2637L39.6819 7.37904L54.0662 1.73984L54.0185 1.7355Z"/>
</mask>
<path d="M55.2461 0.512226C55.0068 0.271387 54.7022 0.10603 54.3699 0.036636C54.0375 -0.0327583 53.6922 -0.00313853 53.3765 0.121823L39.0009 5.76102C38.7561 5.85611 38.5353 6.00425 38.3545 6.1948L33.6089 11.3829C31.1741 12.6319 28.5915 13.569 25.9223 14.1721L27.6835 12.1897C27.9219 11.922 28.1052 11.6099 28.223 11.2713C28.3408 10.9327 28.3907 10.5742 28.37 10.2163C28.3492 9.85845 28.2582 9.50815 28.1021 9.18544C27.946 8.86272 27.7278 8.57393 27.4601 8.33553C27.1923 8.09713 26.8802 7.91379 26.5417 7.796C26.2031 7.6782 25.8446 7.62826 25.4867 7.649C25.1288 7.66975 24.7785 7.76077 24.4558 7.9169C24.1331 8.07302 23.8443 8.29119 23.6059 8.55893L18.5046 14.2979C18.2183 14.2241 17.9363 14.1461 17.637 14.0463C17.2856 13.9248 16.9213 13.8207 16.5395 13.7253L17.9016 12.1897C18.14 11.922 18.3233 11.6099 18.4411 11.2713C18.5589 10.9327 18.6089 10.5742 18.5881 10.2163C18.5674 9.85845 18.4764 9.50815 18.3202 9.18544C18.1641 8.86272 17.946 8.57393 17.6782 8.33553C17.4105 8.09713 17.0984 7.91379 16.7598 7.796C16.4212 7.6782 16.0628 7.62826 15.7049 7.649C15.347 7.66975 14.9967 7.76077 14.674 7.9169C14.3512 8.07302 14.0624 8.29119 13.824 8.55893L9.56862 13.3783C6.89897 13.6779 4.26587 14.2432 1.70845 15.0657C1.3085 15.193 0.948017 15.421 0.661672 15.7279C0.375327 16.0348 0.172747 16.4102 0.0734116 16.818C-0.0259242 17.2258 -0.0186746 17.6523 0.0944617 18.0565C0.207598 18.4606 0.422817 18.8289 0.719425 19.1259L11.6855 30.1917L9.44716 32.712C9.31788 32.8555 9.2183 33.0231 9.15417 33.2052C9.09004 33.3874 9.06262 33.5804 9.07351 33.7732C9.0844 33.966 9.13338 34.1547 9.21762 34.3285C9.30185 34.5022 9.41968 34.6576 9.56429 34.7855L13.4206 38.182C13.6882 38.4235 14.0362 38.5565 14.3966 38.5551C14.6044 38.5551 14.8098 38.5115 14.9996 38.427C15.1894 38.3426 15.3594 38.2192 15.4985 38.0649L17.4808 35.8353L21.0032 39.3576L19.9014 40.4464C19.6264 40.7214 19.4719 41.0943 19.4719 41.4832C19.4719 41.872 19.6264 42.2449 19.9014 42.5199L23.4974 46.1724C23.6337 46.3098 23.7959 46.4189 23.9746 46.4934C24.1533 46.5678 24.3449 46.6061 24.5385 46.6061C24.7294 46.6055 24.9183 46.5668 25.0941 46.4924C25.2699 46.4179 25.429 46.3091 25.5622 46.1724L27.9698 43.8082L39.5822 54.219C40.0292 54.6235 40.6104 54.8476 41.2132 54.848C41.4541 54.8478 41.6937 54.8127 41.9246 54.7439C42.3286 54.6243 42.6944 54.4013 42.9857 54.097C43.2771 53.7927 43.484 53.4176 43.586 53.0088C44.2823 50.4125 44.7183 47.7533 44.8873 45.0705L49.4247 40.5635C49.9424 40.0556 50.2372 39.3628 50.2441 38.6376C50.251 37.9123 49.9695 37.2141 49.4616 36.6963C48.9537 36.1786 48.2609 35.8839 47.5356 35.877C46.8104 35.8701 46.1121 36.1515 45.5944 36.6595L44.1369 38.104C44.0241 37.7266 43.8983 37.3665 43.7595 37.0195C43.6477 36.7473 43.5507 36.4693 43.4689 36.1866L48.9389 30.8034C49.4533 30.2952 49.745 29.6037 49.7499 28.8806C49.7548 28.1575 49.4725 27.4621 48.9649 26.947C48.7141 26.6906 48.4151 26.4862 48.0851 26.3456C47.755 26.2049 47.4005 26.1309 47.0418 26.1277C46.6831 26.1245 46.3272 26.1921 45.9947 26.3268C45.6622 26.4614 45.3596 26.6604 45.1042 26.9123L43.2086 28.7819C43.6801 26.0787 44.4889 23.4453 45.6161 20.9435L49.6112 16.9483C49.7763 16.7813 49.9074 16.5839 49.9973 16.367L55.6365 2.38183C55.7615 2.06618 55.7911 1.7208 55.7217 1.38848C55.6523 1.05616 55.4869 0.751495 55.2461 0.512226ZM24.8812 9.71279C24.9681 9.61425 25.0739 9.53426 25.1924 9.47761C25.311 9.42096 25.4397 9.38883 25.5709 9.38312C25.706 9.3767 25.8409 9.39755 25.9677 9.44442C26.0945 9.4913 26.2105 9.56324 26.3089 9.65596C26.4073 9.74867 26.486 9.86025 26.5403 9.98405C26.5946 10.1078 26.6234 10.2413 26.625 10.3765C26.6243 10.6196 26.5348 10.854 26.3734 11.0358L23.2111 14.5885C22.9292 14.6146 22.6472 14.6406 22.3739 14.6493H22.2048C21.8447 14.6493 21.4847 14.6493 21.1376 14.6493C20.9381 14.6493 20.7472 14.6232 20.5477 14.6059L24.8812 9.71279ZM15.1211 9.71279C15.2079 9.61425 15.3138 9.53426 15.4323 9.47761C15.5508 9.42096 15.6795 9.38883 15.8108 9.38312C15.9479 9.37304 16.0857 9.39115 16.2155 9.43638C16.3454 9.4816 16.4646 9.55296 16.5658 9.64604C16.667 9.73912 16.7481 9.85197 16.804 9.9776C16.8599 10.1032 16.8895 10.239 16.8909 10.3765C16.8902 10.6196 16.8007 10.854 16.6393 11.0358L14.5658 13.3783L14.1667 13.3436L13.6419 13.3002L12.9521 13.2698C12.7743 13.2698 12.5964 13.2698 12.4142 13.2698H12.219H12.0152L15.1211 9.71279ZM1.94703 17.907C1.85935 17.8195 1.79602 17.7107 1.76331 17.5912C1.73059 17.4718 1.72963 17.3459 1.76051 17.2259C1.78747 17.1071 1.84542 16.9976 1.92848 16.9084C2.01153 16.8193 2.11671 16.7537 2.23333 16.7184C4.78062 15.892 7.40798 15.3365 10.0718 15.0614C11.2687 14.948 12.4729 14.9335 13.6722 15.018C13.9629 15.0397 14.2405 15.0744 14.5398 15.1091C14.6179 15.1091 14.7046 15.1091 14.7827 15.1351C15.5659 15.2472 16.337 15.4316 17.0861 15.686L17.2293 15.7294L18.6347 16.1068C18.9774 16.1762 19.3331 16.2326 19.6931 16.2803L19.9187 16.3063C20.2701 16.3454 20.6301 16.3714 20.9988 16.3887H21.2287C21.3849 16.3887 21.5367 16.3887 21.6929 16.3887H22.157H22.5301C22.9292 16.3887 23.3326 16.3454 23.7447 16.2976L24.07 16.2629C26.1955 15.9751 28.2831 15.4577 30.2963 14.7201C30.3954 14.6838 30.4781 14.8062 30.4067 14.884L20.2397 25.958C19.431 25.3854 18.4395 25.1312 17.455 25.244C16.4706 25.3569 15.5623 25.8289 14.9042 26.5696L12.848 28.8817L1.94703 17.907ZM14.3533 36.7115L10.9264 33.675L16.2012 27.7409C16.401 27.5148 16.6437 27.3305 16.9151 27.1987C17.1865 27.0669 17.4813 26.9901 17.7825 26.9727C18.0838 26.9554 18.3854 26.9979 18.6702 27.0977C18.9549 27.1975 19.2171 27.3527 19.4416 27.5543C19.481 27.587 19.5186 27.6218 19.5543 27.6584L19.6498 27.7669C20.0197 28.1861 20.2238 28.726 20.2238 29.2851C20.2238 29.8443 20.0197 30.3841 19.6498 30.8034L14.3533 36.7115ZM24.5082 44.7539L21.2895 41.4875L26.9547 35.935C27.3361 35.5609 27.8365 35.3322 28.3691 35.2886C28.9016 35.245 29.4325 35.3893 29.8697 35.6965L30.0129 35.8006C30.0766 35.849 30.136 35.9027 30.1907 35.9611C30.6212 36.3921 30.863 36.9764 30.863 37.5856C30.863 38.1948 30.6212 38.7791 30.1907 39.2101L24.5082 44.7539ZM46.822 37.9088C46.9962 37.739 47.2256 37.6374 47.4684 37.6225C47.6101 37.6143 47.7519 37.6372 47.8838 37.6896C48.0157 37.7421 48.1345 37.8228 48.2318 37.9261C48.4172 38.113 48.5213 38.3656 48.5213 38.6288C48.5213 38.8921 48.4172 39.1447 48.2318 39.3316L44.883 42.6283C44.883 42.5329 44.883 42.4418 44.8613 42.3507C44.8613 42.1295 44.8353 41.9169 44.8136 41.7C44.7919 41.4832 44.7789 41.2662 44.7529 41.0667C44.7268 40.8672 44.7008 40.659 44.6748 40.4594C44.6748 40.338 44.6444 40.2078 44.6227 40.0907L46.822 37.9088ZM46.3275 28.1616C46.5012 27.9912 46.7309 27.8895 46.9738 27.8753C47.1093 27.8701 47.2443 27.8922 47.371 27.9404C47.4976 27.9886 47.6132 28.062 47.7108 28.1559C47.8085 28.2499 47.8861 28.3626 47.9391 28.4874C47.9921 28.6121 48.0194 28.7462 48.0193 28.8817C48.0188 29.0125 47.9925 29.1419 47.9418 29.2625C47.8912 29.3831 47.8173 29.4925 47.7243 29.5844L43.0481 34.1999C43.0221 34.0047 42.9874 33.8095 42.97 33.6056C42.9396 33.2586 42.9266 32.9029 42.918 32.5385V32.378C42.918 32.1004 42.918 31.8184 42.918 31.5104L46.3275 28.1616ZM41.2349 30.7296V31.0636C41.1131 32.7677 41.2594 34.4803 41.6687 36.1389L42.1632 37.5547L42.1111 37.5227C42.1111 37.5704 42.1458 37.6181 42.1632 37.6658C42.4566 38.3994 42.6803 39.159 42.8312 39.9345C42.8333 39.9707 42.8333 40.0069 42.8312 40.043C43.1011 41.5584 43.2001 43.0993 43.1262 44.6368C42.9887 47.3124 42.5685 49.9661 41.8725 52.5533C41.8431 52.6714 41.7831 52.7796 41.6985 52.8672C41.614 52.9547 41.508 53.0185 41.391 53.0522C41.2724 53.0877 41.1465 53.0919 41.0257 53.0646C40.9049 53.0372 40.7931 52.9792 40.7013 52.896L29.1757 42.5719L31.3793 40.403C32.104 39.6883 32.5318 38.7261 32.5769 37.7092C32.6219 36.6923 32.2809 35.696 31.6222 34.92L42.3101 24.2321C42.3845 24.1577 42.5099 24.2343 42.4787 24.3347C41.8317 26.4141 41.4145 28.5585 41.2349 30.7296ZM54.0185 1.7355L48.3793 15.7207L30.2211 33.8789L30.1647 33.8572C30.0519 33.8095 29.9391 33.7661 29.822 33.7271L29.7353 33.6967C29.5931 33.6513 29.4482 33.6151 29.3015 33.5883C29.1583 33.5622 29.0152 33.5449 28.8677 33.5319H28.7853C28.6408 33.5235 28.496 33.5235 28.3515 33.5319C27.3718 33.5846 26.4457 33.9952 25.7488 34.6857L22.2308 38.156L18.626 34.5339L20.9338 31.9312C21.5923 31.1955 21.9554 30.2422 21.9532 29.2548C21.9517 29.0982 21.9416 28.9418 21.9228 28.7863C21.9249 28.7473 21.9249 28.7082 21.9228 28.6692C21.9228 28.5217 21.8751 28.3785 21.8404 28.2354C21.8387 28.2282 21.8387 28.2208 21.8404 28.2137C21.796 28.0545 21.7424 27.8981 21.6799 27.7452C21.6799 27.7452 21.6799 27.7148 21.6799 27.6975C21.617 27.5484 21.5446 27.4035 21.463 27.2637L39.6819 7.37904L54.0662 1.73984L54.0185 1.7355Z" fill="white" stroke="#55C2BC" stroke-width="0.6" mask="url(#path-1-inside-1_9437_35298)"/>
<path d="M8.57129 34.4033C8.66471 34.4217 8.75395 34.4586 8.83301 34.5117C8.91206 34.5648 8.97984 34.6334 9.03223 34.7129C9.08461 34.7924 9.12012 34.882 9.1377 34.9756C9.15522 35.069 9.15368 35.1649 9.13379 35.2578C9.11383 35.3509 9.07586 35.4394 9.02148 35.5176C8.96708 35.5957 8.89777 35.6628 8.81738 35.7139L8.81543 35.7148L2.80273 39.6758L2.73535 39.7197V44.6006H8.02637L8.07031 44.5303L11.7705 38.6396C11.8716 38.4794 12.0321 38.3656 12.2168 38.3232C12.4016 38.2809 12.5959 38.3138 12.7568 38.4141C12.8367 38.4642 12.9063 38.5296 12.9609 38.6064C13.0155 38.6833 13.0542 38.7704 13.0752 38.8623C13.0961 38.9542 13.0988 39.0497 13.083 39.1426C13.0751 39.189 13.0627 39.2345 13.0459 39.2783L12.9824 39.4043L8.81934 46.0361H1.30078V38.9434L8.02637 34.5166L8.02832 34.5156C8.10683 34.462 8.19498 34.4244 8.28809 34.4053C8.38131 34.3862 8.47793 34.3849 8.57129 34.4033Z" fill="white" stroke="#55C2BC" stroke-width="0.3"/>
<path d="M10.0322 36.6094C10.129 36.6054 10.2258 36.621 10.3164 36.6553C10.407 36.6896 10.4897 36.7424 10.5596 36.8096C10.6294 36.8768 10.6849 36.9577 10.7227 37.0469C10.7415 37.0914 10.7561 37.1374 10.7656 37.1846L10.7793 37.3291C10.779 37.4259 10.759 37.5215 10.7207 37.6104C10.6824 37.6993 10.6268 37.78 10.5566 37.8467H10.5557L10.5508 37.8516L5.6582 42.9531C5.52671 43.0895 5.34659 43.1678 5.15723 43.1719C4.96767 43.1759 4.78375 43.1054 4.64648 42.9746C4.57847 42.9095 4.52427 42.8313 4.48633 42.7451C4.4484 42.6589 4.42782 42.5659 4.42578 42.4717C4.42378 42.3774 4.44033 42.2832 4.47461 42.1953C4.50888 42.1075 4.55973 42.027 4.625 41.959L9.51758 36.8574L9.51855 36.8584L9.52246 36.8525C9.5863 36.7799 9.66474 36.7215 9.75195 36.6797C9.83943 36.6379 9.93535 36.6135 10.0322 36.6094Z" fill="white" stroke="#55C2BC" stroke-width="0.3"/>
<path d="M31.1758 25.0762C31.2701 25.0742 31.3643 25.0908 31.4521 25.125C31.54 25.1592 31.6204 25.2102 31.6885 25.2754C31.7565 25.3406 31.8107 25.4187 31.8486 25.5049C31.8865 25.5911 31.9071 25.6842 31.9092 25.7783C31.9112 25.8726 31.8946 25.9668 31.8604 26.0547C31.8432 26.0987 31.8222 26.141 31.7969 26.1807L31.71 26.291L26.8174 31.3926H26.8164C26.7493 31.4629 26.6685 31.5194 26.5791 31.5576C26.4897 31.5958 26.393 31.6154 26.2959 31.6152C26.155 31.6154 26.017 31.5738 25.8994 31.4961C25.7819 31.4184 25.6898 31.3074 25.6348 31.1777C25.5798 31.0481 25.5642 30.9051 25.5898 30.7666C25.6156 30.628 25.6814 30.4998 25.7793 30.3984L30.6729 25.3145L30.7148 25.2715V25.2607C30.7711 25.2105 30.8331 25.1672 30.9023 25.1367C30.9886 25.0988 31.0816 25.0782 31.1758 25.0762Z" fill="white" stroke="#55C2BC" stroke-width="0.3"/>
<path d="M19.1924 42.9131C19.3709 42.9505 19.5282 43.0547 19.6328 43.2041C19.7375 43.3535 19.7818 43.5372 19.7559 43.7178C19.7301 43.8966 19.6373 44.0591 19.4971 44.1729L13.8047 48.166L13.7373 48.2139L13.7412 48.2969L14.001 53.3457L14.0088 53.4951L14.1592 53.4883L18.8008 53.249L18.8809 53.2451L18.9219 53.1758L22.5703 46.9727C22.6181 46.8913 22.6816 46.8195 22.7568 46.7627C22.832 46.706 22.9177 46.6652 23.0088 46.6416C23.1001 46.6179 23.1957 46.6119 23.2891 46.625C23.3823 46.6381 23.4726 46.6699 23.5537 46.7178H23.5547C23.719 46.813 23.8385 46.9699 23.8877 47.1533C23.9367 47.3365 23.9109 47.5319 23.8164 47.6963L19.7363 54.6406L12.6533 55.002L12.2744 47.4961L18.6768 42.999C18.8313 42.9066 19.0159 42.8762 19.1924 42.9131Z" fill="white" stroke="#55C2BC" stroke-width="0.3"/>
<path d="M20.8604 45.0967C20.9567 45.092 21.053 45.1063 21.1436 45.1396C21.2341 45.173 21.3174 45.2239 21.3877 45.29C21.4579 45.3562 21.514 45.4361 21.5527 45.5244C21.5915 45.6129 21.6123 45.7091 21.6133 45.8057C21.6143 45.9021 21.5954 45.9978 21.5586 46.0869C21.5218 46.176 21.4672 46.2566 21.3984 46.3242L21.3945 46.3291L16.5488 51.4736C16.4817 51.545 16.4005 51.6018 16.3105 51.6406C16.2206 51.6795 16.1234 51.7003 16.0254 51.7002H16.0244C15.8419 51.7004 15.6654 51.6306 15.5322 51.5059C15.4641 51.4414 15.4095 51.3639 15.3711 51.2783C15.3325 51.1923 15.3113 51.0991 15.3086 51.0049C15.3059 50.9106 15.3218 50.8166 15.3555 50.7285C15.3723 50.6846 15.3931 50.6422 15.418 50.6025L15.5049 50.4912L20.3506 45.3457L20.3545 45.3418C20.4179 45.269 20.4952 45.2092 20.582 45.167C20.6689 45.1248 20.7639 45.1015 20.8604 45.0967Z" fill="white" stroke="#55C2BC" stroke-width="0.3"/>
</g>
<defs>
<clipPath id="clip0_9437_35298">
<rect width="56" height="56" fill="white"/>
</clipPath>
</defs>
</svg>
