<svg width="57" height="56" viewBox="0 0 57 56" fill="none" xmlns="http://www.w3.org/2000/svg">
<path d="M45.0574 40.644C45.2419 40.644 45.4246 40.6801 45.595 40.7504C45.7655 40.8208 45.9203 40.924 46.0508 41.0539C46.1812 41.1838 46.2846 41.3381 46.3552 41.5078C46.4258 41.6776 46.4624 41.8595 46.4624 42.0432C46.4624 42.3199 46.38 42.5905 46.2257 42.8206C46.0713 43.0507 45.8517 43.2299 45.595 43.3358C45.3383 43.4417 45.0558 43.4695 44.7833 43.4155C44.5108 43.3615 44.2605 43.2282 44.064 43.0326C43.8676 42.8369 43.7338 42.5876 43.6795 42.3162C43.6253 42.0448 43.653 41.7635 43.7593 41.5078C43.8657 41.2522 44.0459 41.0335 44.2769 40.8798C44.5079 40.726 44.7796 40.644 45.0574 40.644Z" fill="white"/>
<path d="M49.224 40.644C49.4085 40.644 49.5912 40.6801 49.7616 40.7504C49.9321 40.8208 50.0869 40.924 50.2174 41.0539C50.3478 41.1838 50.4512 41.3381 50.5218 41.5078C50.5924 41.6776 50.629 41.8595 50.629 42.0432C50.629 42.32 50.5463 42.5905 50.392 42.8206C50.2376 43.0506 50.0183 43.2299 49.7616 43.3358C49.5049 43.4417 49.2224 43.4695 48.9499 43.4155C48.6774 43.3615 48.4271 43.2282 48.2306 43.0326C48.0342 42.8369 47.9004 42.5876 47.8461 42.3162C47.7919 42.0448 47.8196 41.7635 47.9259 41.5078C48.0323 41.2522 48.2125 41.0335 48.4435 40.8798C48.6745 40.726 48.9462 40.644 49.224 40.644Z" fill="white"/>
<path d="M37.2822 41.2263C37.494 41.2264 37.697 41.3103 37.8468 41.4594C37.9967 41.6087 38.0809 41.8111 38.0809 42.0221C38.0809 42.2331 37.9966 42.4353 37.8468 42.5845C37.697 42.7337 37.494 42.8176 37.2822 42.8176H24.7827C24.5708 42.8176 24.3675 42.7337 24.2177 42.5845C24.0679 42.4353 23.9837 42.2331 23.9836 42.0221C23.9836 41.8111 24.0679 41.6087 24.2177 41.4594C24.3675 41.3102 24.5708 41.2263 24.7827 41.2263H37.2822Z" fill="white"/>
<path d="M35.3649 17.5061L35.4977 17.9564L38.6088 29.5615L40.0891 24.3428H47.1319L47.1378 24.3548C47.2977 24.3548 47.4513 24.4181 47.5644 24.5307C47.6774 24.6433 47.7407 24.7961 47.7407 24.9553C47.7407 25.1146 47.6774 25.2676 47.5644 25.3802C47.4513 25.4928 47.2977 25.5558 47.1378 25.5558H41.0086L39.0731 32.3746H38.5938C38.4566 32.3747 38.3233 32.3298 38.2143 32.2468C38.1053 32.1637 38.0266 32.0474 37.9908 31.9154L34.8735 20.2893L33.3994 25.2916H24.5024L22.4948 32.3837H21.5691L21.4363 31.9395L18.3973 20.6737L17.1314 25.1386H9.87456C9.71464 25.1386 9.56132 25.0752 9.44825 24.9626C9.33517 24.85 9.2716 24.6973 9.2716 24.538C9.2716 24.3788 9.33517 24.2261 9.44825 24.1135C9.56132 24.0009 9.71465 23.9375 9.87456 23.9375H16.2057L17.9272 17.8755H18.4035C18.5406 17.8759 18.6738 17.921 18.7827 18.0039C18.8916 18.0869 18.9702 18.203 19.0065 18.3347L22.0425 29.5673L23.5979 24.0906H32.5099L34.4513 17.5061H35.3649Z" fill="white"/>
<path fill-rule="evenodd" clip-rule="evenodd" d="M49.2031 10.6752C49.658 10.6752 50.0944 10.8554 50.4161 11.1757C50.7377 11.4961 50.9184 11.9307 50.9184 12.3838V37.5151C50.9184 37.9681 50.7378 38.4027 50.4161 38.7231C50.0944 39.0435 49.658 39.2236 49.2031 39.2236H7.79745C7.34249 39.2236 6.90616 39.0435 6.58445 38.7231C6.26274 38.4027 6.08188 37.9682 6.08188 37.5151V12.3838C6.08188 11.9307 6.26274 11.4961 6.58445 11.1757C6.90616 10.8553 7.34249 10.6752 7.79745 10.6752H49.2031ZM7.79745 11.8762C7.66232 11.8762 7.53263 11.9297 7.43708 12.0249C7.34153 12.1201 7.28781 12.2492 7.28781 12.3838V37.5151C7.28781 37.6496 7.34153 37.7788 7.43708 37.874C7.53263 37.9691 7.66232 38.0226 7.79745 38.0226H49.2031C49.3382 38.0226 49.4676 37.9691 49.5632 37.874C49.6587 37.7788 49.7124 37.6496 49.7124 37.5151V12.3838C49.7124 12.2492 49.6587 12.1201 49.5632 12.0249C49.4676 11.9298 49.3382 11.8763 49.2031 11.8762H7.79745Z" fill="white"/>
<path fill-rule="evenodd" clip-rule="evenodd" d="M50.6407 7C51.1491 7.00039 51.6526 7.1007 52.122 7.29527C52.5913 7.48986 53.0176 7.77487 53.3762 8.13388C53.7347 8.49291 54.0186 8.91915 54.2114 9.38769C54.4042 9.85618 54.5023 10.358 54.5 10.8643V42.091C54.4982 43.0063 54.1687 43.891 53.5708 44.586C52.9729 45.2811 52.1457 45.7411 51.2378 45.8833V47.3995C51.2378 47.5587 51.1742 47.7115 51.0612 47.8241C50.9481 47.9367 50.7948 48 50.6349 48C50.4749 48 50.3216 47.9367 50.2085 47.8241C50.0955 47.7115 50.0319 47.5588 50.0319 47.3995V45.9343H7.28752V47.3995C7.28752 47.5587 7.22394 47.7115 7.11087 47.8241C6.99779 47.9367 6.84447 48 6.68455 48C6.52465 48 6.37131 47.9367 6.25824 47.8241C6.14519 47.7115 6.08158 47.5587 6.08158 47.3995V45.8982C5.10956 45.8284 4.20012 45.395 3.53576 44.6849C2.87139 43.9747 2.50129 43.0405 2.5 42.0699V10.8432C2.50081 9.82419 2.90764 8.84712 3.63115 8.12655C4.35466 7.40598 5.33573 7.00081 6.35893 7H50.6407ZM6.35893 8.21305C5.65556 8.21386 4.98114 8.4924 4.48378 8.98773C3.98643 9.48307 3.70674 10.1547 3.70593 10.8552V42.082C3.70673 42.7825 3.98645 43.4541 4.48378 43.9495C4.98114 44.4448 5.65556 44.7233 6.35893 44.7242H50.6407C51.3441 44.7234 52.0185 44.4448 52.5159 43.9495C53.0133 43.4541 53.2932 42.7825 53.294 42.082V10.8552C53.2932 10.1547 53.0132 9.48307 52.5159 8.98773C52.0185 8.49243 51.3441 8.21384 50.6407 8.21305H6.35893Z" fill="white"/>
</svg>
