<svg width="56" height="56" viewBox="0 0 56 56" fill="none" xmlns="http://www.w3.org/2000/svg">
<mask id="path-1-inside-1_9364_35613" fill="white">
<path fill-rule="evenodd" clip-rule="evenodd" d="M28.3869 41.5512C28.9889 41.5521 29.5659 41.7945 29.9916 42.2251C30.4174 42.6559 30.657 43.2403 30.6578 43.8495C30.6577 44.3039 30.5248 44.7485 30.2753 45.1263C30.0257 45.504 29.6709 45.7984 29.256 45.9722C28.841 46.1462 28.3842 46.1916 27.9436 46.103C27.503 46.0143 27.0981 45.7952 26.7804 45.4738C26.4629 45.1525 26.2461 44.7435 26.1585 44.2979C26.0708 43.8523 26.1159 43.39 26.2877 42.9702C26.4596 42.5503 26.7512 42.1907 27.1248 41.9382C27.4983 41.6858 27.9377 41.5512 28.3869 41.5512ZM28.1752 42.7754C27.9654 42.8176 27.7722 42.9215 27.6209 43.0746C27.4696 43.2277 27.3669 43.4231 27.3251 43.6354C27.2834 43.8477 27.3049 44.068 27.3867 44.2681C27.4686 44.4681 27.6078 44.6392 27.7857 44.7595C27.9637 44.8797 28.1729 44.9438 28.3869 44.9438C28.6738 44.9437 28.949 44.8287 29.1519 44.6235C29.3548 44.4182 29.4685 44.1397 29.4685 43.8495C29.4685 43.633 29.4052 43.4213 29.2864 43.2413C29.1675 43.0613 28.9984 42.9205 28.8006 42.8377C28.6029 42.7548 28.3851 42.7331 28.1752 42.7754Z"/>
<path fill-rule="evenodd" clip-rule="evenodd" d="M28.3869 35.884C28.6862 35.8845 28.9824 35.9448 29.2586 36.0613C29.5349 36.1778 29.7858 36.3484 29.9968 36.5632C30.2079 36.7782 30.3752 37.0332 30.4886 37.3135C30.602 37.5939 30.6594 37.8943 30.6578 38.1972C30.6548 38.651 30.5196 39.0938 30.2683 39.4697C30.0169 39.8456 29.6609 40.1378 29.2456 40.3095C28.8303 40.4811 28.3737 40.5244 27.9341 40.4341C27.4945 40.3437 27.0913 40.1233 26.7752 39.8014C26.4591 39.4794 26.244 39.0699 26.1576 38.6246C26.0712 38.1794 26.1172 37.7184 26.2894 37.2995C26.4618 36.8805 26.7533 36.522 27.1265 36.2701C27.4997 36.0184 27.9384 35.884 28.3869 35.884ZM28.1848 37.1064C27.974 37.1469 27.7798 37.2499 27.627 37.4022C27.4742 37.5547 27.369 37.7501 27.326 37.9629C27.2831 38.1756 27.3036 38.3965 27.385 38.5974C27.4665 38.7983 27.6057 38.9705 27.784 39.0914C27.9622 39.2123 28.1723 39.2766 28.3869 39.2766C28.6712 39.2765 28.9443 39.1636 29.1467 38.9616C29.3492 38.7595 29.4646 38.4849 29.4685 38.1972C29.4715 37.9801 29.4104 37.7667 29.2933 37.5847C29.1762 37.4028 29.0084 37.26 28.811 37.1749C28.6136 37.0897 28.3956 37.0659 28.1848 37.1064Z"/>
<path fill-rule="evenodd" clip-rule="evenodd" d="M30.6283 29.7746C31.2733 29.7746 31.8923 30.0337 32.3484 30.495C32.8045 30.9565 33.0605 31.5827 33.0605 32.2352C33.0605 32.8876 32.8043 33.5131 32.3484 33.9745C31.8923 34.4359 31.2733 34.6958 30.6283 34.6958H26.1394C25.4944 34.6958 24.8754 34.4359 24.4193 33.9745C23.9634 33.5132 23.7072 32.8876 23.7071 32.2352C23.7071 31.5827 23.9632 30.9565 24.4193 30.495C24.8754 30.0336 25.4944 29.7746 26.1394 29.7746H30.6283ZM26.1394 30.9777C25.8098 30.9777 25.4937 31.1105 25.2607 31.3463C25.0276 31.5821 24.8964 31.9018 24.8964 32.2352C24.8964 32.5686 25.0277 32.8884 25.2607 33.1242C25.4937 33.3598 25.8099 33.4919 26.1394 33.4919H30.6283C30.9579 33.4919 31.2748 33.36 31.5079 33.1242C31.7408 32.8884 31.8713 32.5685 31.8713 32.2352C31.8713 31.9019 31.7407 31.582 31.5079 31.3463C31.2748 31.1105 30.9579 30.9777 30.6283 30.9777H26.1394Z"/>
<path d="M23.2205 13.691C23.9987 13.6912 24.6292 14.3297 24.6292 15.117C24.629 15.9042 23.9986 16.542 23.2205 16.5421C22.4423 16.5421 21.8111 15.9043 21.8109 15.117C21.8109 14.3296 22.4422 13.691 23.2205 13.691Z"/>
<path d="M34.0668 13.691C34.845 13.6912 35.4755 14.3297 35.4755 15.117C35.4753 15.9042 34.8449 16.542 34.0668 16.5421C33.2885 16.5421 32.6573 15.9043 32.6572 15.117C32.6572 14.3296 33.2884 13.691 34.0668 13.691Z"/>
<path fill-rule="evenodd" clip-rule="evenodd" d="M21.8396 11.6885C22.3057 11.5262 22.8003 11.4635 23.2916 11.5042H34.1969C35.1429 11.5042 36.0503 11.8841 36.7193 12.5607C37.3884 13.2376 37.7646 14.1562 37.7646 15.1135C37.7583 16.0665 37.3799 16.9788 36.7115 17.6505C36.0431 18.3221 35.1389 18.6983 34.1969 18.6983H23.2916C22.8003 18.7389 22.3057 18.6762 21.8396 18.514C21.3734 18.3517 20.9452 18.0937 20.5827 17.7558C20.2201 17.4178 19.9305 17.0069 19.7326 16.55C19.5347 16.0933 19.4325 15.5999 19.4325 15.1012C19.4325 14.6025 19.5347 14.1092 19.7326 13.6524C19.9305 13.1955 20.2201 12.7847 20.5827 12.4467C20.9452 12.1087 21.3734 11.8507 21.8396 11.6885ZM23.3029 12.7073C22.6722 12.7074 22.067 12.9608 21.621 13.4119C21.1751 13.8632 20.9244 14.4754 20.9244 15.1135C20.9307 15.7453 21.1826 16.3492 21.6253 16.7949C22.0681 17.2406 22.667 17.492 23.2916 17.4951H34.1969C34.7836 17.4356 35.3279 17.1583 35.7235 16.7159C36.1191 16.2735 36.3377 15.6978 36.3377 15.1012C36.3377 14.5048 36.1189 13.9298 35.7235 13.4874C35.3279 13.045 34.7836 12.7669 34.1969 12.7073H23.3029Z"/>
<path fill-rule="evenodd" clip-rule="evenodd" d="M44.6805 1C45.1336 1 45.5727 1.15923 45.9227 1.45018C46.2727 1.74124 46.5124 2.14653 46.6002 2.59625C46.6878 3.04587 46.6185 3.51238 46.4041 3.91607C46.1896 4.31984 45.843 4.63613 45.4239 4.81029V11.6016C45.658 11.7337 45.8527 11.9269 45.9886 12.1606C46.1245 12.3942 46.1964 12.66 46.1968 12.9311V15.9296C46.1962 16.2547 46.0936 16.5713 45.9036 16.8335C45.7135 17.0957 45.4458 17.2906 45.1394 17.389C44.8331 17.4873 44.5038 17.4843 44.1991 17.3811C43.8944 17.2778 43.6295 17.0794 43.4436 16.8142C43.0549 18.7147 42.0315 20.422 40.5447 21.6486C39.0577 22.8751 37.198 23.5458 35.2794 23.5484H32.8775V25.5817H38.4611C38.7711 25.5824 39.0694 25.7017 39.2965 25.9152C39.5235 26.1287 39.6627 26.4212 39.6859 26.7339H42.9561C44.1389 26.7339 45.2737 27.2094 46.1101 28.0555C46.9464 28.9016 47.4164 30.0496 47.4164 31.2462C47.4155 31.6217 47.3671 31.9957 47.2733 32.3589L49.7263 39.8786C49.9246 40.4884 49.961 41.1402 49.8322 41.7688C49.7033 42.3975 49.4134 42.9809 48.9916 43.4607C49.3231 43.6284 49.6022 43.8862 49.7975 44.2049C49.9927 44.5235 50.0965 44.8909 50.0976 45.2658C50.098 45.6743 49.9744 46.0731 49.7437 46.4084C50.4325 46.4444 51.0933 46.6991 51.6312 47.1359C52.169 47.5726 52.5577 48.1694 52.7415 48.8418L52.8557 49.2924C52.9359 49.6088 52.7488 49.9313 52.4343 50.0185C52.1135 50.1076 51.7814 49.9186 51.6942 49.5972L51.5757 49.1604C51.5029 48.8929 51.3789 48.6422 51.2105 48.4232C51.0421 48.2043 50.8322 48.0215 50.5938 47.8844C50.3553 47.7473 50.0922 47.659 49.82 47.6247C49.5478 47.5903 49.2709 47.6098 49.0064 47.6835C48.742 47.7571 48.4942 47.8834 48.2777 48.0538C48.0614 48.2242 47.8806 48.4365 47.7452 48.6777C47.6096 48.919 47.5223 49.1851 47.4884 49.4605C47.4545 49.7358 47.4746 50.0153 47.5474 50.2827L47.5784 50.3985C47.6631 50.714 47.4778 51.0388 47.1632 51.1266C46.8451 51.2153 46.5155 51.0283 46.4285 50.7097L46.3989 50.6013C46.2319 49.988 46.2437 49.3391 46.4319 48.7321C46.6201 48.1251 46.9772 47.5857 47.4606 47.1789C47.063 47.0456 46.7173 46.7886 46.4718 46.4452C46.2264 46.102 46.0934 45.6895 46.0927 45.2658C46.0928 45.0733 46.121 44.8815 46.176 44.6972C45.4291 44.6773 44.7068 44.4247 44.1063 43.975C43.5058 43.5251 43.0565 42.8992 42.8199 42.1821L40.7381 35.77H39.692V42.4077C39.678 45.4435 38.4932 48.3545 36.3897 50.5197C34.2861 52.6849 31.4296 53.9334 28.4294 54H28.2125C25.2417 53.9974 22.3922 52.8085 20.2834 50.6917C19.169 49.5822 18.2827 48.2602 17.6759 46.8024C17.0692 45.3445 16.7534 43.7789 16.7478 42.1971V35.77H15.261L13.1801 42.1821C12.9436 42.8987 12.4954 43.5251 11.8954 43.975C11.2955 44.4248 10.573 44.6768 9.82662 44.6972C9.87924 44.8819 9.90583 45.0736 9.90642 45.2658C9.90575 45.6894 9.77357 46.102 9.52823 46.4452C9.28279 46.7885 8.93689 47.0456 8.53936 47.1789C9.02268 47.5857 9.37992 48.1252 9.56813 48.7321C9.75628 49.3391 9.76732 49.988 9.60022 50.6013L9.5716 50.7081C9.48609 51.0272 9.15669 51.2153 8.83844 51.1267C8.52337 51.039 8.33843 50.7131 8.42467 50.3977L8.45609 50.2827C8.60315 49.7419 8.5315 49.1636 8.25745 48.676C7.98341 48.1884 7.52898 47.8313 6.99448 47.6826C6.45986 47.5338 5.88826 47.6054 5.40623 47.8827C4.9244 48.1599 4.5714 48.6197 4.42431 49.1604L4.30446 49.602C4.21797 49.9207 3.88868 50.1082 3.57048 50.0199C3.25488 49.9323 3.06927 49.6062 3.15505 49.2901L3.27671 48.8418C3.46597 48.1744 3.85679 47.5836 4.39482 47.1525C4.93281 46.7216 5.59081 46.4717 6.27626 46.4382C6.11405 46.2011 6.0045 45.9314 5.95444 45.6476C5.9044 45.3634 5.91516 45.0714 5.98654 44.792C6.05792 44.5126 6.18751 44.2516 6.36734 44.0276C6.54709 43.8037 6.7728 43.622 7.02831 43.4941C6.60664 43.0137 6.31703 42.4296 6.18865 41.8004C6.06028 41.1712 6.09778 40.5185 6.29708 39.9084L8.74755 32.3888C8.65471 32.0253 8.60697 31.6515 8.60702 31.2761C8.60702 30.0795 9.077 28.9314 9.91336 28.0853C10.7497 27.2392 11.8845 26.7646 13.0673 26.7646H16.7834C16.8066 26.4518 16.9457 26.1586 17.1728 25.945C17.3998 25.7316 17.6983 25.6131 18.0082 25.6124H23.3038V23.5607H22.2186C20.3243 23.5576 18.487 22.9033 17.0089 21.7047C15.5307 20.5061 14.4994 18.8341 14.0839 16.9642C13.88 17.1954 13.6113 17.3588 13.3137 17.432C13.0159 17.5051 12.7029 17.4849 12.4167 17.374C12.1306 17.2631 11.8847 17.0664 11.7115 16.8107C11.5383 16.5549 11.4459 16.2519 11.447 15.9419V12.9337C11.4468 12.6626 11.5184 12.396 11.6543 12.1623C11.7902 11.9288 11.9856 11.7366 12.2198 11.6051V4.87347C11.8007 4.69931 11.4541 4.38304 11.2397 3.97925C11.0252 3.57557 10.956 3.10904 11.0436 2.65943C11.1314 2.20971 11.371 1.80443 11.7211 1.51336C12.0711 1.22236 12.5102 1.06318 12.9632 1.06318C13.4163 1.06322 13.8554 1.22233 14.2054 1.51336C14.5554 1.80442 14.7951 2.20974 14.8828 2.65943C14.9704 3.10898 14.9012 3.57562 14.6868 3.97925C14.4723 4.38302 14.1257 4.6993 13.7066 4.87347V11.6077C13.9947 11.7703 14.2223 12.0242 14.3546 12.3299C14.9257 10.6799 15.9889 9.24905 17.3975 8.23621C18.806 7.22348 20.4906 6.67831 22.2186 6.67506H35.2794C37.0453 6.67721 38.7653 7.24533 40.1916 8.29851C41.618 9.35187 42.6778 10.8361 43.2181 12.537C43.2693 12.3393 43.3591 12.1538 43.4826 11.9921C43.6062 11.8304 43.761 11.6954 43.9372 11.5954V4.81029C43.5182 4.63613 43.1723 4.31972 42.9578 3.91607C42.7434 3.51236 42.6741 3.04589 42.7618 2.59625C42.8495 2.14658 43.0884 1.74124 43.4384 1.45018C43.7884 1.15917 44.2275 1.00007 44.6805 1ZM18.0082 26.812C17.9965 26.8121 17.9852 26.8169 17.9769 26.8252C17.9686 26.8336 17.9639 26.8457 17.9639 26.8576V42.1971C17.9724 43.618 18.2587 45.0235 18.8062 46.332C19.3537 47.6406 20.1518 48.8267 21.1543 49.822C23.0394 51.7213 25.5902 52.79 28.2507 52.7943H28.4328C31.1172 52.7292 33.6707 51.6077 35.5509 49.6685C37.4313 47.7291 38.4904 45.1242 38.5028 42.4077V26.8576C38.502 26.8455 38.4968 26.8335 38.488 26.8252C38.4792 26.8168 38.4672 26.812 38.4551 26.812H18.0082ZM48.1025 44.4506C47.8893 44.4523 47.6855 44.5389 47.5352 44.6919C47.3849 44.8452 47.3002 45.0525 47.3002 45.2685C47.3002 45.4297 47.3478 45.5872 47.4363 45.7213C47.525 45.8554 47.6507 45.9607 47.7981 46.0223C47.9454 46.0838 48.1076 46.0995 48.2639 46.0679C48.4202 46.0362 48.5642 45.9584 48.6768 45.8441C48.7893 45.7298 48.8655 45.5839 48.8962 45.4255C48.927 45.2672 48.9108 45.1032 48.8494 44.9543C48.7879 44.8055 48.6838 44.6784 48.551 44.5892C48.4182 44.5002 48.2619 44.4526 48.1025 44.4532V44.4506ZM7.76389 44.4629C7.60751 44.4942 7.46377 44.5718 7.35099 44.6858C7.23813 44.8 7.1608 44.946 7.1298 45.1044C7.09889 45.2626 7.11539 45.4267 7.17664 45.5756C7.23799 45.7247 7.34208 45.8522 7.47504 45.9415C7.60793 46.0308 7.76398 46.0781 7.92349 46.0776C8.13606 46.0768 8.33956 45.9909 8.48992 45.8389C8.64022 45.6868 8.72585 45.4808 8.72673 45.2658C8.72731 45.1044 8.67972 44.9458 8.59141 44.8113C8.50318 44.677 8.37765 44.5723 8.23056 44.5103C8.08321 44.4482 7.92046 44.4315 7.76389 44.4629ZM7.4386 40.2542C7.3211 40.5654 7.26705 40.898 7.27987 41.2309C7.29272 41.5635 7.37228 41.8901 7.5132 42.1909C7.65427 42.4919 7.8547 42.7609 8.10132 42.9816C8.34796 43.2023 8.63625 43.3707 8.94879 43.4756C9.26121 43.5805 9.59141 43.6201 9.91943 43.5924C10.2476 43.5646 10.567 43.4701 10.858 43.3142C11.149 43.1582 11.4057 42.9441 11.6126 42.685C11.8196 42.4259 11.9723 42.127 12.062 41.8066L14.0241 35.7603H13.0612C12.476 35.7614 11.8963 35.6452 11.3559 35.4181C10.8154 35.1909 10.3247 34.8573 9.91249 34.437C9.80658 34.3248 9.70697 34.2065 9.61497 34.0824L9.55251 34.007C9.53766 33.983 9.51738 33.9616 9.4996 33.9376L7.4386 40.2542ZM46.4822 34.0157L46.4197 34.0947C46.323 34.2191 46.2192 34.3376 46.1083 34.4493C45.6962 34.8696 45.2054 35.2032 44.6649 35.4303C44.1245 35.6575 43.5448 35.7736 42.9596 35.7726H41.9959L43.9675 41.8066C44.059 42.1244 44.2126 42.4206 44.4195 42.6771C44.6263 42.9334 44.8821 43.145 45.1715 43.2993C45.461 43.4536 45.7788 43.5471 46.1049 43.5748C46.4307 43.6024 46.7588 43.564 47.0694 43.4607C47.3803 43.3573 47.6681 43.1909 47.9143 42.9728C48.1604 42.7548 48.3609 42.4888 48.5033 42.1909C48.6456 41.8931 48.7275 41.5692 48.7436 41.2388C48.7596 40.9081 48.709 40.5772 48.5961 40.2665L46.536 33.9499L46.4822 34.0157ZM39.692 34.5818H42.9622C43.3911 34.582 43.8161 34.4958 44.2121 34.329C44.608 34.1623 44.9675 33.9183 45.2695 33.6103C45.4502 33.4295 45.6089 33.2271 45.7423 33.0083C46.0458 32.5075 46.2118 31.9336 46.2237 31.3463C46.2355 30.7591 46.0928 30.1795 45.8099 29.6666C45.5269 29.1537 45.1141 28.7256 44.6138 28.4276C44.1133 28.1295 43.5429 27.9718 42.9622 27.9704H39.692V34.5818ZM13.0673 27.9704C12.4882 27.9726 11.92 28.1304 11.4209 28.4276C10.9218 28.7248 10.5096 29.1511 10.2265 29.6623C9.94348 30.1735 9.79908 30.7517 9.80927 31.3375C9.81951 31.9232 9.98407 32.4953 10.2846 32.996C10.4166 33.2158 10.5755 33.4184 10.7574 33.598C11.0594 33.906 11.4188 34.1509 11.8148 34.3176C12.2106 34.4842 12.6351 34.5697 13.0638 34.5695H16.7478V27.9704H13.0673ZM24.493 25.6001H31.6883V23.5484H24.493V25.6001ZM22.2186 7.88695C20.3234 7.88695 18.506 8.64877 17.1659 10.0045C15.8258 11.3602 15.0728 13.1989 15.0728 15.1161C15.0728 17.0335 15.8258 18.872 17.1659 20.2278C18.506 21.5836 20.3234 22.3453 22.2186 22.3453H35.2794C37.1747 22.3453 38.9929 21.5836 40.333 20.2278C41.6729 18.8721 42.4261 17.0333 42.4261 15.1161C42.4261 13.199 41.673 11.3602 40.333 10.0045C38.9929 8.64869 37.1747 7.88695 35.2794 7.88695H22.2186Z"/>
</mask>
<path fill-rule="evenodd" clip-rule="evenodd" d="M28.3869 41.5512C28.9889 41.5521 29.5659 41.7945 29.9916 42.2251C30.4174 42.6559 30.657 43.2403 30.6578 43.8495C30.6577 44.3039 30.5248 44.7485 30.2753 45.1263C30.0257 45.504 29.6709 45.7984 29.256 45.9722C28.841 46.1462 28.3842 46.1916 27.9436 46.103C27.503 46.0143 27.0981 45.7952 26.7804 45.4738C26.4629 45.1525 26.2461 44.7435 26.1585 44.2979C26.0708 43.8523 26.1159 43.39 26.2877 42.9702C26.4596 42.5503 26.7512 42.1907 27.1248 41.9382C27.4983 41.6858 27.9377 41.5512 28.3869 41.5512ZM28.1752 42.7754C27.9654 42.8176 27.7722 42.9215 27.6209 43.0746C27.4696 43.2277 27.3669 43.4231 27.3251 43.6354C27.2834 43.8477 27.3049 44.068 27.3867 44.2681C27.4686 44.4681 27.6078 44.6392 27.7857 44.7595C27.9637 44.8797 28.1729 44.9438 28.3869 44.9438C28.6738 44.9437 28.949 44.8287 29.1519 44.6235C29.3548 44.4182 29.4685 44.1397 29.4685 43.8495C29.4685 43.633 29.4052 43.4213 29.2864 43.2413C29.1675 43.0613 28.9984 42.9205 28.8006 42.8377C28.6029 42.7548 28.3851 42.7331 28.1752 42.7754Z" fill="white"/>
<path fill-rule="evenodd" clip-rule="evenodd" d="M28.3869 35.884C28.6862 35.8845 28.9824 35.9448 29.2586 36.0613C29.5349 36.1778 29.7858 36.3484 29.9968 36.5632C30.2079 36.7782 30.3752 37.0332 30.4886 37.3135C30.602 37.5939 30.6594 37.8943 30.6578 38.1972C30.6548 38.651 30.5196 39.0938 30.2683 39.4697C30.0169 39.8456 29.6609 40.1378 29.2456 40.3095C28.8303 40.4811 28.3737 40.5244 27.9341 40.4341C27.4945 40.3437 27.0913 40.1233 26.7752 39.8014C26.4591 39.4794 26.244 39.0699 26.1576 38.6246C26.0712 38.1794 26.1172 37.7184 26.2894 37.2995C26.4618 36.8805 26.7533 36.522 27.1265 36.2701C27.4997 36.0184 27.9384 35.884 28.3869 35.884ZM28.1848 37.1064C27.974 37.1469 27.7798 37.2499 27.627 37.4022C27.4742 37.5547 27.369 37.7501 27.326 37.9629C27.2831 38.1756 27.3036 38.3965 27.385 38.5974C27.4665 38.7983 27.6057 38.9705 27.784 39.0914C27.9622 39.2123 28.1723 39.2766 28.3869 39.2766C28.6712 39.2765 28.9443 39.1636 29.1467 38.9616C29.3492 38.7595 29.4646 38.4849 29.4685 38.1972C29.4715 37.9801 29.4104 37.7667 29.2933 37.5847C29.1762 37.4028 29.0084 37.26 28.811 37.1749C28.6136 37.0897 28.3956 37.0659 28.1848 37.1064Z" fill="white"/>
<path fill-rule="evenodd" clip-rule="evenodd" d="M30.6283 29.7746C31.2733 29.7746 31.8923 30.0337 32.3484 30.495C32.8045 30.9565 33.0605 31.5827 33.0605 32.2352C33.0605 32.8876 32.8043 33.5131 32.3484 33.9745C31.8923 34.4359 31.2733 34.6958 30.6283 34.6958H26.1394C25.4944 34.6958 24.8754 34.4359 24.4193 33.9745C23.9634 33.5132 23.7072 32.8876 23.7071 32.2352C23.7071 31.5827 23.9632 30.9565 24.4193 30.495C24.8754 30.0336 25.4944 29.7746 26.1394 29.7746H30.6283ZM26.1394 30.9777C25.8098 30.9777 25.4937 31.1105 25.2607 31.3463C25.0276 31.5821 24.8964 31.9018 24.8964 32.2352C24.8964 32.5686 25.0277 32.8884 25.2607 33.1242C25.4937 33.3598 25.8099 33.4919 26.1394 33.4919H30.6283C30.9579 33.4919 31.2748 33.36 31.5079 33.1242C31.7408 32.8884 31.8713 32.5685 31.8713 32.2352C31.8713 31.9019 31.7407 31.582 31.5079 31.3463C31.2748 31.1105 30.9579 30.9777 30.6283 30.9777H26.1394Z" fill="white"/>
<path d="M23.2205 13.691C23.9987 13.6912 24.6292 14.3297 24.6292 15.117C24.629 15.9042 23.9986 16.542 23.2205 16.5421C22.4423 16.5421 21.8111 15.9043 21.8109 15.117C21.8109 14.3296 22.4422 13.691 23.2205 13.691Z" fill="white"/>
<path d="M34.0668 13.691C34.845 13.6912 35.4755 14.3297 35.4755 15.117C35.4753 15.9042 34.8449 16.542 34.0668 16.5421C33.2885 16.5421 32.6573 15.9043 32.6572 15.117C32.6572 14.3296 33.2884 13.691 34.0668 13.691Z" fill="white"/>
<path fill-rule="evenodd" clip-rule="evenodd" d="M21.8396 11.6885C22.3057 11.5262 22.8003 11.4635 23.2916 11.5042H34.1969C35.1429 11.5042 36.0503 11.8841 36.7193 12.5607C37.3884 13.2376 37.7646 14.1562 37.7646 15.1135C37.7583 16.0665 37.3799 16.9788 36.7115 17.6505C36.0431 18.3221 35.1389 18.6983 34.1969 18.6983H23.2916C22.8003 18.7389 22.3057 18.6762 21.8396 18.514C21.3734 18.3517 20.9452 18.0937 20.5827 17.7558C20.2201 17.4178 19.9305 17.0069 19.7326 16.55C19.5347 16.0933 19.4325 15.5999 19.4325 15.1012C19.4325 14.6025 19.5347 14.1092 19.7326 13.6524C19.9305 13.1955 20.2201 12.7847 20.5827 12.4467C20.9452 12.1087 21.3734 11.8507 21.8396 11.6885ZM23.3029 12.7073C22.6722 12.7074 22.067 12.9608 21.621 13.4119C21.1751 13.8632 20.9244 14.4754 20.9244 15.1135C20.9307 15.7453 21.1826 16.3492 21.6253 16.7949C22.0681 17.2406 22.667 17.492 23.2916 17.4951H34.1969C34.7836 17.4356 35.3279 17.1583 35.7235 16.7159C36.1191 16.2735 36.3377 15.6978 36.3377 15.1012C36.3377 14.5048 36.1189 13.9298 35.7235 13.4874C35.3279 13.045 34.7836 12.7669 34.1969 12.7073H23.3029Z" fill="white"/>
<path fill-rule="evenodd" clip-rule="evenodd" d="M44.6805 1C45.1336 1 45.5727 1.15923 45.9227 1.45018C46.2727 1.74124 46.5124 2.14653 46.6002 2.59625C46.6878 3.04587 46.6185 3.51238 46.4041 3.91607C46.1896 4.31984 45.843 4.63613 45.4239 4.81029V11.6016C45.658 11.7337 45.8527 11.9269 45.9886 12.1606C46.1245 12.3942 46.1964 12.66 46.1968 12.9311V15.9296C46.1962 16.2547 46.0936 16.5713 45.9036 16.8335C45.7135 17.0957 45.4458 17.2906 45.1394 17.389C44.8331 17.4873 44.5038 17.4843 44.1991 17.3811C43.8944 17.2778 43.6295 17.0794 43.4436 16.8142C43.0549 18.7147 42.0315 20.422 40.5447 21.6486C39.0577 22.8751 37.198 23.5458 35.2794 23.5484H32.8775V25.5817H38.4611C38.7711 25.5824 39.0694 25.7017 39.2965 25.9152C39.5235 26.1287 39.6627 26.4212 39.6859 26.7339H42.9561C44.1389 26.7339 45.2737 27.2094 46.1101 28.0555C46.9464 28.9016 47.4164 30.0496 47.4164 31.2462C47.4155 31.6217 47.3671 31.9957 47.2733 32.3589L49.7263 39.8786C49.9246 40.4884 49.961 41.1402 49.8322 41.7688C49.7033 42.3975 49.4134 42.9809 48.9916 43.4607C49.3231 43.6284 49.6022 43.8862 49.7975 44.2049C49.9927 44.5235 50.0965 44.8909 50.0976 45.2658C50.098 45.6743 49.9744 46.0731 49.7437 46.4084C50.4325 46.4444 51.0933 46.6991 51.6312 47.1359C52.169 47.5726 52.5577 48.1694 52.7415 48.8418L52.8557 49.2924C52.9359 49.6088 52.7488 49.9313 52.4343 50.0185C52.1135 50.1076 51.7814 49.9186 51.6942 49.5972L51.5757 49.1604C51.5029 48.8929 51.3789 48.6422 51.2105 48.4232C51.0421 48.2043 50.8322 48.0215 50.5938 47.8844C50.3553 47.7473 50.0922 47.659 49.82 47.6247C49.5478 47.5903 49.2709 47.6098 49.0064 47.6835C48.742 47.7571 48.4942 47.8834 48.2777 48.0538C48.0614 48.2242 47.8806 48.4365 47.7452 48.6777C47.6096 48.919 47.5223 49.1851 47.4884 49.4605C47.4545 49.7358 47.4746 50.0153 47.5474 50.2827L47.5784 50.3985C47.6631 50.714 47.4778 51.0388 47.1632 51.1266C46.8451 51.2153 46.5155 51.0283 46.4285 50.7097L46.3989 50.6013C46.2319 49.988 46.2437 49.3391 46.4319 48.7321C46.6201 48.1251 46.9772 47.5857 47.4606 47.1789C47.063 47.0456 46.7173 46.7886 46.4718 46.4452C46.2264 46.102 46.0934 45.6895 46.0927 45.2658C46.0928 45.0733 46.121 44.8815 46.176 44.6972C45.4291 44.6773 44.7068 44.4247 44.1063 43.975C43.5058 43.5251 43.0565 42.8992 42.8199 42.1821L40.7381 35.77H39.692V42.4077C39.678 45.4435 38.4932 48.3545 36.3897 50.5197C34.2861 52.6849 31.4296 53.9334 28.4294 54H28.2125C25.2417 53.9974 22.3922 52.8085 20.2834 50.6917C19.169 49.5822 18.2827 48.2602 17.6759 46.8024C17.0692 45.3445 16.7534 43.7789 16.7478 42.1971V35.77H15.261L13.1801 42.1821C12.9436 42.8987 12.4954 43.5251 11.8954 43.975C11.2955 44.4248 10.573 44.6768 9.82662 44.6972C9.87924 44.8819 9.90583 45.0736 9.90642 45.2658C9.90575 45.6894 9.77357 46.102 9.52823 46.4452C9.28279 46.7885 8.93689 47.0456 8.53936 47.1789C9.02268 47.5857 9.37992 48.1252 9.56813 48.7321C9.75628 49.3391 9.76732 49.988 9.60022 50.6013L9.5716 50.7081C9.48609 51.0272 9.15669 51.2153 8.83844 51.1267C8.52337 51.039 8.33843 50.7131 8.42467 50.3977L8.45609 50.2827C8.60315 49.7419 8.5315 49.1636 8.25745 48.676C7.98341 48.1884 7.52898 47.8313 6.99448 47.6826C6.45986 47.5338 5.88826 47.6054 5.40623 47.8827C4.9244 48.1599 4.5714 48.6197 4.42431 49.1604L4.30446 49.602C4.21797 49.9207 3.88868 50.1082 3.57048 50.0199C3.25488 49.9323 3.06927 49.6062 3.15505 49.2901L3.27671 48.8418C3.46597 48.1744 3.85679 47.5836 4.39482 47.1525C4.93281 46.7216 5.59081 46.4717 6.27626 46.4382C6.11405 46.2011 6.0045 45.9314 5.95444 45.6476C5.9044 45.3634 5.91516 45.0714 5.98654 44.792C6.05792 44.5126 6.18751 44.2516 6.36734 44.0276C6.54709 43.8037 6.7728 43.622 7.02831 43.4941C6.60664 43.0137 6.31703 42.4296 6.18865 41.8004C6.06028 41.1712 6.09778 40.5185 6.29708 39.9084L8.74755 32.3888C8.65471 32.0253 8.60697 31.6515 8.60702 31.2761C8.60702 30.0795 9.077 28.9314 9.91336 28.0853C10.7497 27.2392 11.8845 26.7646 13.0673 26.7646H16.7834C16.8066 26.4518 16.9457 26.1586 17.1728 25.945C17.3998 25.7316 17.6983 25.6131 18.0082 25.6124H23.3038V23.5607H22.2186C20.3243 23.5576 18.487 22.9033 17.0089 21.7047C15.5307 20.5061 14.4994 18.8341 14.0839 16.9642C13.88 17.1954 13.6113 17.3588 13.3137 17.432C13.0159 17.5051 12.7029 17.4849 12.4167 17.374C12.1306 17.2631 11.8847 17.0664 11.7115 16.8107C11.5383 16.5549 11.4459 16.2519 11.447 15.9419V12.9337C11.4468 12.6626 11.5184 12.396 11.6543 12.1623C11.7902 11.9288 11.9856 11.7366 12.2198 11.6051V4.87347C11.8007 4.69931 11.4541 4.38304 11.2397 3.97925C11.0252 3.57557 10.956 3.10904 11.0436 2.65943C11.1314 2.20971 11.371 1.80443 11.7211 1.51336C12.0711 1.22236 12.5102 1.06318 12.9632 1.06318C13.4163 1.06322 13.8554 1.22233 14.2054 1.51336C14.5554 1.80442 14.7951 2.20974 14.8828 2.65943C14.9704 3.10898 14.9012 3.57562 14.6868 3.97925C14.4723 4.38302 14.1257 4.6993 13.7066 4.87347V11.6077C13.9947 11.7703 14.2223 12.0242 14.3546 12.3299C14.9257 10.6799 15.9889 9.24905 17.3975 8.23621C18.806 7.22348 20.4906 6.67831 22.2186 6.67506H35.2794C37.0453 6.67721 38.7653 7.24533 40.1916 8.29851C41.618 9.35187 42.6778 10.8361 43.2181 12.537C43.2693 12.3393 43.3591 12.1538 43.4826 11.9921C43.6062 11.8304 43.761 11.6954 43.9372 11.5954V4.81029C43.5182 4.63613 43.1723 4.31972 42.9578 3.91607C42.7434 3.51236 42.6741 3.04589 42.7618 2.59625C42.8495 2.14658 43.0884 1.74124 43.4384 1.45018C43.7884 1.15917 44.2275 1.00007 44.6805 1ZM18.0082 26.812C17.9965 26.8121 17.9852 26.8169 17.9769 26.8252C17.9686 26.8336 17.9639 26.8457 17.9639 26.8576V42.1971C17.9724 43.618 18.2587 45.0235 18.8062 46.332C19.3537 47.6406 20.1518 48.8267 21.1543 49.822C23.0394 51.7213 25.5902 52.79 28.2507 52.7943H28.4328C31.1172 52.7292 33.6707 51.6077 35.5509 49.6685C37.4313 47.7291 38.4904 45.1242 38.5028 42.4077V26.8576C38.502 26.8455 38.4968 26.8335 38.488 26.8252C38.4792 26.8168 38.4672 26.812 38.4551 26.812H18.0082ZM48.1025 44.4506C47.8893 44.4523 47.6855 44.5389 47.5352 44.6919C47.3849 44.8452 47.3002 45.0525 47.3002 45.2685C47.3002 45.4297 47.3478 45.5872 47.4363 45.7213C47.525 45.8554 47.6507 45.9607 47.7981 46.0223C47.9454 46.0838 48.1076 46.0995 48.2639 46.0679C48.4202 46.0362 48.5642 45.9584 48.6768 45.8441C48.7893 45.7298 48.8655 45.5839 48.8962 45.4255C48.927 45.2672 48.9108 45.1032 48.8494 44.9543C48.7879 44.8055 48.6838 44.6784 48.551 44.5892C48.4182 44.5002 48.2619 44.4526 48.1025 44.4532V44.4506ZM7.76389 44.4629C7.60751 44.4942 7.46377 44.5718 7.35099 44.6858C7.23813 44.8 7.1608 44.946 7.1298 45.1044C7.09889 45.2626 7.11539 45.4267 7.17664 45.5756C7.23799 45.7247 7.34208 45.8522 7.47504 45.9415C7.60793 46.0308 7.76398 46.0781 7.92349 46.0776C8.13606 46.0768 8.33956 45.9909 8.48992 45.8389C8.64022 45.6868 8.72585 45.4808 8.72673 45.2658C8.72731 45.1044 8.67972 44.9458 8.59141 44.8113C8.50318 44.677 8.37765 44.5723 8.23056 44.5103C8.08321 44.4482 7.92046 44.4315 7.76389 44.4629ZM7.4386 40.2542C7.3211 40.5654 7.26705 40.898 7.27987 41.2309C7.29272 41.5635 7.37228 41.8901 7.5132 42.1909C7.65427 42.4919 7.8547 42.7609 8.10132 42.9816C8.34796 43.2023 8.63625 43.3707 8.94879 43.4756C9.26121 43.5805 9.59141 43.6201 9.91943 43.5924C10.2476 43.5646 10.567 43.4701 10.858 43.3142C11.149 43.1582 11.4057 42.9441 11.6126 42.685C11.8196 42.4259 11.9723 42.127 12.062 41.8066L14.0241 35.7603H13.0612C12.476 35.7614 11.8963 35.6452 11.3559 35.4181C10.8154 35.1909 10.3247 34.8573 9.91249 34.437C9.80658 34.3248 9.70697 34.2065 9.61497 34.0824L9.55251 34.007C9.53766 33.983 9.51738 33.9616 9.4996 33.9376L7.4386 40.2542ZM46.4822 34.0157L46.4197 34.0947C46.323 34.2191 46.2192 34.3376 46.1083 34.4493C45.6962 34.8696 45.2054 35.2032 44.6649 35.4303C44.1245 35.6575 43.5448 35.7736 42.9596 35.7726H41.9959L43.9675 41.8066C44.059 42.1244 44.2126 42.4206 44.4195 42.6771C44.6263 42.9334 44.8821 43.145 45.1715 43.2993C45.461 43.4536 45.7788 43.5471 46.1049 43.5748C46.4307 43.6024 46.7588 43.564 47.0694 43.4607C47.3803 43.3573 47.6681 43.1909 47.9143 42.9728C48.1604 42.7548 48.3609 42.4888 48.5033 42.1909C48.6456 41.8931 48.7275 41.5692 48.7436 41.2388C48.7596 40.9081 48.709 40.5772 48.5961 40.2665L46.536 33.9499L46.4822 34.0157ZM39.692 34.5818H42.9622C43.3911 34.582 43.8161 34.4958 44.2121 34.329C44.608 34.1623 44.9675 33.9183 45.2695 33.6103C45.4502 33.4295 45.6089 33.2271 45.7423 33.0083C46.0458 32.5075 46.2118 31.9336 46.2237 31.3463C46.2355 30.7591 46.0928 30.1795 45.8099 29.6666C45.5269 29.1537 45.1141 28.7256 44.6138 28.4276C44.1133 28.1295 43.5429 27.9718 42.9622 27.9704H39.692V34.5818ZM13.0673 27.9704C12.4882 27.9726 11.92 28.1304 11.4209 28.4276C10.9218 28.7248 10.5096 29.1511 10.2265 29.6623C9.94348 30.1735 9.79908 30.7517 9.80927 31.3375C9.81951 31.9232 9.98407 32.4953 10.2846 32.996C10.4166 33.2158 10.5755 33.4184 10.7574 33.598C11.0594 33.906 11.4188 34.1509 11.8148 34.3176C12.2106 34.4842 12.6351 34.5697 13.0638 34.5695H16.7478V27.9704H13.0673ZM24.493 25.6001H31.6883V23.5484H24.493V25.6001ZM22.2186 7.88695C20.3234 7.88695 18.506 8.64877 17.1659 10.0045C15.8258 11.3602 15.0728 13.1989 15.0728 15.1161C15.0728 17.0335 15.8258 18.872 17.1659 20.2278C18.506 21.5836 20.3234 22.3453 22.2186 22.3453H35.2794C37.1747 22.3453 38.9929 21.5836 40.333 20.2278C41.6729 18.8721 42.4261 17.0333 42.4261 15.1161C42.4261 13.199 41.673 11.3602 40.333 10.0045C38.9929 8.64869 37.1747 7.88695 35.2794 7.88695H22.2186Z" fill="white"/>
<path fill-rule="evenodd" clip-rule="evenodd" d="M28.3869 41.5512C28.9889 41.5521 29.5659 41.7945 29.9916 42.2251C30.4174 42.6559 30.657 43.2403 30.6578 43.8495C30.6577 44.3039 30.5248 44.7485 30.2753 45.1263C30.0257 45.504 29.6709 45.7984 29.256 45.9722C28.841 46.1462 28.3842 46.1916 27.9436 46.103C27.503 46.0143 27.0981 45.7952 26.7804 45.4738C26.4629 45.1525 26.2461 44.7435 26.1585 44.2979C26.0708 43.8523 26.1159 43.39 26.2877 42.9702C26.4596 42.5503 26.7512 42.1907 27.1248 41.9382C27.4983 41.6858 27.9377 41.5512 28.3869 41.5512ZM28.1752 42.7754C27.9654 42.8176 27.7722 42.9215 27.6209 43.0746C27.4696 43.2277 27.3669 43.4231 27.3251 43.6354C27.2834 43.8477 27.3049 44.068 27.3867 44.2681C27.4686 44.4681 27.6078 44.6392 27.7857 44.7595C27.9637 44.8797 28.1729 44.9438 28.3869 44.9438C28.6738 44.9437 28.949 44.8287 29.1519 44.6235C29.3548 44.4182 29.4685 44.1397 29.4685 43.8495C29.4685 43.633 29.4052 43.4213 29.2864 43.2413C29.1675 43.0613 28.9984 42.9205 28.8006 42.8377C28.6029 42.7548 28.3851 42.7331 28.1752 42.7754Z" stroke="#55C2BC" stroke-width="0.2" mask="url(#path-1-inside-1_9364_35613)"/>
<path fill-rule="evenodd" clip-rule="evenodd" d="M28.3869 35.884C28.6862 35.8845 28.9824 35.9448 29.2586 36.0613C29.5349 36.1778 29.7858 36.3484 29.9968 36.5632C30.2079 36.7782 30.3752 37.0332 30.4886 37.3135C30.602 37.5939 30.6594 37.8943 30.6578 38.1972C30.6548 38.651 30.5196 39.0938 30.2683 39.4697C30.0169 39.8456 29.6609 40.1378 29.2456 40.3095C28.8303 40.4811 28.3737 40.5244 27.9341 40.4341C27.4945 40.3437 27.0913 40.1233 26.7752 39.8014C26.4591 39.4794 26.244 39.0699 26.1576 38.6246C26.0712 38.1794 26.1172 37.7184 26.2894 37.2995C26.4618 36.8805 26.7533 36.522 27.1265 36.2701C27.4997 36.0184 27.9384 35.884 28.3869 35.884ZM28.1848 37.1064C27.974 37.1469 27.7798 37.2499 27.627 37.4022C27.4742 37.5547 27.369 37.7501 27.326 37.9629C27.2831 38.1756 27.3036 38.3965 27.385 38.5974C27.4665 38.7983 27.6057 38.9705 27.784 39.0914C27.9622 39.2123 28.1723 39.2766 28.3869 39.2766C28.6712 39.2765 28.9443 39.1636 29.1467 38.9616C29.3492 38.7595 29.4646 38.4849 29.4685 38.1972C29.4715 37.9801 29.4104 37.7667 29.2933 37.5847C29.1762 37.4028 29.0084 37.26 28.811 37.1749C28.6136 37.0897 28.3956 37.0659 28.1848 37.1064Z" stroke="#55C2BC" stroke-width="0.2" mask="url(#path-1-inside-1_9364_35613)"/>
<path fill-rule="evenodd" clip-rule="evenodd" d="M30.6283 29.7746C31.2733 29.7746 31.8923 30.0337 32.3484 30.495C32.8045 30.9565 33.0605 31.5827 33.0605 32.2352C33.0605 32.8876 32.8043 33.5131 32.3484 33.9745C31.8923 34.4359 31.2733 34.6958 30.6283 34.6958H26.1394C25.4944 34.6958 24.8754 34.4359 24.4193 33.9745C23.9634 33.5132 23.7072 32.8876 23.7071 32.2352C23.7071 31.5827 23.9632 30.9565 24.4193 30.495C24.8754 30.0336 25.4944 29.7746 26.1394 29.7746H30.6283ZM26.1394 30.9777C25.8098 30.9777 25.4937 31.1105 25.2607 31.3463C25.0276 31.5821 24.8964 31.9018 24.8964 32.2352C24.8964 32.5686 25.0277 32.8884 25.2607 33.1242C25.4937 33.3598 25.8099 33.4919 26.1394 33.4919H30.6283C30.9579 33.4919 31.2748 33.36 31.5079 33.1242C31.7408 32.8884 31.8713 32.5685 31.8713 32.2352C31.8713 31.9019 31.7407 31.582 31.5079 31.3463C31.2748 31.1105 30.9579 30.9777 30.6283 30.9777H26.1394Z" stroke="#55C2BC" stroke-width="0.2" mask="url(#path-1-inside-1_9364_35613)"/>
<path d="M23.2205 13.691C23.9987 13.6912 24.6292 14.3297 24.6292 15.117C24.629 15.9042 23.9986 16.542 23.2205 16.5421C22.4423 16.5421 21.8111 15.9043 21.8109 15.117C21.8109 14.3296 22.4422 13.691 23.2205 13.691Z" stroke="#55C2BC" stroke-width="0.2" mask="url(#path-1-inside-1_9364_35613)"/>
<path d="M34.0668 13.691C34.845 13.6912 35.4755 14.3297 35.4755 15.117C35.4753 15.9042 34.8449 16.542 34.0668 16.5421C33.2885 16.5421 32.6573 15.9043 32.6572 15.117C32.6572 14.3296 33.2884 13.691 34.0668 13.691Z" stroke="#55C2BC" stroke-width="0.2" mask="url(#path-1-inside-1_9364_35613)"/>
<path fill-rule="evenodd" clip-rule="evenodd" d="M21.8396 11.6885C22.3057 11.5262 22.8003 11.4635 23.2916 11.5042H34.1969C35.1429 11.5042 36.0503 11.8841 36.7193 12.5607C37.3884 13.2376 37.7646 14.1562 37.7646 15.1135C37.7583 16.0665 37.3799 16.9788 36.7115 17.6505C36.0431 18.3221 35.1389 18.6983 34.1969 18.6983H23.2916C22.8003 18.7389 22.3057 18.6762 21.8396 18.514C21.3734 18.3517 20.9452 18.0937 20.5827 17.7558C20.2201 17.4178 19.9305 17.0069 19.7326 16.55C19.5347 16.0933 19.4325 15.5999 19.4325 15.1012C19.4325 14.6025 19.5347 14.1092 19.7326 13.6524C19.9305 13.1955 20.2201 12.7847 20.5827 12.4467C20.9452 12.1087 21.3734 11.8507 21.8396 11.6885ZM23.3029 12.7073C22.6722 12.7074 22.067 12.9608 21.621 13.4119C21.1751 13.8632 20.9244 14.4754 20.9244 15.1135C20.9307 15.7453 21.1826 16.3492 21.6253 16.7949C22.0681 17.2406 22.667 17.492 23.2916 17.4951H34.1969C34.7836 17.4356 35.3279 17.1583 35.7235 16.7159C36.1191 16.2735 36.3377 15.6978 36.3377 15.1012C36.3377 14.5048 36.1189 13.9298 35.7235 13.4874C35.3279 13.045 34.7836 12.7669 34.1969 12.7073H23.3029Z" stroke="#55C2BC" stroke-width="0.2" mask="url(#path-1-inside-1_9364_35613)"/>
<path fill-rule="evenodd" clip-rule="evenodd" d="M44.6805 1C45.1336 1 45.5727 1.15923 45.9227 1.45018C46.2727 1.74124 46.5124 2.14653 46.6002 2.59625C46.6878 3.04587 46.6185 3.51238 46.4041 3.91607C46.1896 4.31984 45.843 4.63613 45.4239 4.81029V11.6016C45.658 11.7337 45.8527 11.9269 45.9886 12.1606C46.1245 12.3942 46.1964 12.66 46.1968 12.9311V15.9296C46.1962 16.2547 46.0936 16.5713 45.9036 16.8335C45.7135 17.0957 45.4458 17.2906 45.1394 17.389C44.8331 17.4873 44.5038 17.4843 44.1991 17.3811C43.8944 17.2778 43.6295 17.0794 43.4436 16.8142C43.0549 18.7147 42.0315 20.422 40.5447 21.6486C39.0577 22.8751 37.198 23.5458 35.2794 23.5484H32.8775V25.5817H38.4611C38.7711 25.5824 39.0694 25.7017 39.2965 25.9152C39.5235 26.1287 39.6627 26.4212 39.6859 26.7339H42.9561C44.1389 26.7339 45.2737 27.2094 46.1101 28.0555C46.9464 28.9016 47.4164 30.0496 47.4164 31.2462C47.4155 31.6217 47.3671 31.9957 47.2733 32.3589L49.7263 39.8786C49.9246 40.4884 49.961 41.1402 49.8322 41.7688C49.7033 42.3975 49.4134 42.9809 48.9916 43.4607C49.3231 43.6284 49.6022 43.8862 49.7975 44.2049C49.9927 44.5235 50.0965 44.8909 50.0976 45.2658C50.098 45.6743 49.9744 46.0731 49.7437 46.4084C50.4325 46.4444 51.0933 46.6991 51.6312 47.1359C52.169 47.5726 52.5577 48.1694 52.7415 48.8418L52.8557 49.2924C52.9359 49.6088 52.7488 49.9313 52.4343 50.0185C52.1135 50.1076 51.7814 49.9186 51.6942 49.5972L51.5757 49.1604C51.5029 48.8929 51.3789 48.6422 51.2105 48.4232C51.0421 48.2043 50.8322 48.0215 50.5938 47.8844C50.3553 47.7473 50.0922 47.659 49.82 47.6247C49.5478 47.5903 49.2709 47.6098 49.0064 47.6835C48.742 47.7571 48.4942 47.8834 48.2777 48.0538C48.0614 48.2242 47.8806 48.4365 47.7452 48.6777C47.6096 48.919 47.5223 49.1851 47.4884 49.4605C47.4545 49.7358 47.4746 50.0153 47.5474 50.2827L47.5784 50.3985C47.6631 50.714 47.4778 51.0388 47.1632 51.1266C46.8451 51.2153 46.5155 51.0283 46.4285 50.7097L46.3989 50.6013C46.2319 49.988 46.2437 49.3391 46.4319 48.7321C46.6201 48.1251 46.9772 47.5857 47.4606 47.1789C47.063 47.0456 46.7173 46.7886 46.4718 46.4452C46.2264 46.102 46.0934 45.6895 46.0927 45.2658C46.0928 45.0733 46.121 44.8815 46.176 44.6972C45.4291 44.6773 44.7068 44.4247 44.1063 43.975C43.5058 43.5251 43.0565 42.8992 42.8199 42.1821L40.7381 35.77H39.692V42.4077C39.678 45.4435 38.4932 48.3545 36.3897 50.5197C34.2861 52.6849 31.4296 53.9334 28.4294 54H28.2125C25.2417 53.9974 22.3922 52.8085 20.2834 50.6917C19.169 49.5822 18.2827 48.2602 17.6759 46.8024C17.0692 45.3445 16.7534 43.7789 16.7478 42.1971V35.77H15.261L13.1801 42.1821C12.9436 42.8987 12.4954 43.5251 11.8954 43.975C11.2955 44.4248 10.573 44.6768 9.82662 44.6972C9.87924 44.8819 9.90583 45.0736 9.90642 45.2658C9.90575 45.6894 9.77357 46.102 9.52823 46.4452C9.28279 46.7885 8.93689 47.0456 8.53936 47.1789C9.02268 47.5857 9.37992 48.1252 9.56813 48.7321C9.75628 49.3391 9.76732 49.988 9.60022 50.6013L9.5716 50.7081C9.48609 51.0272 9.15669 51.2153 8.83844 51.1267C8.52337 51.039 8.33843 50.7131 8.42467 50.3977L8.45609 50.2827C8.60315 49.7419 8.5315 49.1636 8.25745 48.676C7.98341 48.1884 7.52898 47.8313 6.99448 47.6826C6.45986 47.5338 5.88826 47.6054 5.40623 47.8827C4.9244 48.1599 4.5714 48.6197 4.42431 49.1604L4.30446 49.602C4.21797 49.9207 3.88868 50.1082 3.57048 50.0199C3.25488 49.9323 3.06927 49.6062 3.15505 49.2901L3.27671 48.8418C3.46597 48.1744 3.85679 47.5836 4.39482 47.1525C4.93281 46.7216 5.59081 46.4717 6.27626 46.4382C6.11405 46.2011 6.0045 45.9314 5.95444 45.6476C5.9044 45.3634 5.91516 45.0714 5.98654 44.792C6.05792 44.5126 6.18751 44.2516 6.36734 44.0276C6.54709 43.8037 6.7728 43.622 7.02831 43.4941C6.60664 43.0137 6.31703 42.4296 6.18865 41.8004C6.06028 41.1712 6.09778 40.5185 6.29708 39.9084L8.74755 32.3888C8.65471 32.0253 8.60697 31.6515 8.60702 31.2761C8.60702 30.0795 9.077 28.9314 9.91336 28.0853C10.7497 27.2392 11.8845 26.7646 13.0673 26.7646H16.7834C16.8066 26.4518 16.9457 26.1586 17.1728 25.945C17.3998 25.7316 17.6983 25.6131 18.0082 25.6124H23.3038V23.5607H22.2186C20.3243 23.5576 18.487 22.9033 17.0089 21.7047C15.5307 20.5061 14.4994 18.8341 14.0839 16.9642C13.88 17.1954 13.6113 17.3588 13.3137 17.432C13.0159 17.5051 12.7029 17.4849 12.4167 17.374C12.1306 17.2631 11.8847 17.0664 11.7115 16.8107C11.5383 16.5549 11.4459 16.2519 11.447 15.9419V12.9337C11.4468 12.6626 11.5184 12.396 11.6543 12.1623C11.7902 11.9288 11.9856 11.7366 12.2198 11.6051V4.87347C11.8007 4.69931 11.4541 4.38304 11.2397 3.97925C11.0252 3.57557 10.956 3.10904 11.0436 2.65943C11.1314 2.20971 11.371 1.80443 11.7211 1.51336C12.0711 1.22236 12.5102 1.06318 12.9632 1.06318C13.4163 1.06322 13.8554 1.22233 14.2054 1.51336C14.5554 1.80442 14.7951 2.20974 14.8828 2.65943C14.9704 3.10898 14.9012 3.57562 14.6868 3.97925C14.4723 4.38302 14.1257 4.6993 13.7066 4.87347V11.6077C13.9947 11.7703 14.2223 12.0242 14.3546 12.3299C14.9257 10.6799 15.9889 9.24905 17.3975 8.23621C18.806 7.22348 20.4906 6.67831 22.2186 6.67506H35.2794C37.0453 6.67721 38.7653 7.24533 40.1916 8.29851C41.618 9.35187 42.6778 10.8361 43.2181 12.537C43.2693 12.3393 43.3591 12.1538 43.4826 11.9921C43.6062 11.8304 43.761 11.6954 43.9372 11.5954V4.81029C43.5182 4.63613 43.1723 4.31972 42.9578 3.91607C42.7434 3.51236 42.6741 3.04589 42.7618 2.59625C42.8495 2.14658 43.0884 1.74124 43.4384 1.45018C43.7884 1.15917 44.2275 1.00007 44.6805 1ZM18.0082 26.812C17.9965 26.8121 17.9852 26.8169 17.9769 26.8252C17.9686 26.8336 17.9639 26.8457 17.9639 26.8576V42.1971C17.9724 43.618 18.2587 45.0235 18.8062 46.332C19.3537 47.6406 20.1518 48.8267 21.1543 49.822C23.0394 51.7213 25.5902 52.79 28.2507 52.7943H28.4328C31.1172 52.7292 33.6707 51.6077 35.5509 49.6685C37.4313 47.7291 38.4904 45.1242 38.5028 42.4077V26.8576C38.502 26.8455 38.4968 26.8335 38.488 26.8252C38.4792 26.8168 38.4672 26.812 38.4551 26.812H18.0082ZM48.1025 44.4506C47.8893 44.4523 47.6855 44.5389 47.5352 44.6919C47.3849 44.8452 47.3002 45.0525 47.3002 45.2685C47.3002 45.4297 47.3478 45.5872 47.4363 45.7213C47.525 45.8554 47.6507 45.9607 47.7981 46.0223C47.9454 46.0838 48.1076 46.0995 48.2639 46.0679C48.4202 46.0362 48.5642 45.9584 48.6768 45.8441C48.7893 45.7298 48.8655 45.5839 48.8962 45.4255C48.927 45.2672 48.9108 45.1032 48.8494 44.9543C48.7879 44.8055 48.6838 44.6784 48.551 44.5892C48.4182 44.5002 48.2619 44.4526 48.1025 44.4532V44.4506ZM7.76389 44.4629C7.60751 44.4942 7.46377 44.5718 7.35099 44.6858C7.23813 44.8 7.1608 44.946 7.1298 45.1044C7.09889 45.2626 7.11539 45.4267 7.17664 45.5756C7.23799 45.7247 7.34208 45.8522 7.47504 45.9415C7.60793 46.0308 7.76398 46.0781 7.92349 46.0776C8.13606 46.0768 8.33956 45.9909 8.48992 45.8389C8.64022 45.6868 8.72585 45.4808 8.72673 45.2658C8.72731 45.1044 8.67972 44.9458 8.59141 44.8113C8.50318 44.677 8.37765 44.5723 8.23056 44.5103C8.08321 44.4482 7.92046 44.4315 7.76389 44.4629ZM7.4386 40.2542C7.3211 40.5654 7.26705 40.898 7.27987 41.2309C7.29272 41.5635 7.37228 41.8901 7.5132 42.1909C7.65427 42.4919 7.8547 42.7609 8.10132 42.9816C8.34796 43.2023 8.63625 43.3707 8.94879 43.4756C9.26121 43.5805 9.59141 43.6201 9.91943 43.5924C10.2476 43.5646 10.567 43.4701 10.858 43.3142C11.149 43.1582 11.4057 42.9441 11.6126 42.685C11.8196 42.4259 11.9723 42.127 12.062 41.8066L14.0241 35.7603H13.0612C12.476 35.7614 11.8963 35.6452 11.3559 35.4181C10.8154 35.1909 10.3247 34.8573 9.91249 34.437C9.80658 34.3248 9.70697 34.2065 9.61497 34.0824L9.55251 34.007C9.53766 33.983 9.51738 33.9616 9.4996 33.9376L7.4386 40.2542ZM46.4822 34.0157L46.4197 34.0947C46.323 34.2191 46.2192 34.3376 46.1083 34.4493C45.6962 34.8696 45.2054 35.2032 44.6649 35.4303C44.1245 35.6575 43.5448 35.7736 42.9596 35.7726H41.9959L43.9675 41.8066C44.059 42.1244 44.2126 42.4206 44.4195 42.6771C44.6263 42.9334 44.8821 43.145 45.1715 43.2993C45.461 43.4536 45.7788 43.5471 46.1049 43.5748C46.4307 43.6024 46.7588 43.564 47.0694 43.4607C47.3803 43.3573 47.6681 43.1909 47.9143 42.9728C48.1604 42.7548 48.3609 42.4888 48.5033 42.1909C48.6456 41.8931 48.7275 41.5692 48.7436 41.2388C48.7596 40.9081 48.709 40.5772 48.5961 40.2665L46.536 33.9499L46.4822 34.0157ZM39.692 34.5818H42.9622C43.3911 34.582 43.8161 34.4958 44.2121 34.329C44.608 34.1623 44.9675 33.9183 45.2695 33.6103C45.4502 33.4295 45.6089 33.2271 45.7423 33.0083C46.0458 32.5075 46.2118 31.9336 46.2237 31.3463C46.2355 30.7591 46.0928 30.1795 45.8099 29.6666C45.5269 29.1537 45.1141 28.7256 44.6138 28.4276C44.1133 28.1295 43.5429 27.9718 42.9622 27.9704H39.692V34.5818ZM13.0673 27.9704C12.4882 27.9726 11.92 28.1304 11.4209 28.4276C10.9218 28.7248 10.5096 29.1511 10.2265 29.6623C9.94348 30.1735 9.79908 30.7517 9.80927 31.3375C9.81951 31.9232 9.98407 32.4953 10.2846 32.996C10.4166 33.2158 10.5755 33.4184 10.7574 33.598C11.0594 33.906 11.4188 34.1509 11.8148 34.3176C12.2106 34.4842 12.6351 34.5697 13.0638 34.5695H16.7478V27.9704H13.0673ZM24.493 25.6001H31.6883V23.5484H24.493V25.6001ZM22.2186 7.88695C20.3234 7.88695 18.506 8.64877 17.1659 10.0045C15.8258 11.3602 15.0728 13.1989 15.0728 15.1161C15.0728 17.0335 15.8258 18.872 17.1659 20.2278C18.506 21.5836 20.3234 22.3453 22.2186 22.3453H35.2794C37.1747 22.3453 38.9929 21.5836 40.333 20.2278C41.6729 18.8721 42.4261 17.0333 42.4261 15.1161C42.4261 13.199 41.673 11.3602 40.333 10.0045C38.9929 8.64869 37.1747 7.88695 35.2794 7.88695H22.2186Z" stroke="#55C2BC" stroke-width="0.2" mask="url(#path-1-inside-1_9364_35613)"/>
</svg>
