<svg width="56" height="56" viewBox="0 0 56 56" fill="none" xmlns="http://www.w3.org/2000/svg">
<path fill-rule="evenodd" clip-rule="evenodd" d="M23.3992 32.8049C23.6386 32.8056 23.8681 32.9012 24.0371 33.0707C24.2061 33.2403 24.301 33.4701 24.301 33.7095C24.301 33.8885 24.2478 34.0637 24.1483 34.2125C24.0488 34.3613 23.9074 34.4772 23.742 34.5455C23.5765 34.6139 23.3944 34.6317 23.2189 34.5965C23.0433 34.5614 22.8821 34.475 22.7557 34.3482C22.6293 34.2214 22.5434 34.0599 22.5088 33.8842C22.4742 33.7086 22.4926 33.5266 22.5614 33.3614C22.6304 33.1961 22.7467 33.055 22.8959 32.9559C23.045 32.8569 23.2202 32.8043 23.3992 32.8049ZM23.3498 33.4659C23.3026 33.4752 23.2591 33.4982 23.225 33.5322C23.1909 33.5663 23.1677 33.6098 23.1584 33.6571C23.1491 33.7044 23.1542 33.7534 23.1729 33.7978C23.1916 33.8423 23.2231 33.8803 23.2635 33.9068C23.3037 33.9332 23.351 33.9469 23.3992 33.9464V33.9491C23.463 33.9484 23.524 33.9226 23.5689 33.8772C23.6138 33.8318 23.6388 33.7705 23.6388 33.7067C23.6394 33.6585 23.6257 33.6113 23.5993 33.571C23.5729 33.5307 23.535 33.4991 23.4906 33.4804C23.4462 33.4617 23.3972 33.4566 23.3498 33.4659Z" fill="white"/>
<path fill-rule="evenodd" clip-rule="evenodd" d="M33.5556 32.8049C33.7956 32.8049 34.0256 32.9002 34.1952 33.0699C34.3649 33.2395 34.4603 33.4696 34.4603 33.7095C34.4603 33.8884 34.4072 34.0635 34.3078 34.2122C34.2084 34.3609 34.067 34.4768 33.9018 34.5453C33.7365 34.6137 33.5547 34.6317 33.3792 34.5968C33.2037 34.5619 33.0426 34.4756 32.9161 34.3491C32.7896 34.2225 32.7032 34.0614 32.6683 33.8859C32.6334 33.7105 32.6514 33.5286 32.7199 33.3633C32.7883 33.198 32.9044 33.0567 33.0532 32.9573C33.2019 32.8579 33.3768 32.8049 33.5556 32.8049ZM33.5063 33.4659C33.459 33.4752 33.4153 33.4981 33.3812 33.5322C33.3471 33.5663 33.3241 33.6098 33.3149 33.6571C33.3056 33.7044 33.3107 33.7534 33.3293 33.7978C33.3481 33.8423 33.3796 33.8803 33.4199 33.9068C33.4602 33.9332 33.5075 33.9469 33.5556 33.9464V33.9491C33.6195 33.9484 33.6805 33.9226 33.7254 33.8772C33.7702 33.8318 33.7953 33.7705 33.7953 33.7067C33.7959 33.6585 33.7821 33.6113 33.7557 33.571C33.7293 33.5307 33.6914 33.4991 33.647 33.4804C33.6026 33.4617 33.5536 33.4567 33.5063 33.4659Z" fill="white"/>
<path fill-rule="evenodd" clip-rule="evenodd" d="M23.3992 22.4745C23.6374 22.476 23.8656 22.5711 24.0343 22.7392C24.203 22.9074 24.2988 23.1353 24.301 23.3735C24.3021 23.5528 24.2499 23.7284 24.1511 23.878C24.0522 24.0275 23.9112 24.1443 23.7459 24.2135C23.5805 24.2827 23.3984 24.3015 23.2225 24.267C23.0466 24.2325 22.8846 24.1464 22.7576 24.0198C22.6307 23.8933 22.5444 23.7318 22.5093 23.5561C22.4743 23.3803 22.4922 23.198 22.5609 23.0324C22.6296 22.8669 22.7461 22.7254 22.8953 22.6261C23.0446 22.5268 23.2199 22.4739 23.3992 22.4745ZM23.3585 23.1411C23.3124 23.1502 23.2699 23.1727 23.2364 23.2058C23.203 23.2388 23.18 23.2812 23.1704 23.3273C23.1608 23.3732 23.1648 23.421 23.1821 23.4647C23.1994 23.5084 23.2293 23.5462 23.2679 23.5731C23.3065 23.6 23.3522 23.6149 23.3992 23.616V23.6188C23.4316 23.6196 23.4641 23.6138 23.4942 23.6018C23.5243 23.5897 23.5516 23.5717 23.5745 23.5488C23.5974 23.5259 23.6156 23.4984 23.6277 23.4683C23.6397 23.4382 23.6455 23.4059 23.6447 23.3735C23.6441 23.3265 23.6296 23.2806 23.6032 23.2417C23.5767 23.2028 23.5394 23.1724 23.4959 23.1545C23.4524 23.1367 23.4046 23.132 23.3585 23.1411Z" fill="white"/>
<path fill-rule="evenodd" clip-rule="evenodd" d="M33.5556 22.4745C33.7943 22.4752 34.0231 22.5701 34.1924 22.7384C34.3617 22.9067 34.458 23.1349 34.4603 23.3735C34.4614 23.5527 34.4093 23.7282 34.3106 23.8777C34.2119 24.0272 34.0708 24.1439 33.9057 24.2132C33.7405 24.2825 33.5584 24.3013 33.3826 24.267C33.2068 24.2327 33.0451 24.1472 32.918 24.0209C32.7909 23.8946 32.7042 23.7334 32.6689 23.5577C32.6335 23.3821 32.651 23.2 32.7193 23.0344C32.7876 22.8688 32.9035 22.7271 33.0523 22.6275C33.2012 22.5278 33.3765 22.4745 33.5556 22.4745ZM33.5088 23.1411C33.4623 23.1504 33.4197 23.1734 33.3862 23.2069C33.3527 23.2404 33.3297 23.283 33.3204 23.3295C33.3112 23.376 33.316 23.4242 33.3341 23.468C33.3522 23.5118 33.383 23.5492 33.4224 23.5756C33.4618 23.6019 33.5082 23.616 33.5556 23.616V23.6188C33.5874 23.6188 33.6189 23.6126 33.6482 23.6004C33.6774 23.5882 33.7039 23.5702 33.7262 23.5477C33.7485 23.5252 33.7662 23.4983 33.778 23.4688C33.7899 23.4395 33.7957 23.408 33.7953 23.3763C33.7953 23.3289 33.7812 23.2825 33.7549 23.2431C33.7286 23.2037 33.6911 23.1729 33.6473 23.1548C33.6035 23.1366 33.5553 23.1319 33.5088 23.1411Z" fill="white"/>
<path fill-rule="evenodd" clip-rule="evenodd" d="M34.4435 20.6051C34.9774 20.6058 35.489 20.8184 35.8662 21.1962C36.2434 21.5739 36.4553 22.0859 36.4554 22.6197V34.3886C36.4554 34.9225 36.2435 35.4347 35.8662 35.8124C35.489 36.1901 34.9773 36.4028 34.4435 36.4035H22.6718C22.1405 36.399 21.6324 36.1847 21.2583 35.8074C20.8842 35.4301 20.6742 34.92 20.6742 34.3886V22.6197C20.6742 22.0883 20.8842 21.5785 21.2583 21.2012C21.6324 20.8239 22.1405 20.6096 22.6718 20.6051H34.4435ZM22.6718 21.7493C22.5582 21.7493 22.4455 21.772 22.3407 21.816C22.236 21.8599 22.1409 21.9242 22.0612 22.0052C21.9815 22.0862 21.9189 22.1823 21.8767 22.2878C21.8345 22.3933 21.8138 22.5061 21.8157 22.6197V34.3886C21.8157 34.6157 21.906 34.8334 22.0665 34.9939C22.2271 35.1545 22.4447 35.2448 22.6718 35.2448H34.4435C34.6706 35.2448 34.8883 35.1545 35.0488 34.9939C35.2094 34.8334 35.2997 34.6157 35.2997 34.3886V22.6197C35.3015 22.5061 35.2808 22.3933 35.2386 22.2878C35.1965 22.1823 35.1338 22.0862 35.0541 22.0052C34.9745 21.9242 34.8794 21.8599 34.7746 21.816C34.6698 21.772 34.5572 21.7493 34.4435 21.7493H22.6718Z" fill="white"/>
<path fill-rule="evenodd" clip-rule="evenodd" d="M26.0818 15.3741C26.1365 15.3741 26.191 15.3849 26.2415 15.4059C26.292 15.4268 26.338 15.4575 26.3767 15.4962C26.4153 15.5349 26.446 15.5808 26.467 15.6313C26.4879 15.6819 26.4985 15.7361 26.4985 15.7907V18.0481H27.6687V15.7907C27.6687 15.736 27.6795 15.6819 27.7004 15.6313C27.7214 15.5808 27.752 15.5349 27.7907 15.4962C27.8294 15.4575 27.8753 15.4268 27.9259 15.4059C27.9764 15.385 28.0306 15.3741 28.0853 15.3741H28.8074C28.8619 15.3741 28.9159 15.3849 28.9662 15.4059C29.0166 15.4269 29.0624 15.4577 29.1008 15.4965C29.1393 15.5352 29.1697 15.5811 29.1903 15.6316C29.2109 15.6821 29.2213 15.7362 29.2209 15.7907V18.0481H30.3912V15.7907C30.3912 15.736 30.402 15.6819 30.4229 15.6313C30.4439 15.5808 30.4745 15.5349 30.5132 15.4962C30.5519 15.4575 30.5978 15.4268 30.6484 15.4059C30.6989 15.385 30.7531 15.3741 30.8078 15.3741H31.5268C31.5815 15.3741 31.6357 15.385 31.6862 15.4059C31.7368 15.4268 31.783 15.4575 31.8216 15.4962C31.8603 15.5348 31.891 15.5808 31.9119 15.6313C31.9329 15.6819 31.9434 15.7361 31.9434 15.7907V18.0481H33.1109V15.7907C33.1109 15.7361 33.1214 15.6819 33.1423 15.6313C33.1633 15.5808 33.194 15.5348 33.2326 15.4962C33.2713 15.4575 33.3173 15.4268 33.3678 15.4059C33.4184 15.3849 33.4728 15.3741 33.5275 15.3741H34.2493C34.3039 15.3741 34.358 15.3849 34.4084 15.4059C34.4588 15.4269 34.5046 15.4577 34.543 15.4965C34.5815 15.5352 34.6119 15.5811 34.6325 15.6316C34.6531 15.6821 34.6635 15.7362 34.6631 15.7907V18.0481H36.0045C36.802 18.0489 37.5667 18.366 38.1306 18.9299C38.6945 19.4938 39.0116 20.2585 39.0123 21.056V22.2858H41.2725C41.3271 22.2858 41.3812 22.2966 41.4316 22.3176C41.482 22.3386 41.5278 22.3695 41.5662 22.4082C41.6046 22.4469 41.6351 22.4928 41.6557 22.5433C41.6763 22.5938 41.6867 22.6479 41.6863 22.7025V23.4217C41.6863 23.5317 41.6428 23.6372 41.5654 23.7152C41.4879 23.7933 41.3825 23.8376 41.2725 23.8384H39.0123V25.0055H41.2725C41.3825 25.0063 41.4879 25.0507 41.5654 25.1287C41.6428 25.2067 41.6863 25.3122 41.6863 25.4222V26.1442C41.6863 26.254 41.6427 26.3593 41.5651 26.4369C41.4875 26.5144 41.3822 26.5581 41.2725 26.5581H39.0123V27.728H41.2725C41.3271 27.728 41.3812 27.7388 41.4316 27.7598C41.482 27.7808 41.5278 27.8117 41.5662 27.8504C41.6046 27.8891 41.6351 27.9351 41.6557 27.9855C41.6763 28.036 41.6867 28.0901 41.6863 28.1447V28.8639C41.6863 28.9739 41.6428 29.0794 41.5654 29.1574C41.4879 29.2355 41.3825 29.2798 41.2725 29.2806H39.0123V30.4505H41.2725C41.3825 30.4513 41.4879 30.4954 41.5654 30.5734C41.6429 30.6515 41.6863 30.7571 41.6863 30.8671V31.5892C41.6863 31.6989 41.6427 31.8043 41.5651 31.8818C41.4875 31.9594 41.3822 32.0031 41.2725 32.0031H39.0123V33.173H41.2725C41.3822 33.173 41.4875 33.2166 41.5651 33.2942C41.6427 33.3718 41.6863 33.4771 41.6863 33.5869V34.3087C41.6863 34.4186 41.6429 34.5243 41.5654 34.6024C41.4879 34.6804 41.3825 34.7248 41.2725 34.7256H39.0123V35.9526C39.0116 36.75 38.6944 37.5146 38.1306 38.0784C37.5667 38.6424 36.802 38.9597 36.0045 38.9605H34.6631V41.2206C34.6631 41.3306 34.6197 41.4361 34.5422 41.5141C34.4647 41.5922 34.3593 41.6365 34.2493 41.6373H33.5275C33.4172 41.6365 33.3115 41.5924 33.2335 41.5144C33.1555 41.4364 33.1116 41.3309 33.1109 41.2206V38.9605H31.9434V41.2206C31.9427 41.3309 31.8987 41.4364 31.8208 41.5144C31.7428 41.5924 31.6371 41.6365 31.5268 41.6373H30.8078C30.7524 41.6384 30.6971 41.6284 30.6456 41.608C30.5941 41.5876 30.5472 41.557 30.5076 41.5183C30.468 41.4795 30.4366 41.4331 30.4151 41.382C30.3937 41.3309 30.3825 41.2761 30.3825 41.2206V38.9605H29.2126V41.2206C29.2126 41.3306 29.1689 41.4361 29.0914 41.5141C29.0138 41.5921 28.9087 41.6365 28.7987 41.6373H28.0767C27.9664 41.6365 27.8609 41.5923 27.7829 41.5144C27.705 41.4364 27.6608 41.3309 27.66 41.2206V38.9605H26.4929V41.2206C26.4921 41.3309 26.4479 41.4364 26.37 41.5144C26.292 41.5923 26.1865 41.6365 26.0762 41.6373H25.357C25.248 41.6365 25.1436 41.5931 25.0663 41.5163C24.9889 41.4395 24.9449 41.3352 24.9434 41.2262V38.9661H23.7732V41.2262C23.7732 41.3362 23.7297 41.4419 23.6522 41.52C23.5747 41.598 23.4693 41.6421 23.3593 41.6429H22.6347C22.5245 41.6421 22.4187 41.5979 22.3407 41.52C22.2628 41.442 22.2186 41.3364 22.2178 41.2262V38.9661H21.105C20.3075 38.9653 19.5428 38.6482 18.9789 38.0843C18.415 37.5204 18.0979 36.7557 18.0972 35.9582V34.7311H15.837C15.727 34.7304 15.6216 34.686 15.5441 34.608C15.4667 34.5299 15.4232 34.4245 15.4232 34.3145V33.5924C15.4232 33.5381 15.4339 33.4843 15.4547 33.4341C15.4754 33.3839 15.506 33.3382 15.5444 33.2998C15.5828 33.2614 15.6285 33.2309 15.6787 33.2101C15.7289 33.1893 15.7827 33.1786 15.837 33.1786H18.0972V32.0086H15.837C15.7273 32.0086 15.622 31.965 15.5444 31.8874C15.4668 31.8098 15.4232 31.7045 15.4232 31.5948V30.873C15.4232 30.763 15.4666 30.6573 15.5441 30.5793C15.6216 30.5012 15.727 30.4568 15.837 30.4561H18.0972V29.2889H15.837C15.727 29.2882 15.6216 29.2441 15.5441 29.166C15.4666 29.088 15.4232 28.9823 15.4232 28.8723V28.1533C15.4228 28.0987 15.4332 28.0444 15.4538 27.9939C15.4744 27.9434 15.5048 27.8974 15.5433 27.8587C15.5817 27.82 15.6275 27.7894 15.6779 27.7684C15.7283 27.7475 15.7824 27.7367 15.837 27.7367H18.0972V26.5665H15.837C15.7827 26.5665 15.7289 26.5557 15.6787 26.535C15.6285 26.5142 15.5828 26.4836 15.5444 26.4452C15.506 26.4068 15.4754 26.3613 15.4547 26.3112C15.4339 26.261 15.4232 26.2072 15.4232 26.1529V25.4308C15.4232 25.3208 15.4666 25.2151 15.5441 25.1371C15.6216 25.059 15.727 25.0149 15.837 25.0142H18.0972V23.847H15.837C15.727 23.8463 15.6216 23.8019 15.5441 23.7238C15.4667 23.6458 15.4232 23.5403 15.4232 23.4304V22.7111C15.4228 22.6566 15.4332 22.6025 15.4538 22.552C15.4744 22.5015 15.5049 22.4555 15.5433 22.4168C15.5817 22.3781 15.6275 22.3472 15.6779 22.3262C15.7283 22.3053 15.7824 22.2945 15.837 22.2945H18.0972V21.0646C18.0979 20.2671 18.415 19.5024 18.9789 18.9385C19.5428 18.3746 20.3075 18.0575 21.105 18.0567H22.2209V15.7994C22.2209 15.6889 22.2648 15.583 22.343 15.5048C22.4211 15.4267 22.527 15.3827 22.6375 15.3827H23.3593C23.4676 15.3835 23.5715 15.4266 23.6483 15.5029C23.7251 15.5791 23.7689 15.6825 23.7704 15.7907V18.0481H24.9403V15.7907C24.9403 15.7361 24.9512 15.6819 24.9721 15.6313C24.993 15.5808 25.0237 15.5349 25.0624 15.4962C25.101 15.4575 25.147 15.4268 25.1975 15.4059C25.2481 15.385 25.3023 15.3741 25.357 15.3741H26.0818ZM21.1106 19.1924C20.6166 19.1932 20.1431 19.3899 19.7938 19.7392C19.4445 20.0885 19.2481 20.562 19.2473 21.056V35.9496C19.2481 36.4438 19.4444 36.9177 19.7935 37.2675C20.1427 37.6172 20.6164 37.8144 21.1106 37.8159H36.0045C36.4987 37.8144 36.9723 37.6172 37.3215 37.2675C37.6707 36.9177 37.8673 36.4438 37.868 35.9496V21.056C37.8673 20.562 37.6705 20.0885 37.3213 19.7392C36.972 19.3899 36.4985 19.1932 36.0045 19.1924H21.1106Z" fill="white"/>
<path fill-rule="evenodd" clip-rule="evenodd" d="M33.8555 1C34.2831 1 34.6962 1.15483 35.0185 1.43587C35.3407 1.71692 35.5503 2.10526 35.6084 2.52888C35.6666 2.95247 35.5694 3.38289 35.3348 3.74033C35.1001 4.09779 34.7438 4.3581 34.3321 4.47327V6.98173C34.3326 7.12647 34.3044 7.26993 34.249 7.40367C34.1937 7.53736 34.1122 7.65865 34.0096 7.76066L31.2587 10.5091C31.224 10.5451 31.2045 10.5931 31.2044 10.6431V12.9746H33.379V10.2321C33.379 10.1695 33.3913 10.1076 33.4152 10.0498C33.4391 9.99198 33.4743 9.93938 33.5186 9.89513C33.5628 9.85089 33.6154 9.81568 33.6732 9.79173C33.731 9.76782 33.793 9.7555 33.8555 9.7555C33.918 9.7555 33.98 9.76782 34.0378 9.79173C34.0956 9.81568 34.1482 9.85089 34.1924 9.89513C34.2367 9.93938 34.2719 9.99198 34.2958 10.0498C34.3198 10.1076 34.3321 10.1695 34.3321 10.2321V12.9746H36.2926V10.1524C36.2921 10.0012 36.3218 9.85137 36.3796 9.71175C36.4374 9.57218 36.5221 9.44537 36.6293 9.33887L39.2205 6.74764C39.0352 6.3599 38.9966 5.91814 39.1118 5.50414C39.2271 5.0901 39.4885 4.73176 39.8476 4.49557C40.2066 4.25938 40.6393 4.16127 41.0651 4.21939C41.4909 4.27753 41.8814 4.48787 42.164 4.8116C42.4466 5.13535 42.6022 5.55065 42.6024 5.98041C42.6025 6.4102 42.447 6.82559 42.1646 7.1495C41.8821 7.47342 41.4918 7.68392 41.066 7.74227C40.6402 7.80061 40.2076 7.70291 39.8484 7.46693L37.3029 10.0125C37.2665 10.05 37.246 10.1001 37.2457 10.1524V12.9746H38.958V11.2367C38.958 11.0484 39.172 10.8942 39.4345 10.8942C39.6971 10.8942 39.9111 11.0484 39.9111 11.2367V12.9746H41.0813C41.879 12.9754 42.6439 13.2926 43.2082 13.8564C43.7726 14.4202 44.0904 15.1847 44.092 15.9825V17.3096H45.7557C45.944 17.3096 46.0982 17.5236 46.0982 17.7861C46.0982 18.0486 45.944 18.2627 45.7557 18.2627H44.092V19.975H46.8401C46.8923 19.9747 46.9425 19.9542 46.98 19.9178L49.5255 17.3723C49.3095 17.0414 49.21 16.6479 49.2429 16.2542C49.2758 15.8605 49.4393 15.489 49.7072 15.1985C49.9751 14.9081 50.3324 14.7151 50.7222 14.6506C51.112 14.5862 51.5121 14.6538 51.8592 14.8424C52.2064 15.031 52.4807 15.33 52.6387 15.6921C52.7967 16.0542 52.8294 16.4589 52.7315 16.8417C52.6336 17.2245 52.4108 17.5638 52.0983 17.8057C51.7859 18.0475 51.4016 18.178 51.0065 18.1769C50.7424 18.1761 50.4819 18.1159 50.2445 18.0002L47.6533 20.5914C47.5468 20.6985 47.42 20.7833 47.2804 20.8411C47.1408 20.8989 46.9912 20.9286 46.8401 20.9281H44.092V22.8886H46.7601C46.8865 22.8886 47.0079 22.9389 47.0973 23.0282C47.1866 23.1176 47.2367 23.2388 47.2367 23.3652C47.2366 23.4915 47.1866 23.6128 47.0973 23.7021C47.0079 23.7915 46.8865 23.8417 46.7601 23.8417H44.0833V26.0163H46.3407C46.3907 26.0162 46.4387 25.9967 46.4747 25.962L49.2201 23.2111C49.3221 23.1084 49.4436 23.027 49.5773 22.9717C49.7111 22.9163 49.8545 22.8881 49.9993 22.8886H52.5077C52.6121 22.5154 52.8361 22.1866 53.1454 21.9531C53.4547 21.7195 53.8324 21.594 54.22 21.5958H54.2314C54.5604 21.5974 54.8825 21.6908 55.1614 21.8653C55.4403 22.0398 55.6652 22.2885 55.8105 22.5837C55.9558 22.879 56.016 23.2091 55.9841 23.5366C55.9522 23.864 55.8296 24.1762 55.6301 24.4378C55.4306 24.6995 55.1619 24.9003 54.8546 25.0178C54.5472 25.1353 54.2132 25.1647 53.89 25.1028C53.5669 25.0409 53.2674 24.89 53.0253 24.6672C52.7831 24.4444 52.6078 24.1586 52.5192 23.8417H50.0107C49.9723 23.8424 49.9354 23.8576 49.9079 23.8844L47.157 26.6356C47.0509 26.7415 46.9249 26.8255 46.7863 26.8828C46.6477 26.94 46.4992 26.9695 46.3493 26.9694H44.092V28.9241H50.6556C50.7708 28.5124 51.0311 28.1563 51.3885 27.9217C51.746 27.6871 52.1764 27.5899 52.6 27.648C53.0236 27.7062 53.4119 27.9155 53.693 28.2377C53.974 28.56 54.1288 28.9731 54.1289 29.4007C54.1289 29.8282 53.974 30.2414 53.693 30.5637C53.4119 30.8859 53.0236 31.0955 52.6 31.1536C52.1764 31.2118 51.746 31.1146 51.3885 30.88C51.0311 30.6453 50.7708 30.289 50.6556 29.8773H44.092V31.8378H47.3111C47.4374 31.8378 47.5586 31.8881 47.648 31.9774C47.7373 32.0668 47.7876 32.188 47.7876 32.3144C47.7876 32.4408 47.7374 32.5622 47.648 32.6516C47.5587 32.7409 47.4374 32.7912 47.3111 32.7912H44.092V34.6088H46.9142C47.0416 34.6086 47.1679 34.6339 47.2854 34.6829C47.403 34.7319 47.5097 34.8037 47.5992 34.8942L50.1077 37.3998C50.3793 37.2373 50.6899 37.1514 51.0065 37.1515C51.3934 37.1516 51.7698 37.2787 52.0777 37.513C52.3856 37.7473 52.6082 38.076 52.7115 38.4488C52.8147 38.8218 52.793 39.2185 52.6493 39.5778C52.5057 39.9371 52.2482 40.2394 51.9164 40.4384C51.5845 40.6374 51.1965 40.722 50.8119 40.6794C50.4274 40.6369 50.0672 40.4695 49.7869 40.2029C49.5066 39.9361 49.3213 39.5847 49.2596 39.2027C49.198 38.8207 49.2633 38.429 49.4455 38.0876L46.9256 35.5678H44.092V37.6312H45.8042C45.9554 37.6312 46.0896 37.8452 46.0896 38.1077C46.0895 38.3702 45.9668 38.5842 45.8042 38.5843H44.092V41.0214C44.0904 41.8191 43.7726 42.5837 43.2082 43.1475C42.6439 43.7113 41.879 44.0285 41.0813 44.0292H39.9055V45.6529C39.9055 45.8441 39.6915 45.9981 39.429 45.9982C39.1664 45.9982 38.9524 45.8441 38.9524 45.6529V44.0292H37.2402V46.7372C37.2398 46.7632 37.2446 46.789 37.2544 46.8131C37.2642 46.837 37.2787 46.8589 37.297 46.8771L39.8428 49.4227C40.1311 49.2365 40.467 49.1374 40.8101 49.1373C41.1937 49.137 41.5671 49.2615 41.8739 49.4918C42.1807 49.7221 42.4045 50.0458 42.5112 50.4142C42.618 50.7827 42.6019 51.1759 42.4658 51.5346C42.3297 51.8931 42.0808 52.1979 41.7566 52.4027C41.4322 52.6075 41.0498 52.7015 40.6674 52.6702C40.2851 52.6389 39.9234 52.4841 39.6366 52.2293C39.3498 51.9746 39.1536 51.6335 39.0775 51.2575C39.0015 50.8815 39.0497 50.491 39.2149 50.1448L36.6237 47.5535C36.5165 47.447 36.4315 47.3203 36.3737 47.1806C36.3159 47.0411 36.2863 46.8914 36.2868 46.7403V44.032H34.3265V46.6603C34.3265 46.7867 34.2762 46.9079 34.1869 46.9973C34.0975 47.0866 33.9763 47.1369 33.8499 47.1369C33.7235 47.1369 33.6021 47.0866 33.5127 46.9973C33.4234 46.9079 33.3731 46.7867 33.3731 46.6603V44.032H31.1988V46.2523C31.1991 46.3014 31.2184 46.3486 31.2528 46.3836L34.0038 49.1345C34.1064 49.2365 34.1878 49.3581 34.2432 49.4918C34.2985 49.6255 34.327 49.769 34.3265 49.9137V52.425C34.7382 52.5402 35.0943 52.8005 35.3289 53.1579C35.5636 53.5154 35.6607 53.9457 35.6026 54.3694C35.5445 54.793 35.3351 55.1813 35.0129 55.4624C34.6907 55.7434 34.2775 55.8982 33.8499 55.8982C33.4224 55.8982 33.0092 55.7434 32.687 55.4624C32.3647 55.1813 32.1551 54.793 32.097 54.3694C32.0389 53.9457 32.136 53.5154 32.3707 53.1579C32.6053 52.8005 32.9614 52.5402 33.3731 52.425V49.9193C33.3734 49.8997 33.3699 49.8803 33.3625 49.8622C33.3552 49.844 33.3443 49.8275 33.3305 49.8137L30.5793 47.0628C30.366 46.8492 30.2459 46.5597 30.2454 46.2579V44.0376H28.2851V50.5614C28.6968 50.6766 29.0529 50.9369 29.2875 51.2943C29.5222 51.6518 29.6193 52.0822 29.5612 52.5058C29.5031 52.9294 29.2935 53.3177 28.9712 53.5988C28.649 53.8798 28.2358 54.0347 27.8083 54.0347C27.3807 54.0346 26.9675 53.8798 26.6453 53.5988C26.3231 53.3177 26.1137 52.9294 26.0556 52.5058C25.9975 52.0822 26.0947 51.6518 26.3293 51.2943C26.5639 50.9369 26.92 50.6766 27.3317 50.5614V44.0376H25.3712V47.2054C25.3711 47.3318 25.3212 47.453 25.2318 47.5424C25.1424 47.6318 25.021 47.682 24.8946 47.682C24.7683 47.682 24.647 47.6317 24.5577 47.5424C24.4683 47.453 24.4181 47.3318 24.4181 47.2054V44.0262H22.6032V46.8117C22.6032 46.9385 22.5778 47.0641 22.5288 47.1812C22.4799 47.2982 22.4082 47.4045 22.3179 47.4936L19.8094 50.0021C20.0091 50.3392 20.0916 50.7329 20.0441 51.1218C19.9965 51.5108 19.8216 51.8733 19.5466 52.1524C19.2716 52.4315 18.912 52.6118 18.5238 52.6652C18.1356 52.7185 17.7406 52.6419 17.4004 52.4473C17.0604 52.2526 16.7942 51.9509 16.6435 51.5892C16.4929 51.2275 16.4661 50.8262 16.5674 50.4477C16.6688 50.0692 16.8927 49.7348 17.204 49.4968C17.5152 49.2588 17.8965 49.1304 18.2883 49.1317C18.5794 49.1315 18.8658 49.2041 19.1216 49.343L21.6471 46.8429V44.049H19.5812V45.7186C19.5811 45.8699 19.3668 46.004 19.1043 46.004C18.8419 46.004 18.6279 45.8841 18.6278 45.7186V44.049H16.031C15.2335 44.0483 14.4688 43.7312 13.9049 43.1673C13.341 42.6034 13.0239 41.8386 13.0231 41.0412V38.5957H11.1768C11.0227 38.5957 10.8915 38.3816 10.8914 38.1191C10.8914 37.8566 11.0113 37.6426 11.1768 37.6426H13.0231V35.5792H10.0523L7.53242 38.0991C7.71467 38.4404 7.77993 38.8321 7.7183 39.2141C7.65667 39.5961 7.47166 39.9476 7.19131 40.2143C6.91098 40.481 6.55087 40.6483 6.1663 40.6909C5.78171 40.7334 5.39372 40.6488 5.06186 40.4498C4.72999 40.2508 4.47228 39.9485 4.32864 39.5892C4.18499 39.2299 4.16326 38.8332 4.26649 38.4603C4.36972 38.0874 4.59235 37.7587 4.90022 37.5244C5.20818 37.2901 5.58453 37.163 5.97149 37.163C6.28808 37.1629 6.59888 37.2487 6.87054 37.4113L9.379 34.9056C9.46821 34.8154 9.5744 34.7439 9.69141 34.6949C9.80846 34.6459 9.93406 34.6204 10.0609 34.6202H13.0175V32.8054H9.66131C9.53495 32.8054 9.41373 32.7551 9.32438 32.6658C9.23503 32.5764 9.18478 32.4552 9.18475 32.3289C9.18475 32.2025 9.235 32.081 9.32438 31.9916C9.41373 31.9023 9.53496 31.8523 9.66131 31.8523H13.0231V29.8917H6.32236C6.20717 30.3035 5.94684 30.6596 5.58942 30.8942C5.23196 31.1288 4.80158 31.226 4.37796 31.1679C3.95443 31.1097 3.56625 30.9003 3.28523 30.5781C3.00421 30.2559 2.8494 29.8427 2.84937 29.4152C2.84937 28.9876 3.00419 28.5745 3.28523 28.2522C3.56626 27.93 3.95438 27.7204 4.37796 27.6622C4.80157 27.6041 5.23196 27.7013 5.58942 27.9359C5.94688 28.1706 6.20719 28.5268 6.32236 28.9386H13.0373V26.9781H10.6431C10.4932 26.9782 10.3447 26.9487 10.2061 26.8914C10.0676 26.8341 9.94156 26.7501 9.83549 26.6442L7.08457 23.893C7.05585 23.8663 7.01818 23.8512 6.97895 23.8504H4.47327C4.35809 24.2621 4.09772 24.6182 3.74033 24.8528C3.38288 25.0874 2.95248 25.1846 2.52888 25.1265C2.10528 25.0684 1.71691 24.859 1.43587 24.5368C1.15485 24.2146 1.00003 23.8014 1 23.3738C1 22.9463 1.15487 22.5331 1.43587 22.2109C1.71692 21.8886 2.10526 21.679 2.52888 21.6209C2.95248 21.5628 3.38288 21.6599 3.74033 21.8945C4.09772 22.1292 4.35809 22.4853 4.47327 22.897H6.97895C7.12373 22.896 7.26738 22.9241 7.40116 22.9795C7.53492 23.0349 7.65615 23.1167 7.75788 23.2197L10.5091 25.9706C10.5451 26.0053 10.5931 26.0246 10.6431 26.0247H13.0373V23.8504H10.2321C10.1057 23.8503 9.98448 23.8001 9.89513 23.7107C9.80578 23.6214 9.75554 23.5002 9.7555 23.3738C9.7555 23.2474 9.80575 23.126 9.89513 23.0366C9.98448 22.9473 10.1057 22.897 10.2321 22.897H13.0231V20.9367H10.1379C9.98679 20.9372 9.83712 20.9075 9.69754 20.8497C9.55792 20.7919 9.43119 20.7069 9.32465 20.5998L6.73342 18.0085C6.34264 18.1964 5.89695 18.2362 5.47905 18.1206C5.0612 18.0049 4.69939 17.7418 4.46073 17.3798C4.22209 17.0178 4.12282 16.5815 4.18121 16.1519C4.23963 15.7223 4.45184 15.3284 4.77844 15.0433C5.10506 14.7582 5.524 14.6012 5.95756 14.6013C6.39112 14.6015 6.80996 14.7588 7.13641 15.0441C7.46281 15.3295 7.67464 15.7234 7.7328 16.153C7.79094 16.5827 7.6916 17.0191 7.45271 17.3809L9.99824 19.915C10.0356 19.9515 10.0857 19.9719 10.1379 19.9719H13.0061V18.2596H11.2052C11.0169 18.2596 10.8627 18.0456 10.8627 17.7831C10.8628 17.5206 11.0169 17.3066 11.2052 17.3065H13.0061V15.9797C13.0069 15.1822 13.324 14.4175 13.8879 13.8536C14.4518 13.2897 15.2165 12.9726 16.014 12.9718H18.6108V11.1882C18.6108 11.037 18.8248 10.9029 19.0873 10.9029C19.3499 10.9029 19.5639 11.0256 19.5639 11.1882V12.9718H21.6301V10.0637L19.1074 7.54385C18.8514 7.68167 18.5649 7.75342 18.2741 7.7523C17.9242 7.7523 17.5819 7.64852 17.2909 7.45411C17 7.25972 16.7733 6.98337 16.6393 6.66013C16.5054 6.33683 16.4705 5.98084 16.5387 5.63763C16.607 5.2945 16.7755 4.9793 17.0228 4.7319C17.2703 4.48445 17.5856 4.31581 17.9288 4.24754C18.272 4.17927 18.6278 4.21426 18.9511 4.34814C19.2744 4.48206 19.5506 4.70903 19.745 4.99999C19.9395 5.29096 20.0432 5.63298 20.0432 5.98292C20.0433 6.2995 19.9578 6.61031 19.7952 6.88196L22.3034 9.39042C22.394 9.47989 22.4662 9.58637 22.5152 9.70395C22.5642 9.82153 22.5891 9.94777 22.5888 10.0752V12.9688H24.4038V9.6758C24.4038 9.5494 24.4541 9.42796 24.5435 9.33859C24.6328 9.24925 24.754 9.19898 24.8804 9.19897C25.0067 9.19897 25.128 9.24928 25.2173 9.33859C25.3067 9.42796 25.357 9.5494 25.357 9.6758V12.9718H27.3376V6.33379C26.9258 6.21861 26.5695 5.9583 26.3349 5.60084C26.1003 5.24339 26.0031 4.81298 26.0612 4.38939C26.1193 3.96581 26.329 3.57769 26.6512 3.29666C26.9734 3.01561 27.3865 2.86079 27.8141 2.86079C28.2417 2.8608 28.6549 3.01561 28.9771 3.29666C29.2993 3.57769 29.5089 3.96582 29.5671 4.38939C29.6252 4.81301 29.5278 5.24338 29.2931 5.60084C29.0585 5.95828 28.7024 6.21861 28.2907 6.33379V12.9746H30.2512V10.6431C30.2511 10.4932 30.2806 10.3447 30.3379 10.2061C30.3952 10.0676 30.4791 9.94158 30.5851 9.83549L33.336 7.08736C33.3499 7.07354 33.361 7.05701 33.3684 7.03887C33.3757 7.02074 33.3793 7.00129 33.379 6.98173V4.47327C32.9672 4.3581 32.6109 4.09779 32.3762 3.74033C32.1416 3.38289 32.0445 2.95247 32.1026 2.52888C32.1607 2.10526 32.3703 1.71692 32.6925 1.43587C33.0148 1.15483 33.4279 1 33.8555 1ZM33.8469 53.3095C33.6855 53.3095 33.5276 53.3575 33.3934 53.4472C33.2593 53.5369 33.1548 53.6643 33.093 53.8134C33.0312 53.9625 33.015 54.1266 33.0465 54.2849C33.078 54.4432 33.1556 54.5888 33.2697 54.703C33.3839 54.8171 33.5294 54.8947 33.6877 54.9262C33.8461 54.9577 34.0101 54.9414 34.1593 54.8796C34.3084 54.8179 34.4358 54.7134 34.5255 54.5792C34.604 54.4618 34.6505 54.3262 34.6609 54.186L34.6631 54.1286C34.6635 54.0212 34.6427 53.9147 34.6018 53.8153C34.561 53.716 34.5009 53.6258 34.4251 53.5497C34.3493 53.4737 34.259 53.4131 34.1598 53.3719C34.0606 53.3308 33.9543 53.3095 33.8469 53.3095ZM27.8055 51.4459C27.6441 51.446 27.4863 51.4939 27.3521 51.5836C27.2179 51.6733 27.1134 51.8007 27.0516 51.9498C26.9899 52.0989 26.9736 52.2631 27.0051 52.4213C27.0366 52.5797 27.1142 52.7252 27.2283 52.8394C27.3425 52.9535 27.488 53.0311 27.6464 53.0626C27.8047 53.0941 27.9688 53.0781 28.1179 53.0163C28.267 52.9546 28.3944 52.8498 28.4841 52.7156C28.5626 52.5982 28.6092 52.4626 28.6195 52.3224L28.6218 52.265C28.6217 52.0483 28.5358 51.8405 28.3829 51.687C28.23 51.5335 28.0222 51.4467 27.8055 51.4459ZM18.6007 50.1556C18.4516 50.0938 18.2873 50.0776 18.1289 50.1091C17.9707 50.1406 17.8253 50.2182 17.7112 50.3323C17.597 50.4465 17.5192 50.592 17.4877 50.7503C17.4562 50.9086 17.4724 51.0728 17.5342 51.2219C17.596 51.371 17.7007 51.4984 17.8349 51.5881C17.9691 51.6777 18.1269 51.7257 18.2883 51.7257V51.7285C18.505 51.7278 18.7125 51.6412 18.8655 51.4877C19.0185 51.3342 19.1043 51.1262 19.1043 50.9095C19.1043 50.7481 19.0566 50.5902 18.9669 50.456C18.8773 50.3219 18.7498 50.2174 18.6007 50.1556ZM40.8074 50.0963C40.5916 50.097 40.3847 50.1828 40.2319 50.3351C40.0791 50.4874 39.9926 50.6938 39.9911 50.9095C39.9911 51.0709 40.0391 51.2287 40.1287 51.3629C40.2184 51.4971 40.3458 51.6018 40.4949 51.6636C40.6441 51.7254 40.8082 51.7416 40.9665 51.7101C41.1248 51.6786 41.2704 51.6008 41.3845 51.4866C41.4986 51.3725 41.5762 51.2271 41.6077 51.0689C41.6392 50.9106 41.6229 50.7465 41.5612 50.5973C41.4994 50.4482 41.395 50.3205 41.2608 50.2309C41.1266 50.1412 40.9687 50.0935 40.8074 50.0935V50.0963ZM16.031 14.1133C15.5367 14.1148 15.0631 14.312 14.7139 14.6618C14.3647 15.0115 14.1681 15.4855 14.1674 15.9797V41.0297C14.1682 41.5237 14.3649 41.9975 14.7142 42.3468C15.0635 42.6961 15.537 42.8926 16.031 42.8933H41.0727C41.5672 42.8933 42.0415 42.697 42.3914 42.3477C42.7413 41.9983 42.9383 41.5242 42.939 41.0297L42.9477 15.9797C42.9469 15.4849 42.7499 15.0105 42.4 14.6607C42.0502 14.3109 41.576 14.1141 41.0813 14.1133H16.031ZM6.2839 38.1699C6.1348 38.1081 5.97066 38.0919 5.81236 38.1233C5.65406 38.1548 5.50847 38.2324 5.39433 38.3465C5.28019 38.4607 5.2026 38.6063 5.17111 38.7646C5.13962 38.9229 5.1556 39.087 5.21737 39.2361C5.27914 39.3852 5.38386 39.5126 5.51807 39.6023C5.65229 39.692 5.81007 39.74 5.97149 39.74C6.07867 39.74 6.18488 39.7188 6.2839 39.6778C6.3829 39.6368 6.47288 39.5766 6.54866 39.5009C6.62442 39.4251 6.68461 39.3351 6.72562 39.2361C6.76663 39.1371 6.78777 39.0309 6.78777 38.9237C6.78775 38.7623 6.73977 38.6045 6.6501 38.4703C6.56044 38.3361 6.43297 38.2316 6.2839 38.1699ZM51.0065 38.1077C50.7903 38.1085 50.5833 38.1946 50.4304 38.3474C50.2775 38.5003 50.1912 38.7075 50.1905 38.9237C50.1905 39.0851 50.2382 39.2429 50.3279 39.3771C50.4175 39.5113 50.5452 39.6161 50.6943 39.6778C50.8434 39.7396 51.0076 39.7559 51.1659 39.7244C51.3242 39.6929 51.4695 39.615 51.5836 39.5009C51.6977 39.3867 51.7756 39.2414 51.8071 39.0831C51.8386 38.9248 51.8223 38.7607 51.7606 38.6116C51.6988 38.4624 51.5941 38.3348 51.4599 38.2451C51.3257 38.1555 51.1678 38.1077 51.0065 38.1077ZM4.9306 28.6521C4.7813 28.5905 4.6169 28.5744 4.4585 28.6062C4.30011 28.6379 4.15478 28.7161 4.04075 28.8305C3.92673 28.9449 3.84925 29.0906 3.81808 29.2491C3.78692 29.4076 3.80325 29.5718 3.86546 29.7209C3.92767 29.87 4.03297 29.9972 4.16755 30.0865C4.3021 30.1758 4.46007 30.2234 4.62154 30.2228C4.8375 30.2221 5.04458 30.1356 5.19702 29.9826C5.34942 29.8296 5.43501 29.6225 5.43502 29.4065C5.43502 29.245 5.38712 29.0871 5.29735 28.9528C5.20756 28.8186 5.07986 28.7138 4.9306 28.6521ZM52.3564 28.5903C52.2492 28.5903 52.143 28.6114 52.044 28.6524C51.945 28.6934 51.855 28.7536 51.7793 28.8294C51.7035 28.9052 51.6433 28.9951 51.6023 29.0941C51.5613 29.1932 51.5401 29.2994 51.5401 29.4065C51.5401 29.568 51.5881 29.7258 51.6778 29.86C51.7675 29.9942 51.8949 30.0989 52.044 30.1607C52.1931 30.2224 52.3572 30.2384 52.5155 30.2069C52.6739 30.1754 52.8194 30.0979 52.9336 29.9837C53.0477 29.8696 53.1253 29.724 53.1568 29.5657C53.1883 29.4074 53.1723 29.2433 53.1105 29.0941C53.0488 28.945 52.944 28.8176 52.8098 28.7279C52.6756 28.6383 52.5178 28.5903 52.3564 28.5903ZM54.5321 22.6225C54.3835 22.5609 54.2198 22.5448 54.062 22.5759C53.9041 22.6071 53.759 22.6841 53.6448 22.7975C53.5306 22.9109 53.4524 23.0556 53.4202 23.2133C53.388 23.3709 53.4031 23.5346 53.4636 23.6837C53.5242 23.8328 53.6274 23.9607 53.7604 24.0513C53.8935 24.1419 54.0504 24.1909 54.2113 24.1926L54.22 24.1812C54.4349 24.1812 54.6413 24.0966 54.7941 23.9454C54.9469 23.7942 55.0337 23.5887 55.036 23.3738C55.0354 23.2129 54.9874 23.0554 54.8978 22.9218C54.8081 22.7882 54.6808 22.684 54.5321 22.6225ZM3.07036 22.611C2.92126 22.5493 2.75711 22.533 2.59883 22.5645C2.44054 22.596 2.2952 22.6739 2.18107 22.788C2.06695 22.9021 1.98907 23.0475 1.95757 23.2058C1.92608 23.3641 1.94233 23.5284 2.00411 23.6776C2.06589 23.8267 2.17063 23.9541 2.30481 24.0438C2.43901 24.1334 2.59684 24.1812 2.75824 24.1812C2.97467 24.1812 3.18235 24.0954 3.3354 23.9423C3.48844 23.7893 3.57421 23.5816 3.57423 23.3652C3.57423 23.2038 3.52648 23.046 3.43684 22.9118C3.34716 22.7775 3.2195 22.6728 3.07036 22.611ZM51.0065 15.5915C50.8985 15.5919 50.7917 15.6137 50.6921 15.6556C50.5925 15.6974 50.5021 15.7584 50.4262 15.8353C50.3504 15.9123 50.2906 16.0035 50.2501 16.1037C50.2096 16.2039 50.1893 16.3112 50.1905 16.4192C50.1905 16.5806 50.2382 16.7384 50.3279 16.8726C50.4175 17.0068 50.5452 17.1113 50.6943 17.173C50.8434 17.2348 51.0076 17.2511 51.1659 17.2196C51.3241 17.1881 51.4695 17.1104 51.5836 16.9963C51.6978 16.8822 51.7756 16.7366 51.8071 16.5783C51.8386 16.42 51.8223 16.2559 51.7606 16.1068C51.6988 15.9576 51.5941 15.8303 51.4599 15.7406C51.3257 15.6509 51.1679 15.6029 51.0065 15.6029V15.5915ZM6.2839 15.6536C6.1348 15.5919 5.97065 15.5756 5.81236 15.6071C5.65404 15.6386 5.50848 15.7165 5.39433 15.8306C5.28024 15.9447 5.20261 16.0901 5.17111 16.2484C5.13962 16.4066 5.15563 16.5708 5.21737 16.7199C5.27914 16.869 5.38385 16.9967 5.51807 17.0864C5.65228 17.176 5.81009 17.2238 5.97149 17.2238C6.1877 17.223 6.39493 17.137 6.54782 16.9841C6.7007 16.8312 6.78699 16.624 6.78777 16.4078C6.78777 16.2464 6.73975 16.0885 6.6501 15.9543C6.56043 15.8201 6.43301 15.7154 6.2839 15.6536ZM18.6007 5.22879C18.4516 5.16702 18.2873 5.15104 18.1289 5.18253C17.9707 5.21404 17.8253 5.29166 17.7112 5.40576C17.597 5.5199 17.5192 5.66547 17.4877 5.82379C17.4562 5.98207 17.4725 6.14624 17.5342 6.29533C17.596 6.44444 17.7007 6.57185 17.8349 6.66152C17.9691 6.75118 18.1269 6.79919 18.2883 6.79919C18.5045 6.79843 18.7118 6.71213 18.8647 6.55925C19.0175 6.40635 19.1036 6.19914 19.1043 5.98292C19.1043 5.82151 19.0566 5.66371 18.9669 5.5295C18.8773 5.3953 18.7498 5.29057 18.6007 5.22879ZM40.8074 5.16665C40.5911 5.1674 40.3839 5.25372 40.231 5.4066C40.0781 5.5595 39.9918 5.76669 39.9911 5.98292C39.9911 6.14434 40.0391 6.30213 40.1287 6.43634C40.2184 6.57054 40.3458 6.67528 40.4949 6.73705C40.6441 6.7988 40.8082 6.8148 40.9665 6.78331C41.1248 6.75181 41.2704 6.67422 41.3845 6.56008C41.4986 6.44594 41.5763 6.30035 41.6077 6.14205C41.6392 5.98375 41.623 5.81962 41.5612 5.67051C41.4994 5.52144 41.3949 5.39398 41.2608 5.30432C41.1266 5.21465 40.9687 5.16667 40.8074 5.16665ZM27.9649 3.83257C27.8066 3.80108 27.6422 3.81734 27.4931 3.87911C27.344 3.94089 27.2165 4.04539 27.1269 4.17954C27.0372 4.31372 26.9895 4.47158 26.9895 4.63296C26.9903 4.84915 27.0763 5.0564 27.2292 5.20929C27.3821 5.36217 27.5893 5.44847 27.8055 5.44924C27.9669 5.44924 28.1247 5.40147 28.2589 5.31184C28.3931 5.22216 28.4978 5.09451 28.5596 4.94537C28.6214 4.79625 28.6376 4.63213 28.6062 4.47383C28.5747 4.31553 28.4968 4.17022 28.3827 4.05608C28.2685 3.94196 28.1232 3.86408 27.9649 3.83257ZM34.0063 1.96899C33.848 1.93751 33.6838 1.9538 33.5347 2.01553C33.3856 2.07731 33.2579 2.18202 33.1683 2.31624C33.0786 2.45044 33.0309 2.60828 33.0309 2.76966C33.0309 2.98609 33.1167 3.19378 33.2697 3.34682C33.4227 3.49986 33.6304 3.58564 33.8469 3.58566C34.0083 3.58566 34.1661 3.5379 34.3003 3.44826C34.4345 3.35858 34.5392 3.23093 34.601 3.08179C34.6627 2.93268 34.679 2.76854 34.6475 2.61025C34.616 2.45196 34.5382 2.30662 34.424 2.1925C34.3099 2.07838 34.1646 2.0005 34.0063 1.96899Z" fill="white"/>
</svg>
