<svg width="57" height="56" viewBox="0 0 57 56" fill="none" xmlns="http://www.w3.org/2000/svg">
<path d="M12.6753 43.1432C13.5714 43.1433 14.298 43.8698 14.298 44.766C14.298 45.6622 13.5714 46.3888 12.6753 46.3888C11.7791 46.3888 11.0525 45.6622 11.0525 44.766C11.0525 43.8698 11.779 43.1432 12.6753 43.1432Z" fill="white"/>
<path d="M17.6654 43.1432C18.5615 43.1433 19.2881 43.8698 19.2881 44.766C19.2881 45.6622 18.5615 46.3888 17.6654 46.3888C16.7692 46.3888 16.0426 45.6622 16.0426 44.766C16.0426 43.8698 16.7691 43.1432 17.6654 43.1432Z" fill="white"/>
<path d="M22.4848 43.1432C23.3809 43.1433 24.1075 43.8698 24.1075 44.766C24.1075 45.6622 23.3809 46.3888 22.4848 46.3888C21.5886 46.3888 20.862 45.6622 20.862 44.766C20.862 43.8698 21.5885 43.1432 22.4848 43.1432Z" fill="white"/>
<path d="M45.906 43.8193C46.1507 43.8193 46.3855 43.9166 46.5586 44.0896C46.7316 44.2627 46.8289 44.4975 46.8289 44.7422C46.8289 44.9869 46.7315 45.2215 46.5586 45.3945C46.3855 45.5675 46.1507 45.6648 45.906 45.6648H31.4652C31.2204 45.6648 30.9856 45.5675 30.8126 45.3945C30.6396 45.2214 30.5423 44.9869 30.5422 44.7422C30.5422 44.4975 30.6395 44.2627 30.8126 44.0896C30.9856 43.9166 31.2204 43.8193 31.4652 43.8193H45.906Z" fill="white"/>
<path d="M12.6753 25.7598C13.5714 25.7599 14.298 26.4864 14.298 27.3826C14.298 28.2788 13.5714 29.0054 12.6753 29.0054C11.7791 29.0054 11.0525 28.2788 11.0525 27.3826C11.0525 26.4864 11.779 25.7598 12.6753 25.7598Z" fill="white"/>
<path d="M17.6654 25.7598C18.5615 25.7599 19.2881 26.4864 19.2881 27.3826C19.2881 28.2788 18.5615 29.0054 17.6654 29.0054C16.7692 29.0054 16.0426 28.2788 16.0426 27.3826C16.0426 26.4864 16.7691 25.7598 17.6654 25.7598Z" fill="white"/>
<path d="M22.4848 25.7598C23.3809 25.7599 24.1075 26.4864 24.1075 27.3826C24.1075 28.2788 23.3809 29.0054 22.4848 29.0054C21.5886 29.0054 20.862 28.2788 20.862 27.3826C20.862 26.4864 21.5885 25.7598 22.4848 25.7598Z" fill="white"/>
<path d="M45.9063 26.4318C46.1417 26.4463 46.3627 26.5501 46.5242 26.7219C46.6858 26.8937 46.7759 27.1206 46.7759 27.3564C46.7759 27.5922 46.6858 27.8192 46.5242 27.991C46.3627 28.1627 46.1417 28.2663 45.9063 28.2807H31.4655C31.2302 28.2663 31.0092 28.1627 30.8476 27.991C30.6861 27.8192 30.596 27.5922 30.596 27.3564C30.596 27.1206 30.686 26.8937 30.8476 26.7219C31.0092 26.5501 31.2301 26.4463 31.4655 26.4318H45.9063Z" fill="white"/>
<path d="M12.6787 8.8151C12.8917 8.81511 13.1028 8.85701 13.2996 8.93854C13.4965 9.02009 13.6753 9.13983 13.826 9.29051C13.9767 9.44118 14.0961 9.62008 14.1777 9.81693C14.2592 10.0138 14.3014 10.2248 14.3014 10.4379C14.3014 10.7588 14.206 11.0726 14.0277 11.3394C13.8494 11.6062 13.5961 11.8141 13.2996 11.9369C13.0031 12.0597 12.6768 12.092 12.3621 12.0294C12.0473 11.9668 11.7582 11.8122 11.5313 11.5853C11.3044 11.3583 11.1498 11.0692 11.0872 10.7545C11.0245 10.4397 11.0565 10.1134 11.1793 9.81693C11.3021 9.52042 11.5103 9.26682 11.7771 9.08851C12.044 8.91024 12.3577 8.8151 12.6787 8.8151Z" fill="white"/>
<path d="M17.6654 8.8151C18.0957 8.81512 18.5084 8.9862 18.8127 9.29051C19.117 9.59483 19.2881 10.0075 19.2881 10.4379C19.2881 10.7588 19.1927 11.0726 19.0144 11.3394C18.8361 11.6062 18.5828 11.8141 18.2863 11.9369C17.9898 12.0597 17.6635 12.092 17.3488 12.0294C17.034 11.9668 16.7449 11.8122 16.518 11.5853C16.2911 11.3583 16.1365 11.0692 16.0739 10.7545C16.0113 10.4397 16.0432 10.1134 16.166 9.81693C16.2888 9.52042 16.497 9.26682 16.7638 9.08851C17.0307 8.91025 17.3445 8.8151 17.6654 8.8151Z" fill="white"/>
<path d="M22.4882 8.8151C22.9185 8.81512 23.3312 8.9862 23.6355 9.29051C23.9398 9.59483 24.1109 10.0075 24.1109 10.4379C24.1109 10.7588 24.0158 11.0726 23.8375 11.3394C23.6592 11.6062 23.4056 11.8141 23.1091 11.9369C22.8126 12.0597 22.4863 12.092 22.1716 12.0294C21.8568 11.9668 21.5677 11.8122 21.3408 11.5853C21.1139 11.3583 20.9593 11.0692 20.8967 10.7545C20.834 10.4397 20.866 10.1134 20.9888 9.81693C21.1116 9.52042 21.3198 9.26682 21.5866 9.08851C21.8535 8.91024 22.1672 8.8151 22.4882 8.8151Z" fill="white"/>
<path d="M45.906 9.49115C46.1507 9.49116 46.3855 9.58845 46.5586 9.7615C46.7316 9.93455 46.8289 10.1694 46.8289 10.4141C46.8289 10.5352 46.8049 10.6552 46.7585 10.7671C46.7122 10.879 46.6442 10.9807 46.5586 11.0663C46.4729 11.152 46.371 11.2203 46.259 11.2666C46.1471 11.313 46.0271 11.3367 45.906 11.3367H31.4652C31.2204 11.3367 30.9856 11.2394 30.8126 11.0663C30.6396 10.8933 30.5423 10.6588 30.5422 10.4141C30.5422 10.1693 30.6395 9.93456 30.8126 9.7615C30.9856 9.58844 31.2204 9.49115 31.4652 9.49115H45.906Z" fill="white"/>
<path fill-rule="evenodd" clip-rule="evenodd" d="M49.7538 3C50.6115 3.00092 51.434 3.342 52.0404 3.94844C52.6469 4.55492 52.9879 5.37734 52.9889 6.23503V14.6901C52.9879 15.5477 52.6469 16.3699 52.0404 16.9763C51.4339 17.5828 50.6115 17.9242 49.7538 17.9251H39.2132V19.9413H49.747C50.6047 19.9423 51.4271 20.2833 52.0336 20.8898C52.6401 21.4962 52.9811 22.3187 52.9821 23.1764V31.631C52.9821 32.4881 52.6424 33.3103 52.0374 33.9173C51.4323 34.5243 50.6109 34.8667 49.7538 34.8695H39.2132V37.3247H49.7538C50.6115 37.3257 51.4339 37.6667 52.0404 38.2732C52.6469 38.8797 52.9879 39.7021 52.9889 40.5598V49.0182C52.9879 49.8762 52.6471 50.6988 52.0408 51.3058C51.4344 51.9128 50.6119 52.2548 49.7538 52.2566H8.23503C7.37705 52.2548 6.55482 51.9128 5.94844 51.3058C5.34209 50.6988 5.00095 49.8762 5 49.0182V40.5632C5.00092 39.7055 5.34196 38.8831 5.94844 38.2766C6.55492 37.6701 7.37734 37.3291 8.23503 37.3281H17.1393V34.8695H8.23503C7.37679 34.8686 6.55399 34.5272 5.94742 33.92C5.34084 33.3128 5 32.4893 5 31.631V23.1764C5.00092 22.3187 5.342 21.4962 5.94844 20.8898C6.55492 20.2833 7.37734 19.9423 8.23503 19.9413H17.1393V17.9251H8.23503C7.37734 17.9242 6.55492 17.5828 5.94844 16.9763C5.34205 16.3699 5.00095 15.5477 5 14.6901V6.23503C5.00092 5.37734 5.34196 4.55492 5.94844 3.94844C6.55492 3.34196 7.37734 3.00092 8.23503 3H49.7538ZM8.23503 38.3796C7.65749 38.3805 7.10396 38.6109 6.6959 39.0196C6.28788 39.4283 6.05862 39.9823 6.05862 40.5598V49.0145C6.05816 49.3006 6.11404 49.5842 6.22321 49.8486C6.33237 50.113 6.49278 50.3532 6.69488 50.5556C6.89698 50.758 7.13698 50.9187 7.40119 51.0283C7.66548 51.1379 7.94893 51.1946 8.23503 51.1946H49.7538C50.0399 51.1946 50.3234 51.1379 50.5877 51.0283C50.8519 50.9187 51.0922 50.7581 51.2943 50.5556C51.4964 50.3532 51.6565 50.113 51.7657 49.8486C51.8748 49.5842 51.9307 49.3006 51.9302 49.0145V40.5598H51.9374C51.9374 40.2732 51.8809 39.9893 51.7711 39.7246C51.6613 39.4599 51.5005 39.2194 51.2977 39.0169C51.095 38.8145 50.8542 38.6539 50.5894 38.5446C50.3245 38.4352 50.0404 38.3792 49.7538 38.3796H8.23503ZM18.1942 37.1054H38.158V35.0892H18.1942V37.1054ZM8.23503 20.9962C7.65754 20.9971 7.10395 21.2272 6.6959 21.6359C6.28784 22.0446 6.05862 22.5988 6.05862 23.1764V31.631C6.05862 32.2086 6.28787 32.7625 6.6959 33.1712C7.10396 33.5799 7.65749 33.8103 8.23503 33.8112H49.7538C50.3314 33.8103 50.8853 33.5799 51.2933 33.1712C51.7013 32.7625 51.9302 32.2085 51.9302 31.631V23.1764C51.9302 22.5988 51.7014 22.0446 51.2933 21.6359C50.8853 21.2272 50.3314 20.9971 49.7538 20.9962H8.23503ZM18.1942 19.9515H38.158V17.9353H18.1942V19.9515ZM8.23503 4.05522C7.65749 4.05614 7.10396 4.28617 6.6959 4.69488C6.28785 5.10359 6.05862 5.65749 6.05862 6.23503V14.6901C6.05865 15.2676 6.28787 15.8215 6.6959 16.2302C7.10395 16.6389 7.65752 16.8689 8.23503 16.8699H49.7538C50.3314 16.8689 50.8853 16.6389 51.2933 16.2302C51.7013 15.8215 51.9302 15.2675 51.9302 14.6901V6.23503C51.9302 5.65754 51.7013 5.10358 51.2933 4.69488C50.8853 4.28617 50.3314 4.05614 49.7538 4.05522H8.23503Z" fill="white"/>
</svg>
